<?xml version="1.0" encoding="iso-8859-1"?>
<!-- Uploaded to: SVG Repo, www.svgrepo.com, Generator: SVG Repo Mixer Tools -->
<!DOCTYPE svg PUBLIC "-//W3C//DTD SVG 1.1//EN" "http://www.w3.org/Graphics/SVG/1.1/DTD/svg11.dtd">
<svg fill="#000000" height="800px" width="800px" version="1.1" id="Capa_1" xmlns="http://www.w3.org/2000/svg" xmlns:xlink="http://www.w3.org/1999/xlink" 
	 viewBox="0 0 194.396 194.396" xml:space="preserve">
<path d="M54.489,52v106.568c0,9.402-7.649,17.051-17.051,17.051H17.051C7.649,175.619,0,167.97,0,158.568V52
	c0-9.402,7.649-17.051,17.051-17.051h20.388C46.84,34.949,54.489,42.598,54.489,52z M124.442,70.62
	c-19.114,0-34.664,15.55-34.664,34.664s15.55,34.664,34.664,34.664s34.664-15.55,34.664-34.664S143.557,70.62,124.442,70.62z
	 M194.396,64.703v81.163c0,12.722-10.351,23.071-23.072,23.071H62.42c1.331-3.195,2.07-6.697,2.07-10.369V52
	c0-3.672-0.739-7.174-2.07-10.369h27.208v-4.278c0-10.243,8.333-18.576,18.576-18.576h32.477c10.243,0,18.576,8.333,18.576,18.576
	v4.278h12.066C184.045,41.631,194.396,51.981,194.396,64.703z M169.106,105.284c0-24.628-20.036-44.664-44.664-44.664
	s-44.664,20.036-44.664,44.664s20.036,44.664,44.664,44.664S169.106,129.912,169.106,105.284z"/>
</svg>