<?xml version="1.0" standalone="no"?>
<!DOCTYPE svg PUBLIC "-//W3C//DTD SVG 20010904//EN"
 "http://www.w3.org/TR/2001/REC-SVG-20010904/DTD/svg10.dtd">
<svg version="1.0" xmlns="http://www.w3.org/2000/svg"
 width="450.000000pt" height="450.000000pt" viewBox="0 0 450.000000 450.000000"
 preserveAspectRatio="xMidYMid meet">

<g transform="translate(0.000000,450.000000) scale(0.100000,-0.100000)"
fill="#000000" stroke="none">
<path d="M1955 3565 c-187 -18 -342 -33 -344 -34 -4 -1 5 -187 16 -308 l6 -72
-62 -7 c-33 -3 -64 -6 -68 -6 -5 1 -15 84 -23 184 l-15 183 -60 3 c-33 1 -220
-14 -415 -33 -195 -20 -370 -37 -389 -38 l-33 -2 6 -50 c3 -27 13 -118 23
-202 l17 -151 131 4 c142 5 331 21 410 35 28 4 122 16 210 25 88 8 165 20 171
25 7 5 37 7 68 3 39 -5 56 -3 56 5 0 6 7 11 16 11 8 0 12 5 9 10 -4 6 7 10 27
10 18 0 44 3 57 7 17 4 22 3 17 -5 -4 -7 -20 -12 -37 -12 -19 0 -29 -5 -29
-15 0 -20 27 -19 47 1 9 8 21 13 29 10 7 -3 74 -8 148 -12 104 -5 136 -10 136
-20 0 -11 19 -14 80 -14 73 0 80 -2 80 -20 0 -18 7 -20 79 -20 44 0 81 -4 83
-10 5 -15 291 -17 296 -2 5 16 22 15 22 -1 0 -10 22 -12 97 -10 53 1 101 7
107 13 15 15 95 12 143 -6 51 -20 51 -16 26 -196 -9 -70 -14 -130 -11 -133 3
-3 27 -1 53 5 26 6 50 8 53 5 5 -4 -11 -193 -24 -277 -5 -35 -8 -37 -62 -50
l-57 -14 -6 -59 c-4 -33 -15 -147 -25 -254 -10 -106 -19 -189 -20 -185 -1 5
-6 27 -9 49 -6 33 -9 37 -15 20 -8 -19 -9 -19 -9 3 -1 19 -6 22 -41 22 -33 0
-40 3 -40 20 0 13 -7 20 -20 20 -13 0 -20 7 -20 20 0 17 -7 20 -40 20 -28 0
-40 4 -40 14 0 8 -10 17 -22 19 l-23 4 23 2 c15 1 22 7 22 21 0 18 -7 20 -60
20 -53 0 -60 2 -60 20 0 17 -7 20 -40 20 l-40 0 0 40 0 40 -160 0 -160 0 0
-35 0 -35 -92 0 c-111 0 -138 -6 -138 -30 0 -10 -6 -20 -12 -23 -16 -5 -61 14
-71 30 -13 22 -23 7 -26 -38 -1 -24 -6 -50 -11 -58 -6 -10 -10 44 -10 150 l0
167 -30 12 c-16 7 -35 19 -42 27 -8 9 1 7 22 -6 19 -11 41 -21 48 -21 17 0 17
299 -1 305 -6 3 -75 -6 -152 -19 -77 -13 -220 -38 -317 -55 -98 -17 -183 -31
-188 -31 -6 0 -8 -5 -5 -10 10 -15 -5 -91 -16 -84 -5 3 -7 9 -5 13 3 4 -10 13
-27 21 -24 11 -28 15 -15 18 10 2 18 8 18 13 0 5 7 9 15 9 29 0 15 17 -29 35
-25 10 -43 22 -40 26 2 5 -6 13 -18 20 -22 12 -22 11 -8 -6 14 -17 14 -18 -7
-6 -13 6 -23 16 -23 22 0 19 -28 39 -46 32 -11 -4 -15 -3 -11 4 4 7 -11 23
-35 38 -41 25 -206 126 -292 177 -22 13 -55 34 -74 46 -20 13 -46 28 -59 33
-23 8 -23 7 -17 -34 4 -23 12 -45 19 -49 54 -32 51 -18 89 -438 106 -1155 101
-1110 129 -1137 l25 -25 56 16 c50 15 56 19 56 44 0 15 -16 207 -34 427 -19
220 -34 401 -33 402 1 1 47 -35 102 -79 55 -44 111 -89 124 -99 23 -19 24 -25
52 -416 25 -355 30 -398 47 -415 17 -18 23 -18 61 -7 27 8 41 18 41 29 0 30
-39 663 -45 728 -3 35 -2 62 4 62 12 0 16 -57 51 -660 38 -661 35 -629 71
-673 l29 -36 63 21 c34 11 66 24 70 28 5 4 -1 207 -12 451 -12 244 -22 468
-24 497 -1 28 0 52 3 52 3 0 98 -74 210 -165 l205 -165 6 -49 c4 -26 10 -240
14 -475 l7 -427 25 -30 c29 -34 38 -35 93 -13 l40 16 0 238 c0 130 -5 308 -11
396 -6 87 -8 195 -4 240 6 75 9 83 30 88 13 3 30 9 39 12 14 5 16 -4 16 -64 0
-63 2 -71 25 -86 22 -14 31 -15 65 -5 l40 12 0 93 0 93 66 21 c36 11 70 20 75
20 5 0 9 -28 9 -62 1 -55 4 -65 25 -81 22 -15 30 -16 65 -6 l40 12 0 88 c0 74
3 90 18 97 30 15 212 66 217 60 3 -3 1 -142 -5 -309 -5 -167 -10 -351 -9 -409
0 -103 1 -105 28 -127 28 -22 30 -22 70 -6 26 10 43 24 46 37 8 37 11 306 4
306 -4 0 -7 21 -6 48 2 116 -3 152 -19 152 -16 0 -16 -36 0 -72 4 -9 3 -25 -3
-35 -9 -16 -10 -15 -11 9 0 15 -4 29 -8 32 -5 3 -9 65 -10 138 -1 73 2 128 6
122 4 -6 23 -14 42 -17 19 -4 29 -3 23 1 -14 9 -7 109 8 118 5 3 9 20 9 39 0
19 6 35 14 38 11 5 14 31 14 122 0 64 2 119 6 122 3 3 6 -10 6 -30 0 -31 5
-38 41 -59 l42 -23 -2 -113 c-2 -96 0 -116 15 -126 15 -12 15 -34 0 -335 -10
-178 -16 -324 -14 -325 51 -36 67 -44 72 -38 4 4 11 7 14 8 4 0 20 4 35 9 25
6 28 11 23 34 -16 67 -18 101 -7 101 6 0 11 7 11 15 0 9 -6 12 -17 8 -13 -5
-15 -2 -11 15 5 17 2 22 -13 22 -26 0 -25 39 2 91 11 23 18 47 15 54 -2 7 0
17 6 23 6 6 6 12 -1 16 -20 13 -31 -4 -31 -46 0 -23 -2 -39 -5 -36 -3 3 2 112
10 244 8 131 15 249 15 262 0 13 4 21 9 17 5 -3 12 -1 16 5 3 5 17 10 30 10
17 0 25 6 27 22 2 18 18 26 82 45 43 14 80 22 83 20 2 -3 0 -65 -6 -138 -16
-192 -17 -182 30 -208 22 -13 43 -21 46 -18 4 5 14 108 25 257 1 19 8 41 15
48 7 7 13 19 13 25 0 7 -4 6 -10 -3 -7 -11 -10 -4 -10 27 0 38 3 43 28 48 15
3 41 12 57 20 39 19 188 65 193 60 4 -3 -54 -675 -63 -726 -3 -22 3 -30 35
-48 l39 -22 5 33 c6 42 23 217 36 378 12 144 39 403 43 405 69 31 87 43 87 57
0 9 2 23 6 31 8 23 -56 28 -149 11 -103 -18 -97 -18 -97 11 0 14 -4 25 -10 25
-5 0 -10 9 -10 20 0 13 -7 20 -20 20 -17 0 -20 7 -20 40 0 33 -3 40 -20 40
-13 0 -20 7 -20 20 0 11 -4 20 -10 20 -5 0 -10 18 -10 40 0 33 -3 40 -20 40
-17 0 -20 7 -20 40 0 33 -3 40 -20 40 -17 0 -20 7 -20 40 0 33 -3 40 -20 40
-17 0 -20 7 -20 40 0 33 -3 40 -20 40 -19 0 -20 7 -20 110 0 103 -1 110 -20
110 -11 0 -20 5 -20 10 0 6 -9 10 -20 10 -11 0 -20 5 -20 10 0 14 -28 12 -33
-2 -10 -29 -16 1 -6 35 5 20 8 84 6 142 -3 92 -1 105 13 105 10 0 27 9 40 20
13 11 35 23 49 26 14 3 42 9 61 14 19 5 60 12 90 15 30 3 80 10 110 16 30 5
84 14 120 19 36 5 97 16 135 25 39 8 96 17 127 21 32 3 60 9 63 14 11 18 -103
22 -201 6 -54 -9 -117 -19 -139 -21 -22 -3 -63 -10 -90 -15 -28 -6 -57 -11
-65 -11 -8 0 -22 -3 -30 -6 -8 -3 -37 -7 -65 -9 -27 -2 -71 -8 -97 -12 -43 -8
-125 -1 -168 15 -8 4 -19 7 -25 8 -5 0 -17 4 -25 8 -29 12 -225 60 -245 59
-11 -1 -22 2 -25 7 -3 4 -55 20 -117 35 l-112 28 -186 -22 c-102 -12 -189 -19
-193 -16 -3 4 -9 78 -12 166 -3 87 -7 161 -10 163 -16 16 -111 12 -415 -18z
m-62 -412 c-7 -2 -19 -2 -25 0 -7 3 -2 5 12 5 14 0 19 -2 13 -5z m1314 -195
c-2 -13 -4 -5 -4 17 -1 22 1 32 4 23 2 -10 2 -28 0 -40z m-54 -25 c-7 -2 -19
-2 -25 0 -7 3 -2 5 12 5 14 0 19 -2 13 -5z m-2086 -319 c-3 -3 -12 -4 -19 -1
-8 3 -5 6 6 6 11 1 17 -2 13 -5z m793 -478 c0 -13 -20 -26 -41 -26 -14 0 -11
28 4 33 23 10 37 7 37 -7z m-160 -40 c0 -8 -22 -18 -61 -25 -34 -7 -68 -15
-76 -18 -11 -4 -14 0 -11 13 5 30 148 59 148 30z m1177 -588 c-3 -8 -6 -5 -6
6 -1 11 2 17 5 13 3 -3 4 -12 1 -19z m-20 -535 c-3 -10 -5 -2 -5 17 0 19 2 27
5 18 2 -10 2 -26 0 -35z m300 -55 c-3 -8 -6 -5 -6 6 -1 11 2 17 5 13 3 -3 4
-12 1 -19z"/>
<path d="M2898 3003 c7 -3 16 -2 19 1 4 3 -2 6 -13 5 -11 0 -14 -3 -6 -6z"/>
<path d="M3542 1590 c0 -14 2 -19 5 -12 2 6 2 18 0 25 -3 6 -5 1 -5 -13z"/>
<path d="M2873 1340 c0 -25 2 -35 4 -22 2 12 2 32 0 45 -2 12 -4 2 -4 -23z"/>
<path d="M2900 1330 c0 -5 4 -10 10 -10 5 0 9 -27 9 -61 -1 -33 2 -63 5 -66 3
-4 6 28 6 70 0 62 -3 77 -15 77 -8 0 -15 -4 -15 -10z"/>
<path d="M3184 1299 c-3 -6 -1 -16 5 -22 8 -8 11 -5 11 11 0 24 -5 28 -16 11z"/>
<path d="M3221 1142 c-1 -13 -5 -21 -9 -18 -4 2 -6 -12 -3 -32 l5 -37 8 45 c4
25 6 50 4 55 -3 6 -5 0 -5 -13z"/>
</g>
</svg>
