<svg xmlns="http://www.w3.org/2000/svg" viewBox="0 0 500 500"><g id="freepik--background-complete--inject-3"><rect x="416.78" y="398.49" width="33.12" height="0.25" style="fill:#ebebeb"></rect><rect x="322.53" y="401.21" width="8.69" height="0.25" style="fill:#ebebeb"></rect><rect x="396.59" y="389.21" width="19.19" height="0.25" style="fill:#ebebeb"></rect><rect x="52.46" y="390.89" width="43.19" height="0.25" style="fill:#ebebeb"></rect><rect x="104.56" y="390.89" width="6.33" height="0.25" style="fill:#ebebeb"></rect><rect x="131.47" y="395.11" width="93.68" height="0.25" style="fill:#ebebeb"></rect><path d="M237,337.8H43.92a5.71,5.71,0,0,1-5.71-5.71V60.66A5.71,5.71,0,0,1,43.92,55H237a5.71,5.71,0,0,1,5.71,5.71V332.09A5.71,5.71,0,0,1,237,337.8ZM43.92,55.2a5.47,5.47,0,0,0-5.46,5.46V332.09a5.47,5.47,0,0,0,5.46,5.46H237a5.47,5.47,0,0,0,5.46-5.46V60.66A5.47,5.47,0,0,0,237,55.2Z" style="fill:#ebebeb"></path><path d="M453.31,337.8H260.21a5.72,5.72,0,0,1-5.71-5.71V60.66A5.72,5.72,0,0,1,260.21,55h193.1A5.71,5.71,0,0,1,459,60.66V332.09A5.71,5.71,0,0,1,453.31,337.8ZM260.21,55.2a5.47,5.47,0,0,0-5.46,5.46V332.09a5.47,5.47,0,0,0,5.46,5.46h193.1a5.47,5.47,0,0,0,5.46-5.46V60.66a5.47,5.47,0,0,0-5.46-5.46Z" style="fill:#ebebeb"></path><rect y="382.4" width="500" height="0.25" style="fill:#ebebeb"></rect><path d="M107.05,296c-3.29-4.06-9.67-6.78-16.66-8.08.55,2,.13,3.85-1,4.3s-3.09-.91-4-3.17a6.87,6.87,0,0,1-.44-1.86c-7-.57-14.1.24-18.81,2.5,0,0,4.61,4.16,9.83,15.08h.48c3.38,0,6.1,1.67,6.08,3.65,0,1.44-1.49,2.67-3.6,3.21.28.7.55,1.41.82,2.15,5,13.46,18.25,3.73,18.13-5.48C97.88,308.28,114.44,305.1,107.05,296Z" style="fill:#f0f0f0"></path><path d="M71.79,291.51l-.37-.14Z" style="fill:#e0e0e0"></path><path d="M118.49,337.9c-.29-.72-.73-1.79-1.35-3.13a91.15,91.15,0,0,0-18.79-26.59h0c-1.85-1.78-3.83-3.53-6-5.22-.12-1.67,0-6.13,4.12-8.69,0,0-4.55.68-5.2,7.85a72.6,72.6,0,0,0-19.5-10.61A76.29,76.29,0,0,1,95.61,307a9.74,9.74,0,0,0-8.35,5.9c.2-.28,3.69-5.05,9.53-4.77q.52.51,1,1.05a81.14,81.14,0,0,1,17,25.55c.54,1.27,1.06,2.59,1.55,3.93a1.13,1.13,0,0,0,2.19-.38A1.25,1.25,0,0,0,118.49,337.9Z" style="fill:#e0e0e0"></path><path d="M126.21,296.08c2.22-4.74,7.75-8.9,14.23-11.85-.05,2.07.79,3.77,2.05,3.92s2.78-1.63,3.08-4a7.12,7.12,0,0,0,0-1.91c6.71-2.26,13.75-3.17,18.86-2.11,0,0-3.47,5.14-5.91,17l-.47.11c-3.27.85-5.52,3.09-5,5,.36,1.4,2.09,2.24,4.27,2.26-.09.74-.19,1.5-.28,2.28-1.58,14.26-16.8,8-18.91-1C138.07,305.8,121.23,306.7,126.21,296.08Z" style="fill:#ebebeb"></path><path d="M159.36,283.25l.33-.23Z" style="fill:#f5f5f5"></path><path d="M140.71,302.93a77.13,77.13,0,0,1,18-19.2A72.09,72.09,0,0,0,143,298.24a12,12,0,0,0-2.27-4.09l-.06-.07a5.94,5.94,0,0,0-4.6-2.21,8.4,8.4,0,0,1,4.6,3.58.21.21,0,0,1,.06.1,10.9,10.9,0,0,1,1.43,3.76c-.49.64-1,1.27-1.43,1.91l-.06.08c-1.08,1.5-2.1,3-3,4.51q-1.81,2.9-3.28,5.76a.19.19,0,0,0-.05.1,91.19,91.19,0,0,0-8.24,23.1c-.45,2.11-.71,3.75-.85,4.75a1.12,1.12,0,0,0,1,1.26h.14a1.12,1.12,0,0,0,1.11-1c.19-1.71.42-3.38.7-5a80.81,80.81,0,0,1,6.15-20.25l.05-.12a78.88,78.88,0,0,1,4-7.68h0l.76-1.28a11.71,11.71,0,0,1,1.55-.34h.06a12.15,12.15,0,0,1,8.8,2.69,9.68,9.68,0,0,0-8.8-3.84h-.06a6.25,6.25,0,0,0-.67.11c.22-.35.45-.69.67-1A.33.33,0,0,0,140.71,302.93Z" style="fill:#f5f5f5"></path><path d="M130.94,294.66c-1.05-5.13-5.45-10.48-11.06-14.86-.43,2-1.65,3.47-2.91,3.33s-2.32-2.23-2-4.63a6.87,6.87,0,0,1,.48-1.85c-6-3.77-12.63-6.3-17.85-6.47,0,0,2.17,5.82,1.77,17.92.14.07.29.13.43.21,3,1.59,4.65,4.29,3.71,6-.68,1.28-2.55,1.68-4.68,1.19-.08.75-.16,1.51-.26,2.29-1.8,14.24,14.46,11.73,18.61,3.5C117.13,301.33,133.3,306.15,130.94,294.66Z" style="fill:#f5f5f5"></path><path d="M101.72,274.41l-.27-.29Z" style="fill:#e0e0e0"></path><path d="M114.7,294.06c.67-1.53,2.84-5.43,7.66-5.8,0,0-4.34-1.49-8.23,4.56a72.23,72.23,0,0,0-12.06-18,77.21,77.21,0,0,1,13.62,24.38,9.93,9.93,0,0,0-7-.37,9.77,9.77,0,0,0-3.13,1.74,13,13,0,0,1,3.31-1,10.76,10.76,0,0,1,7.35,1.2l.45,1.41a81.72,81.72,0,0,1,3.09,32.63c-.07.69-.15,1.38-.24,2.08a1.15,1.15,0,0,0,1,1.28h.14a1.11,1.11,0,0,0,1.11-1c.06-.58.13-1.36.18-2.35a90.7,90.7,0,0,0-4.35-33.32A77.5,77.5,0,0,0,114.7,294.06Z" style="fill:#e0e0e0"></path><path d="M136.87,337.9l0,.29h0l-.08,1.22h0l-1.6,24.37H106.93l0-.47-.33-5.09,0-.47-.4-6.07-.81-12.27h0l-.08-1.22h0l0-.29a3.24,3.24,0,0,1,.1-.89v0l0-.09c0-.11.07-.2.11-.31a1.82,1.82,0,0,1,.16-.31l0-.08a1,1,0,0,1,.12-.16,1.05,1.05,0,0,1,.07-.11l.16-.19a2.24,2.24,0,0,1,.36-.33l.16-.13a2.88,2.88,0,0,1,1.33-.48l.31,0h25.77l.3,0h.13a2.88,2.88,0,0,1,1.72.92,1.46,1.46,0,0,1,.16.19.41.41,0,0,1,.07.11,1,1,0,0,1,.12.16l0,.08.15.31c0,.11.08.2.11.31l0,.09v0A2.9,2.9,0,0,1,136.87,337.9Z" style="fill:#f5f5f5"></path><path d="M136.77,337a2.92,2.92,0,0,0-2.83-2.21H108.17a2.94,2.94,0,0,0-2.84,2.21l-.08,1.22.08,1.22a2.94,2.94,0,0,0,2.84,2.21h25.77a2.92,2.92,0,0,0,2.83-2.21l.08-1.22Z" style="fill:#ebebeb"></path><rect x="139.27" y="96.7" width="86.38" height="7.31" style="fill:#fafafa"></rect><rect x="143.27" y="350.27" width="86.38" height="7.31" style="fill:#fafafa"></rect><path d="M136.42,104V278.55a47.93,47.93,0,0,1,5.6-3.18l1.23-.58V275c0,.15,0,.31,0,.46s0,.29,0,.43a.22.22,0,0,0,0,.08c0,.14,0,.28.07.41s.06.28.1.42V104Zm-.06-14.45V363.8H230V89.56Zm86.5,7.14v260H143.49V96.7ZM136.42,104V278.55a47.93,47.93,0,0,1,5.6-3.18l1.23-.58V275c0,.15,0,.31,0,.46s0,.29,0,.43a.22.22,0,0,0,0,.08c0,.14,0,.28.07.41s.06.28.1.42V104Z" style="fill:#ebebeb"></path><rect x="53.61" y="96.7" width="86.38" height="7.31" style="fill:#fafafa"></rect><rect x="50.61" y="350.27" width="86.38" height="7.31" style="fill:#fafafa"></rect><path d="M49.92,89.56V363.8h93.64V89.56Zm8.45,268.06v-260l78-1h.06v260h-.06l-30.18.37h-.85l-43.67.53Z" style="fill:#e0e0e0;stroke:#ebebeb;stroke-miterlimit:10"></path><rect x="292.89" y="170.87" width="29.19" height="31.07" style="fill:#e6e6e6"></rect><rect x="285.42" y="170.87" width="7.48" height="31.07" style="fill:#f5f5f5"></rect><rect x="307.81" y="166.07" width="21.93" height="35.86" style="fill:#e6e6e6"></rect><rect x="301.48" y="166.07" width="6.34" height="35.86" style="fill:#f5f5f5"></rect><rect x="314.27" y="170.87" width="18.49" height="31.07" style="fill:#ebebeb"></rect><rect x="310.05" y="170.87" width="4.22" height="31.07" style="fill:#f5f5f5"></rect><rect x="329.4" y="176.12" width="24.25" height="25.81" style="fill:#e6e6e6"></rect><rect x="323.19" y="176.12" width="6.21" height="25.81" style="fill:#f5f5f5"></rect><rect x="341.79" y="172.14" width="18.22" height="29.8" style="fill:#e6e6e6"></rect><rect x="336.53" y="172.14" width="5.27" height="29.8" style="fill:#f5f5f5"></rect><rect x="347.16" y="176.12" width="17.69" height="25.81" style="fill:#e6e6e6"></rect><rect x="343.65" y="176.12" width="3.51" height="25.81" style="fill:#f0f0f0"></rect><rect x="267.69" y="201.92" width="166.24" height="7.86" style="fill:#f5f5f5"></rect><polygon points="430.45 209.97 421.26 209.97 427.96 220.09 430.45 220.09 430.45 209.97" style="fill:#e6e6e6"></polygon><polygon points="285.03 209.97 275.83 209.97 282.53 220.09 285.03 220.09 285.03 209.97" style="fill:#e6e6e6"></polygon><path d="M400.51,189.54l-3,2.66,1.91,3.3,3.81-1.29a11.89,11.89,0,0,0,6,3.45l.79,4h3.81l.79-4a11.93,11.93,0,0,0,6-3.45l3.81,1.29,1.9-3.3-3-2.66a11.89,11.89,0,0,0,0-6.89l3-2.66-1.9-3.3-3.81,1.3a11.86,11.86,0,0,0-6-3.45l-.79-3.95H410l-.79,3.95a11.82,11.82,0,0,0-6,3.45l-3.81-1.3-1.91,3.3,3,2.66a11.89,11.89,0,0,0,0,6.89Zm5.18-3.21a6.17,6.17,0,1,1,6.17,6.17A6.17,6.17,0,0,1,405.69,186.33Z" style="fill:#f0f0f0"></path><path d="M378.51,190.2l-2.61.45-.06,2.51,2.58.59a7.87,7.87,0,0,0,2.17,4l-.92,2.48,2.14,1.31,1.8-1.94a7.81,7.81,0,0,0,4.54.11l1.7,2,2.2-1.2-.78-2.53a8.14,8.14,0,0,0,1.47-1.76,7.94,7.94,0,0,0,.9-2.11l2.61-.45.06-2.51-2.58-.59a7.87,7.87,0,0,0-2.17-4l.91-2.48-2.13-1.31-1.81,1.94a7.78,7.78,0,0,0-4.53-.11l-1.7-2-2.2,1.2.78,2.53a7.86,7.86,0,0,0-2.37,3.87Zm4,0a4.06,4.06,0,1,1,1.34,5.59A4.06,4.06,0,0,1,382.53,190.18Z" style="fill:#f0f0f0"></path><rect x="390.74" y="201.92" width="43.19" height="8.05" style="fill:#e0e0e0"></rect><rect x="270.82" y="299.15" width="182.7" height="82.01" rx="19.67" style="fill:#e0e0e0"></rect><rect x="261.19" y="299.76" width="182.7" height="82.01" rx="19.67" style="fill:#f5f5f5"></rect><path d="M284.38,307.49h137.4a13.74,13.74,0,0,1,13.74,13.74v16.86a0,0,0,0,1,0,0H270.64a0,0,0,0,1,0,0V321.23A13.74,13.74,0,0,1,284.38,307.49Z" style="fill:#e0e0e0"></path><path d="M270.64,342.22H435.51a0,0,0,0,1,0,0v16.86a13.74,13.74,0,0,1-13.74,13.74H284.38a13.74,13.74,0,0,1-13.74-13.74V342.22A0,0,0,0,1,270.64,342.22Z" style="fill:#e0e0e0"></path><rect x="368.36" y="313.41" width="23.37" height="24.87" style="fill:#e6e6e6"></rect><rect x="362.37" y="313.41" width="5.99" height="24.87" style="fill:#f5f5f5"></rect><rect x="380.3" y="309.58" width="17.55" height="28.71" style="fill:#e6e6e6"></rect><rect x="375.23" y="309.58" width="5.07" height="28.71" style="fill:#f5f5f5"></rect><rect x="385.47" y="313.41" width="14.8" height="24.87" style="fill:#ebebeb"></rect><rect x="382.09" y="313.41" width="3.38" height="24.87" style="fill:#f5f5f5"></rect><rect x="397.58" y="317.62" width="19.41" height="20.67" style="fill:#e6e6e6"></rect><rect x="392.61" y="317.62" width="4.97" height="20.67" style="fill:#f5f5f5"></rect><rect x="407.5" y="314.43" width="14.58" height="23.85" style="fill:#e6e6e6"></rect><rect x="403.29" y="314.43" width="4.22" height="23.85" style="fill:#f5f5f5"></rect><rect x="411.8" y="317.62" width="14.17" height="20.67" style="fill:#e6e6e6"></rect><rect x="408.99" y="317.62" width="2.81" height="20.67" style="fill:#f0f0f0"></rect><rect x="295.64" y="347" width="23.37" height="24.87" style="fill:#e6e6e6"></rect><rect x="289.65" y="347" width="5.99" height="24.87" style="fill:#f5f5f5"></rect><rect x="307.58" y="343.17" width="17.55" height="28.71" style="fill:#e6e6e6"></rect><rect x="302.51" y="343.17" width="5.07" height="28.71" style="fill:#f5f5f5"></rect><rect x="375.36" y="347" width="23.37" height="24.87" style="fill:#e6e6e6"></rect><rect x="369.37" y="347" width="5.99" height="24.87" style="fill:#f5f5f5"></rect><rect x="387.3" y="343.17" width="17.55" height="28.71" style="fill:#e6e6e6"></rect><rect x="382.23" y="343.17" width="5.07" height="28.71" style="fill:#f5f5f5"></rect><rect x="312.75" y="347" width="14.8" height="24.87" style="fill:#ebebeb"></rect><rect x="309.37" y="347" width="3.38" height="24.87" style="fill:#f5f5f5"></rect><rect x="324.87" y="351.21" width="19.41" height="20.67" style="fill:#e6e6e6"></rect><rect x="319.9" y="351.21" width="4.97" height="20.67" style="fill:#f5f5f5"></rect><rect x="334.78" y="348.03" width="14.58" height="23.85" style="fill:#e6e6e6"></rect><rect x="330.58" y="348.03" width="4.22" height="23.85" style="fill:#f5f5f5"></rect><rect x="339.08" y="351.21" width="14.17" height="20.67" style="fill:#e6e6e6"></rect><rect x="336.27" y="351.21" width="2.81" height="20.67" style="fill:#f0f0f0"></rect><path d="M318.82,314.17a2.51,2.51,0,0,0-2.67-1.33,2.65,2.65,0,0,0-2,2.3,2.23,2.23,0,0,0-2.53-.06,2.51,2.51,0,0,0-1,2.45,1.86,1.86,0,0,0-2.71.55,2.08,2.08,0,0,0,.83,2.77,1.34,1.34,0,0,0,.06,2.67,1.46,1.46,0,0,0-1.33,1.27,1.52,1.52,0,0,0,1,1.58,1.21,1.21,0,0,0-.29,1.88,1.09,1.09,0,0,0,1.72-.55.36.36,0,0,0,.57.09.4.4,0,0,0-.11-.6.67.67,0,0,0,1.15-.29,1.64,1.64,0,0,0,2.22,1.76,1,1,0,0,0,.66,1.35,2.3,2.3,0,0,0,1.62-.31,3.54,3.54,0,0,1,1.58-.53,4.79,4.79,0,0,1,1.41.39,4.25,4.25,0,0,0,4.31-1.14,1.83,1.83,0,0,0,3.07-.47,1.39,1.39,0,0,0,1.21,1.1,1.36,1.36,0,0,0,1.31-.95c0,.27,0,.53,0,.79a13.38,13.38,0,0,1,3.26-3.63,1.73,1.73,0,0,0-1.19-1.84,3.23,3.23,0,0,0,.07-6.13,1.53,1.53,0,0,0-1.47.2.93.93,0,0,0,0,1.4,3,3,0,0,0-1.27-3.34,2.63,2.63,0,0,0-3.33.72,1.68,1.68,0,0,0,0-1.85,1.47,1.47,0,0,0-1.66-.56,1.67,1.67,0,0,0-1.81-1.36,1.73,1.73,0,0,0-1.35,1.85.85.85,0,0,0-1.53-.29C318.23,313.94,318.82,314.17,318.82,314.17Z" style="fill:#ebebeb"></path><path d="M319.12,322.15a1.53,1.53,0,0,0-1.15-.27,1.05,1.05,0,0,0-.83.78.82.82,0,0,0,.55.94c.48.11,1-.28,1.44-.21a3.65,3.65,0,0,1,.5.15,2.45,2.45,0,0,0,2-.7,2.27,2.27,0,0,0,.55-.52.72.72,0,0,0,.06-.72.93.93,0,0,0-.95-.31,3.73,3.73,0,0,0-1.94.81l.05-.34Z" style="fill:#fafafa"></path><path d="M329.25,321.55a2.1,2.1,0,0,0-.61-.32.63.63,0,0,0-.63.18.64.64,0,0,0,.17.84,1.85,1.85,0,0,0,.89.3c.32.05.73.06.89-.22a.58.58,0,0,0-.15-.65,1.85,1.85,0,0,0-.63-.31Z" style="fill:#fafafa"></path><path d="M313.24,316.28a2.24,2.24,0,0,0-1.29,1.55.53.53,0,0,0,.14.58.58.58,0,0,0,.43,0l1.86-.44a2.6,2.6,0,0,0-.84.44.9.9,0,0,0-.31.85.86.86,0,0,0,.86.58,1.86,1.86,0,0,0,1-.41,1.28,1.28,0,0,0,.64-.95c0-.4-.49-.76-.8-.51a6.54,6.54,0,0,0,2-.91,1.76,1.76,0,0,0,.58-.54.75.75,0,0,0,.06-.75c-.63-1.15-1.44.54-1.83.69C315,316.75,314.18,315.89,313.24,316.28Z" style="fill:#fafafa"></path><path d="M310.36,321.2a.6.6,0,0,0,.16.64.39.39,0,0,0,.59-.12,2.1,2.1,0,0,0-1.11.63c-.26.35-.2,1,.22,1.09a1,1,0,0,0,.77-.17A14.33,14.33,0,0,0,312.9,322c-.18.42.26.9.72.94a2.22,2.22,0,0,0,1.29-.45c.49-.29,1-.74.92-1.29a1,1,0,0,0-1.21-.56,2.79,2.79,0,0,0-1.16.89c.26-.38-.11-.94-.56-1a1.37,1.37,0,0,0-1.16.53c.51-.28.63-1-.06-1.1C311.23,319.91,310.47,320.83,310.36,321.2Z" style="fill:#fafafa"></path><path d="M324.51,319.55a.77.77,0,0,0-1,.51.78.78,0,0,0,.61.92,1.22,1.22,0,0,0-.79.41.62.62,0,0,0-.16.46.56.56,0,0,0,.55.43,1.71,1.71,0,0,0,.72-.21,1.47,1.47,0,0,0-.71.21.46.46,0,0,0-.1.65.59.59,0,0,0,.59.07,3.07,3.07,0,0,0,1.22-.68,1.16,1.16,0,0,0,1,.42.7.7,0,0,0,.58-.83.74.74,0,0,0-.63-.45,1.88,1.88,0,0,0-.81.12,1.53,1.53,0,0,0,.65-.71c.1-.31-.11-.73-.44-.71s-.55.53-.84.71C324.63,320.54,325.3,319.84,324.51,319.55Z" style="fill:#fafafa"></path><path d="M317.9,318a1.5,1.5,0,0,0-.53,1.34,1.54,1.54,0,0,0,.8,1.37,1.26,1.26,0,0,0,1.63-1,1.79,1.79,0,0,0-1-1.79A1,1,0,0,0,317.9,318Z" style="fill:#fafafa"></path><path d="M322.59,317.42l.17.15a.84.84,0,1,0-1.23,1.13.88.88,0,0,0,1.23-.09,1.24,1.24,0,0,0,1.46-.27A1,1,0,0,0,324,317a.77.77,0,0,0-1.12.66l-.2-.22Z" style="fill:#fafafa"></path><path d="M327.75,318.25a2.68,2.68,0,0,0-.79,1.13.91.91,0,0,0,.53,1.13c.44.12.87-.25,1.12-.64a1.37,1.37,0,0,0,.28-1.17c-.13-.4-.7-.63-1-.33Z" style="fill:#fafafa"></path><path d="M320.31,315.54a.77.77,0,0,0-1.06-.29.91.91,0,0,0-.32,1.09,1.14,1.14,0,0,0,.95.69c.51.06,1.11-.35,1-.85a1.1,1.1,0,0,0,1,.37,2.64,2.64,0,0,0,1-.38c.43-.25.88-.63.84-1.12a.87.87,0,0,0-.81-.72,1.45,1.45,0,0,0-1.07.4c-.23.2-.43.44-.68.62a.87.87,0,0,1-.87.12Z" style="fill:#fafafa"></path><polygon points="326.67 338.28 313.86 338.28 312.61 325.38 327.92 325.38 326.67 338.28" style="fill:#f0f0f0"></polygon><polygon points="328.91 326.04 311.49 326.04 311.18 324.32 329.23 324.32 328.91 326.04" style="fill:#fafafa"></polygon><polygon points="429.53 298.84 414.83 298.84 419.44 284 420.11 281.83 423.44 281.83 429.53 298.84" style="fill:#e0e0e0"></polygon><polygon points="420.11 281.83 419.44 284 414.83 298.84 401.24 298.64 396.87 284 396.2 281.83 420.11 281.83" style="fill:#e0e0e0"></polygon><polygon points="420.11 281.83 419.44 284 414.83 298.84 386.92 298.43 392.87 281.83 420.11 281.83" style="fill:#fafafa"></polygon><polygon points="420.11 281.83 419.44 284 392.1 284 392.87 281.83 420.11 281.83" style="fill:#ebebeb"></polygon><path d="M396.3,291.05h-6.13l2.14-6,5.86.07Zm-5.42-.5h5.05l1.56-5-4.83-.05Z" style="fill:#ebebeb"></path><path d="M403.15,291.05H397l2.13-6,5.87.07Zm-5.42-.5h5.06l1.56-5-4.83-.05Z" style="fill:#ebebeb"></path><path d="M410,291.05h-6.13l2.14-6,5.86.07Zm-5.42-.5h5.05l1.56-5-4.83-.05Z" style="fill:#ebebeb"></path><path d="M416.87,291.05h-6.13l2.14-6,5.86.07Zm-5.42-.5h5.05l1.56-5-4.83-.05Z" style="fill:#ebebeb"></path><path d="M394.16,297.46H388l2.14-6,5.86.07Zm-5.42-.5h5.05l1.56-5-4.83-.06Z" style="fill:#ebebeb"></path><path d="M401,297.46h-6.13l2.14-6,5.86.07Zm-5.43-.5h5.06l1.56-5-4.83-.06Z" style="fill:#ebebeb"></path><path d="M407.87,297.46h-6.13l2.14-6,5.86.07Zm-5.42-.5h5.06l1.55-5-4.83-.06Z" style="fill:#ebebeb"></path><path d="M414.73,297.46H408.6l2.14-6,5.86.07Zm-5.42-.5h5.05l1.56-5-4.83-.06Z" style="fill:#ebebeb"></path><path d="M359.94,299.15H342.79v-9.84a8.57,8.57,0,0,1,8.57-8.57h0a8.58,8.58,0,0,1,8.58,8.57Z" style="fill:#f0f0f0"></path><circle cx="351.26" cy="289.77" r="7.23" style="fill:#fff"></circle><path d="M357,289.77a5.8,5.8,0,1,1-5.8-5.81A5.8,5.8,0,0,1,357,289.77Z" style="fill:#ebebeb"></path><path d="M351.84,289.9a.63.63,0,1,1-.63-.63A.63.63,0,0,1,351.84,289.9Z" style="fill:#fafafa"></path><polygon points="351.14 290.13 348.49 287.63 348.75 287.36 351.15 289.62 355.46 285.81 355.71 286.09 351.14 290.13" style="fill:#fafafa"></polygon></g><g id="freepik--Shadow--inject-3"><ellipse id="freepik--path--inject-3" cx="245.18" cy="412.39" rx="193.89" ry="11.32" style="fill:#f5f5f5"></ellipse></g><g id="freepik--Character--inject-3"><polygon points="296.54 395.93 295.04 411.27 286.67 410.48 287.33 393.75 296.54 395.93" style="fill:#dd8c6a"></polygon><path d="M282.72,410.67a3.62,3.62,0,0,1-2.46-.81.76.76,0,0,1,.08-.87,1,1,0,0,1,.66-.43c1.44-.3,4.29,1.58,4.42,1.67a.19.19,0,0,1,.08.21.23.23,0,0,1-.17.16A15.18,15.18,0,0,1,282.72,410.67Zm-1.25-1.74a1.2,1.2,0,0,0-.38,0,.6.6,0,0,0-.42.25c-.16.24-.12.37-.06.44.35.58,2.49.73,4.08.63A9.55,9.55,0,0,0,281.47,408.93Z" style="fill:#407BFF"></path><path d="M285.3,410.59a.14.14,0,0,1-.09,0c-1-.52-2.9-2.49-2.66-3.43,0-.23.23-.5.78-.52a1.53,1.53,0,0,1,1.1.42c1,1,1.1,3.26,1.11,3.37a.19.19,0,0,1-.1.17A.17.17,0,0,1,285.3,410.59ZM283.44,407h-.11c-.37,0-.4.15-.42.2-.09.57,1.16,2.09,2.17,2.78a4.7,4.7,0,0,0-1-2.67,1.06,1.06,0,0,0-.68-.3Z" style="fill:#407BFF"></path><path d="M286.27,409.46l9.26.6a.74.74,0,0,1,.69.63l1.19,7.64a1.26,1.26,0,0,1-1.29,1.44c-3.33-.27-6.29-.65-10.44-.91-4.91-.31-3.7.36-9.47.07-3.48-.18-3.86-4.17-2.38-4.27,6.8-.41,7.63-2.41,10.39-4.65A3,3,0,0,1,286.27,409.46Z" style="fill:#263238"></path><polygon points="286.96 403.03 293.21 402.73 295.77 403.77 293.62 406.89 286.81 406.59 286.96 403.03" style="opacity:0.2"></polygon><path d="M316.08,241.35l-14,89.71-4.17,75.23-12.57-1.43s-2.55-37.6-.81-77.1c1.57-35.68,7.41-73,8.19-84.86l4.57-8.26,9.25,1.06Z" style="fill:#407BFF"></path><path d="M370.8,398.55l-6.37,3.34s-1.48-2.55-3.86-6.68l-1.72-3,7.61-3.41.1-.05c.07.17.15.34.22.5.39.9.75,1.74,1.1,2.53C369.69,396,370.8,398.55,370.8,398.55Z" style="fill:#dd8c6a"></path><path d="M359.84,401.7a3.59,3.59,0,0,1-2.55.46.75.75,0,0,1-.35-.8,1,1,0,0,1,.38-.69c1.12-1,4.53-.66,4.68-.65a.2.2,0,0,1,.18.15.21.21,0,0,1-.08.22A14.93,14.93,0,0,1,359.84,401.7Zm-1.93-.93a1.38,1.38,0,0,0-.33.2.58.58,0,0,0-.24.43c0,.29.07.37.15.41.59.34,2.55-.55,3.91-1.39A9.14,9.14,0,0,0,357.91,400.77Z" style="fill:#407BFF"></path><path d="M362.07,400.4a.11.11,0,0,1-.08,0c-1.11,0-3.74-.8-4-1.75-.08-.22,0-.54.44-.83a1.48,1.48,0,0,1,1.16-.16c1.36.36,2.53,2.35,2.59,2.44a.18.18,0,0,1,0,.2A.19.19,0,0,1,362.07,400.4Zm-3.34-2.26-.11,0c-.31.18-.27.32-.26.38.19.54,2,1.29,3.24,1.41a4.77,4.77,0,0,0-2.13-1.89,1.05,1.05,0,0,0-.74.06Z" style="fill:#407BFF"></path><path d="M362.93,398.79l6.68-3.17a.76.76,0,0,1,.91.22l4.7,6.16a1.25,1.25,0,0,1-.22,1.75l-.23.14c-3.06,1.35-4.08,1.7-7.87,3.46-4.46,2.07-3.08,2.08-8.3,4.58-3.15,1.51-5.39-1.82-4.13-2.62C360.25,405.69,362.26,399.07,362.93,398.79Z" style="fill:#263238"></path><path d="M367.88,391.8l-7.31,3.41-1.72-3,7.61-3.41.32.45C367.17,390.17,367.53,391,367.88,391.8Z" style="opacity:0.2"></path><path d="M302.9,258.58s12,57.34,19.62,75.25c6.73,15.9,36.33,60.55,36.33,60.55l9.06-4.63s-10.4-28.59-20.3-46.92c-3.45-6.4-7-11.3-8.58-14.75-2-4.56-2.69-72.31-14.13-79.69Z" style="fill:#407BFF"></path><path d="M309,286l-4,25.71c-1.48-18.36,0-40.32,0-40.32Z" style="opacity:0.2"></path><path d="M290.8,246.38a53.23,53.23,0,0,0,.17-9.66c-2.9-30.62-2.51-49.57-2.3-55a2.37,2.37,0,0,1,1.57-2.14c21.12-7.44,39.65-4.2,44.46-1.56,6.42,3.53,3.92,7.4,3.85,8.5-.51,9.09-6.65,43.08-6.61,57.82,0,2.16.3,7.37.47,10.24a2.37,2.37,0,0,1-1.86,2.46c-4.75,1-16.66,3.14-20.53-.91a2.32,2.32,0,0,0-3.23-.08c-1.43,1.3-3.83,2.52-7.76,2.43-3.72-.08-6.19-.28-7.76-.47a2.37,2.37,0,0,1-2-2.84C289.81,252.54,290.64,248.3,290.8,246.38Z" style="fill:#263238"></path><path d="M316.89,160.66c-.75,4.75-1.43,11.72,2,14.76,0,0,0,4.83-13.21,10.52-5.07-6.75-1.55-10-1.55-10,5.25-1.45,5-3.59,4-7.24Z" style="fill:#ff8b7b"></path><path d="M313.33,163.9l-5.17,4.8a14.39,14.39,0,0,1,.55,2.59c2-.36,5.13-2.19,5.49-4.4A6.44,6.44,0,0,0,313.33,163.9Z" style="opacity:0.2;isolation:isolate"></path><path d="M322.79,152.32c-1.85,7.84-2.47,11.18-7.17,14.54-7.06,5.08-16.28,1.08-16.81-7.14-.46-7.4,2.66-19,10.95-20.76a11,11,0,0,1,13,13.36Z" style="fill:#ff8b7b"></path><path d="M309.24,151.46c-.11.64-.55,1.11-1,1s-.68-.66-.57-1.3.55-1.11,1-1S309.31,150.84,309.24,151.46Z" style="fill:#263238"></path><path d="M302,150.28c-.12.66-.55,1.11-1,1s-.68-.66-.57-1.3.55-1.11,1-1S302.13,149.64,302,150.28Z" style="fill:#263238"></path><path d="M304.59,152.53a17.4,17.4,0,0,1-3,3.71,2.85,2.85,0,0,0,2.23.83Z" style="fill:#f84a35"></path><path d="M306.87,160.19a5.12,5.12,0,0,1-1-.09.2.2,0,0,1-.17-.21h0a.2.2,0,0,1,.23-.15,5.18,5.18,0,0,0,4.5-1.28.19.19,0,0,1,.28.26A5.31,5.31,0,0,1,306.87,160.19Z" style="fill:#263238"></path><path d="M312.64,150.44a.37.37,0,0,1-.4-.2,4.54,4.54,0,0,0-3.06-2,.39.39,0,0,1-.33-.44.38.38,0,0,1,.43-.32h0a5.25,5.25,0,0,1,3.64,2.38.38.38,0,0,1-.17.51h0A.27.27,0,0,1,312.64,150.44Z" style="fill:#263238"></path><path d="M300.73,147.8a.41.41,0,0,1-.38-.11.39.39,0,0,1,0-.55,3.78,3.78,0,0,1,3.38-1,.37.37,0,0,1,.29.43v0a.37.37,0,0,1-.46.28h0a3,3,0,0,0-2.64.87A.42.42,0,0,1,300.73,147.8Z" style="fill:#263238"></path><path d="M303.78,173.15v3.08s1,3.05,9.28,2.89,9-3.85,9-3.85V173a2.54,2.54,0,0,0-3.05-2.49,40.07,40.07,0,0,1-12.4.08A2.53,2.53,0,0,0,303.78,173.15Z" style="fill:#407BFF"></path><path d="M321.41,174.92l-1.4-.21L312.29,179l-2.4.12-4.66-3.87-1.53.39h0a27.21,27.21,0,0,0-.66,13.76l2.75,13.08,2.88,14.31h.06l.57-1.33,2.11-5,2.91-5.67L319.58,191l1.47-5.69a23.76,23.76,0,0,0,.36-10.41Z" style="fill:#407BFF"></path><path d="M313.06,179.12c-8.32.16-9.28-2.89-9.28-2.89v-.73s-2.45,4.75,4.78,5.51,12-2.71,13-4.78h0C320.77,177.32,318.64,179,313.06,179.12Z" style="opacity:0.1"></path><path d="M322.79,152.33c-1.51,6.43-2.2,9.83-5,12.71.19-1.74.22-16.42,0-19.33a46.15,46.15,0,0,0-10.55-1.93c-.73-.81-1.45-1.63-2.17-2.45a10.18,10.18,0,0,1,4.64-2.37,11,11,0,0,1,13,13.37Z" style="fill:#263238;isolation:isolate"></path><path d="M322.79,152.33c-1.51,6.43-2.2,9.83-5,12.71.19-1.74.22-16.42,0-19.33a46.15,46.15,0,0,0-10.55-1.93c-.73-.81-1.45-1.63-2.17-2.45a10.18,10.18,0,0,1,4.64-2.37,11,11,0,0,1,13,13.37Z" style="fill:#fff;opacity:0.6000000000000001;isolation:isolate"></path><path d="M322.53,158a5.45,5.45,0,0,1-3.23,2.57c-1.84.5-2.75-1.14-2.24-2.88.48-1.55,2-3.69,3.83-3.46a2.43,2.43,0,0,1,1.64,3.77Z" style="fill:#ff8b7b"></path><path d="M319,152.43l-5.33-.85c-.46-1.36-2.39-1.67-3.2-1.8s-2.89-.45-3.7.86l-1.86-.29c-.36-1.5-2.4-1.83-3.24-2-1-.16-3.64-.58-4,1.69a3.7,3.7,0,0,0,7.27,1.15,2.16,2.16,0,0,0,0-.35l1.59.25a3,3,0,0,0-.08.35,3.7,3.7,0,0,0,7.26,1.16,2.4,2.4,0,0,0,0-.53l5.17.82a3.11,3.11,0,0,1,1.82,1l.38-.34A3.61,3.61,0,0,0,319,152.43Zm-18.13,1a3,3,0,0,1-2.7-3.26c.2-1.24,1.22-1.62,3.42-1.27s3,1,2.85,2.27A3,3,0,0,1,300.82,153.41Zm8.8,1.4a3,3,0,0,1-2.7-3.26c.2-1.24,1.22-1.62,3.42-1.27s3.05,1,2.85,2.27A3,3,0,0,1,309.62,154.81Z" style="fill:#263238"></path><path d="M246.09,197.63a8,8,0,0,0-7.51-2.29s-3.38-3.14-5.94-2.33-1.77,7.22-1.77,7.22,4.63,4.44,9.4,2.61l6-1.07Z" style="fill:#dd8c6a"></path><path d="M249.61,197.74l-3.34-1.81a12.21,12.21,0,0,0-2.65,8.56l4.4,0Z" style="fill:#407BFF"></path><path d="M249.12,197.2a66.58,66.58,0,0,0,24.45,1.37,61.17,61.17,0,0,1,16.68-19.13l3.17,11.33s-8.87,14.45-16.15,17.83c-5.77,2.68-23.19-1.8-30.19-3.78A17.72,17.72,0,0,1,249.12,197.2Z" style="fill:#263238"></path><path d="M293.27,216.78a8,8,0,0,0-7.75,1.29s-4.42-1.33-6.36.54,1.62,7.26,1.62,7.26,6.12,1.92,9.58-1.83l4.87-3.6Z" style="fill:#dd8c6a"></path><path d="M296.47,215.32l-3.8-.13A12.23,12.23,0,0,0,294.1,224l3.95-1.93Z" style="fill:#407BFF"></path><path d="M295.8,215.06a66.57,66.57,0,0,0,22.51-9.62c.5-8.76,5.34-18.22,9.14-24.41a6.24,6.24,0,0,1,9.94-.9h0a6.23,6.23,0,0,1,1.16,6.43c-2.68,6.84-8.67,21.5-12.48,26.23-4,5-21.58,8.67-28.72,10A17.34,17.34,0,0,1,295.8,215.06Z" style="fill:#263238"></path></g><g id="freepik--rectangular-prism--inject-3"><line x1="143.46" y1="209.65" x2="145.54" y2="210.89" style="fill:none;stroke:#407BFF;stroke-miterlimit:10"></line><line x1="136.47" y1="205.5" x2="140.42" y2="207.85" style="fill:none;stroke:#407BFF;stroke-miterlimit:10"></line><line x1="102.77" y1="185.48" x2="133.08" y2="203.49" style="fill:none;stroke:#407BFF;stroke-miterlimit:10"></line><line x1="137.45" y1="212.43" x2="149.18" y2="219.4" style="fill:none;stroke:#407BFF;stroke-miterlimit:10"></line><line x1="106.4" y1="193.98" x2="134.46" y2="210.65" style="fill:none;stroke:#407BFF;stroke-miterlimit:10"></line><line x1="90.71" y1="85.92" x2="121.97" y2="66.64" style="fill:none;stroke:#407BFF;stroke-miterlimit:10"></line><line x1="124.3" y1="70.62" x2="131.77" y2="66.02" style="fill:none;stroke:#407BFF;stroke-miterlimit:10"></line><line x1="89.42" y1="92.13" x2="119.41" y2="73.64" style="fill:none;stroke:#407BFF;stroke-miterlimit:10"></line><line x1="223.11" y1="89.97" x2="231.28" y2="94.76" style="fill:none;stroke:#407BFF;stroke-miterlimit:10"></line><line x1="188.36" y1="69.6" x2="218.71" y2="87.39" style="fill:none;stroke:#407BFF;stroke-miterlimit:10"></line><line x1="201.46" y1="82.01" x2="235.96" y2="102.24" style="fill:none;stroke:#407BFF;stroke-miterlimit:10"></line><line x1="193.04" y1="77.08" x2="196.99" y2="79.39" style="fill:none;stroke:#407BFF;stroke-miterlimit:10"></line><line x1="207.83" y1="210.27" x2="220.7" y2="203.04" style="fill:none;stroke:#407BFF;stroke-miterlimit:10"></line><line x1="214.07" y1="211.45" x2="229.52" y2="202.77" style="fill:none;stroke:#407BFF;stroke-miterlimit:10"></line><polygon points="239.25 183.48 189.16 212.44 101.27 161.97 151.78 132.84 239.25 183.48" style="fill:#407BFF"></polygon><g style="opacity:0.30000000000000004"><polygon points="239.25 183.48 189.16 212.44 101.27 161.97 151.78 132.84 239.25 183.48"></polygon></g><polygon points="151.69 76.18 151.73 132.67 101.64 161.66 101.22 105.43 151.69 76.18" style="fill:#407BFF"></polygon><polygon points="151.69 76.18 151.73 132.67 101.64 161.66 101.22 105.43 151.69 76.18" style="opacity:0.2"></polygon><polygon points="252.09 176.47 252.09 120.04 164.58 69.51 164.62 125.86 252.09 176.47" style="fill:#407BFF"></polygon><polygon points="228.57 120.27 178.48 149.23 90.59 98.76 141.1 69.63 228.57 120.27" style="fill:#407BFF"></polygon><g style="opacity:0.5"><polygon points="228.57 120.27 178.48 149.23 90.59 98.76 141.1 69.63 228.57 120.27" style="fill:#fff"></polygon></g><polygon points="239.95 126.98 239.99 183.47 189.91 212.46 189.49 156.23 239.95 126.98" style="fill:#407BFF"></polygon><polygon points="239.95 126.98 239.99 183.47 189.91 212.46 189.49 156.23 239.95 126.98" style="fill:#fff;opacity:0.2"></polygon><polygon points="178.23 219.6 178.23 163.17 90.71 112.64 90.76 168.99 178.23 219.6" style="fill:#407BFF"></polygon><g style="opacity:0.30000000000000004"><polygon points="178.23 219.6 178.23 163.17 90.71 112.64 90.76 168.99 178.23 219.6" style="fill:#fff"></polygon></g></g></svg>