<svg width="125" height="111" viewBox="0 0 125 111" fill="none" xmlns="http://www.w3.org/2000/svg">
<path d="M70.7503 65.0157H26.1162V92.2198H70.7503V65.0157Z" fill="#FAFAFA"/>
<path d="M59.9749 84.6849C56.8799 83.5292 53.3198 86.725 50.2861 85.4219C48.5205 84.6634 47.72 82.6971 46.8549 81.0023C45.9897 79.3075 44.4995 77.5198 42.5837 77.7166C40.6513 77.915 39.089 80.1182 37.2224 79.5872C36.046 79.2525 35.4587 77.9677 35.1636 76.7973C34.8686 75.6269 34.6643 74.3334 33.7673 73.5126C32.8702 72.6918 31.0013 72.9115 30.8604 74.1092V88.531H65.7648C65.7648 88.531 61.0458 85.0849 59.9749 84.6849Z" fill="#EBEBEB"/>
<path d="M66.6972 88.5312C66.6972 88.5622 58.2368 88.5874 47.803 88.5874C37.3654 88.5874 28.907 88.5622 28.907 88.5312C28.907 88.5002 37.3654 88.475 47.803 88.475C58.2371 88.475 66.6972 88.5002 66.6972 88.5312Z" fill="#E0E0E0"/>
<path d="M66.6972 82.2319C66.6972 82.2629 58.2368 82.2881 47.803 82.2881C37.3654 82.2881 28.907 82.2629 28.907 82.2319C28.907 82.2008 37.3654 82.1757 47.803 82.1757C58.2371 82.1759 66.6972 82.2011 66.6972 82.2319Z" fill="#E0E0E0"/>
<path d="M66.6972 75.9329C66.6972 75.964 58.2368 75.9892 47.803 75.9892C37.3654 75.9892 28.907 75.964 28.907 75.9329C28.907 75.9019 37.3654 75.8767 47.803 75.8767C58.2371 75.8767 66.6972 75.9019 66.6972 75.9329Z" fill="#E0E0E0"/>
<path d="M66.6972 69.9465C66.6972 69.9775 58.2368 70.0027 47.803 70.0027C37.3654 70.0027 28.907 69.9775 28.907 69.9465C28.907 69.9154 37.3654 69.8903 47.803 69.8903C58.2371 69.8903 66.6972 69.9154 66.6972 69.9465Z" fill="#E0E0E0"/>
<path d="M106.85 0.0874023H73.6282V29.3571H106.85V0.0874023Z" fill="#FAFAFA"/>
<path d="M106.85 29.3571C106.85 29.3571 106.845 29.1694 106.842 28.8137C106.84 28.4545 106.837 27.9296 106.833 27.2453C106.829 25.871 106.822 23.8624 106.814 21.304C106.804 16.19 106.791 8.88223 106.775 0.0873989L106.85 0.161624C97.2824 0.165424 85.8642 0.169985 73.6309 0.174798H73.6278L73.7166 0.0873989C73.7127 10.7361 73.7091 20.7563 73.706 29.3568L73.6278 29.2798C83.5386 29.2958 91.8339 29.3092 97.6565 29.3188C100.57 29.3277 102.863 29.3345 104.434 29.3391C105.216 29.3431 105.817 29.3462 106.228 29.3482C106.429 29.3502 106.583 29.3515 106.69 29.3525C106.795 29.354 106.85 29.3571 106.85 29.3571C106.85 29.3571 106.801 29.3601 106.7 29.3614C106.594 29.3624 106.443 29.3639 106.245 29.3657C105.838 29.3677 105.242 29.3708 104.466 29.3748C102.9 29.3796 100.613 29.3865 97.7069 29.3951C91.872 29.4044 83.5594 29.4179 73.6281 29.4338L73.5499 29.4341V29.3568C73.5468 20.7563 73.5432 10.7361 73.5391 0.0873989V0H73.6278H73.6309C85.8642 0.00481326 97.2824 0.00937368 106.85 0.0131736H106.926V0.0873989C106.909 8.90174 106.896 16.2255 106.887 21.3509C106.878 23.9021 106.872 25.9052 106.867 27.2755C106.863 27.9534 106.861 28.4737 106.859 28.8294C106.856 29.1802 106.85 29.3571 106.85 29.3571Z" fill="#E0E0E0"/>
<path d="M86.3663 5.28833C86.3663 5.33692 84.6178 5.37609 82.461 5.37609C80.3037 5.37609 78.5554 5.33666 78.5554 5.28833C78.5554 5.23999 80.3037 5.20056 82.461 5.20056C84.6178 5.20056 86.3663 5.23999 86.3663 5.28833Z" fill="#E0E0E0"/>
<path d="M100.443 7.48608C100.443 7.53467 95.6395 7.57385 89.7148 7.57385C83.788 7.57385 78.9849 7.53467 78.9849 7.48608C78.9849 7.43775 83.788 7.39832 89.7148 7.39832C95.6395 7.39832 100.443 7.43775 100.443 7.48608Z" fill="#E0E0E0"/>
<path d="M80.0125 11.2083H78.6128V12.5866H80.0125V11.2083Z" fill="#E0E0E0"/>
<path d="M83.458 11.2083H82.0583V12.5866H83.458V11.2083Z" fill="#E0E0E0"/>
<path d="M86.9666 11.1458H85.5669V12.5241H86.9666V11.1458Z" fill="#E0E0E0"/>
<path d="M90.3484 11.2083H88.9487V12.5866H90.3484V11.2083Z" fill="#E0E0E0"/>
<path d="M93.794 11.2083H92.3943V12.5866H93.794V11.2083Z" fill="#E0E0E0"/>
<path d="M97.2391 11.2083H95.8394V12.5866H97.2391V11.2083Z" fill="#E0E0E0"/>
<path d="M100.684 11.2083H99.2844V12.5866H100.684V11.2083Z" fill="#EBEBEB"/>
<path d="M80.0125 14.1385H78.6128V15.5169H80.0125V14.1385Z" fill="#EBEBEB"/>
<path d="M83.458 14.1385H82.0583V15.5169H83.458V14.1385Z" fill="#E0E0E0"/>
<path d="M86.9029 14.1385H85.5032V15.5169H86.9029V14.1385Z" fill="#EBEBEB"/>
<path d="M90.3484 14.1385H88.9487V15.5169H90.3484V14.1385Z" fill="#E0E0E0"/>
<path d="M93.794 14.1385H92.3943V15.5169H93.794V14.1385Z" fill="#E0E0E0"/>
<path d="M97.3023 14.076H95.9026V15.4544H97.3023V14.076Z" fill="#E0E0E0"/>
<path d="M100.684 14.1385H99.2844V15.5169H100.684V14.1385Z" fill="#E0E0E0"/>
<path d="M80.0125 17.0688H78.6128V18.4472H80.0125V17.0688Z" fill="#E0E0E0"/>
<path d="M83.5213 17.0062H82.1216V18.3846H83.5213V17.0062Z" fill="#E0E0E0"/>
<path d="M86.9029 17.0688H85.5032V18.4472H86.9029V17.0688Z" fill="#E0E0E0"/>
<path d="M90.3484 17.0688H88.9487V18.4472H90.3484V17.0688Z" fill="#EBEBEB"/>
<path d="M93.794 17.0688H92.3943V18.4472H93.794V17.0688Z" fill="#E0E0E0"/>
<path d="M97.2391 17.0688H95.8394V18.4472H97.2391V17.0688Z" fill="#E0E0E0"/>
<path d="M100.684 17.0688H99.2844V18.4472H100.684V17.0688Z" fill="#E0E0E0"/>
<path d="M80.0125 19.9991H78.6128V21.3775H80.0125V19.9991Z" fill="#E0E0E0"/>
<path d="M83.458 19.9991H82.0583V21.3775H83.458V19.9991Z" fill="#E0E0E0"/>
<path d="M86.9029 19.9991H85.5032V21.3775H86.9029V19.9991Z" fill="#E0E0E0"/>
<path d="M90.4119 19.9365H89.0122V21.3149H90.4119V19.9365Z" fill="#E0E0E0"/>
<path d="M93.794 19.9991H92.3943V21.3775H93.794V19.9991Z" fill="#E0E0E0"/>
<path d="M97.2391 19.9991H95.8394V21.3775H97.2391V19.9991Z" fill="#EBEBEB"/>
<path d="M100.684 19.9991H99.2844V21.3775H100.684V19.9991Z" fill="#E0E0E0"/>
<path d="M80.0125 22.9293H78.6128V24.3077H80.0125V22.9293Z" fill="#E0E0E0"/>
<path d="M83.458 22.9293H82.0583V24.3077H83.458V22.9293Z" fill="#EBEBEB"/>
<path d="M86.9029 22.9293H85.5032V24.3077H86.9029V22.9293Z" fill="#E0E0E0"/>
<path d="M90.3484 22.9293H88.9487V24.3077H90.3484V22.9293Z" fill="#E0E0E0"/>
<path d="M93.794 22.9293H92.3943V24.3077H93.794V22.9293Z" fill="#E0E0E0"/>
<path d="M97.3023 22.8668H95.9026V24.2452H97.3023V22.8668Z" fill="#E0E0E0"/>
<path d="M100.684 22.9293H99.2844V24.3077H100.684V22.9293Z" fill="#E0E0E0"/>
<path d="M125 108.599C125 108.508 97.0156 108.435 62.5029 108.435C27.9784 108.435 0 108.509 0 108.599C0 108.69 27.9784 108.764 62.5029 108.764C97.0156 108.765 125 108.691 125 108.599Z" fill="#263238"/>
<path d="M60.4982 2.73547C60.4982 2.73547 64.4318 2.78994 62.7486 10.4585C61.0654 18.1273 61.2825 19.5776 61.2825 22.6117C61.2825 26.1664 64.1915 27.4394 64.1915 27.4394H58.8572L54.9336 9.53889V2.73547H60.4982Z" fill="#E0E0E0"/>
<path d="M61.6541 63.1127H7.78955L8.26932 11.2174L59.0036 8.60632L61.6541 63.1127Z" fill="#E0E0E0"/>
<path d="M59.8054 61.7728H5.94092L6.42095 9.87779L58.7214 8.87207L59.8054 61.7728Z" fill="#EBEBEB"/>
<path d="M58.6888 60.326H4.93335V8.43076L58.7215 8.30688L58.6888 60.326Z" fill="#FAFAFA"/>
<path d="M58.6888 60.3258C58.6885 59.8412 58.6787 39.5085 58.6636 8.3069L58.7214 8.3639C43.1344 8.4024 24.6989 8.448 5.01772 8.49664C4.98942 8.49664 4.96113 8.49689 4.93334 8.49689L5.00023 8.43103C4.99689 27.415 4.9938 45.2165 4.99123 60.3263L4.93308 60.269C37.1428 60.3027 58.1918 60.325 58.6888 60.3258C58.192 60.3263 37.1428 60.3489 4.93334 60.383H4.8752V60.3258C4.87263 45.216 4.86954 27.4145 4.86646 8.43052V8.36465L4.93334 8.3644C4.96113 8.3644 4.98942 8.3644 5.01772 8.36415C24.6989 8.3221 43.1344 8.28283 58.7214 8.24964L58.7796 8.24939V8.30639C58.725 39.5082 58.6895 59.8414 58.6888 60.3258Z" fill="#263238"/>
<path d="M58.7213 8.16684C55.9448 4.98249 59.1666 2.62551 60.253 2.57611L9.06802 2.54749C6.39211 2.54597 4.35726 4.92169 4.81671 7.51755C4.8872 7.91604 5.02431 8.30667 5.02431 8.30667" fill="#F5F5F5"/>
<path d="M60.0788 27.4392C60.0788 27.4374 60.1025 27.4354 60.1488 27.4336C60.2013 27.4324 60.2692 27.4303 60.3554 27.4281C60.545 27.4255 60.8135 27.422 61.1593 27.4177C61.8698 27.4134 62.8957 27.407 64.1907 27.3992L64.1786 27.4777C63.7536 27.3467 63.3179 27.1228 62.942 26.7805C62.5633 26.4413 62.2539 25.9919 62.019 25.4853C61.7813 24.9786 61.6074 24.418 61.4672 23.828C61.3972 23.5326 61.3357 23.2296 61.2784 22.9203C61.2506 22.7655 61.2182 22.6107 61.204 22.4481C61.1827 22.287 61.1675 22.1246 61.167 21.9612C61.1436 21.3069 61.1811 20.6338 61.2357 19.9445C61.2874 19.2544 61.3653 18.5484 61.4502 17.8269C61.6257 16.3847 61.8461 14.8829 62.1057 13.3437C62.2119 12.6858 62.3475 12.0365 62.4579 11.4007C62.5633 10.7615 62.65 10.1279 62.7318 9.50526C62.808 8.88156 62.8826 8.26926 62.9559 7.66913C62.9886 7.36817 63.0308 7.07203 63.0377 6.78146C63.0457 6.48963 63.0277 6.20007 62.9886 5.91735C62.9111 5.35142 62.7452 4.81106 62.5034 4.32645C62.2613 3.84436 61.9375 3.40813 61.5207 3.11933C61.1024 2.82978 60.5895 2.74086 60.1218 2.81128C59.6526 2.88171 59.2127 3.0484 58.8759 3.32098C58.5346 3.589 58.2842 3.9272 58.098 4.26919C57.9164 4.61473 57.7921 4.96458 57.7201 5.30126C57.5565 5.97587 57.7317 6.5788 57.9249 7.01731C58.1245 7.46165 58.3447 7.77578 58.4916 7.9868C58.5644 8.08712 58.6218 8.16565 58.6645 8.22442C58.7036 8.27788 58.7229 8.306 58.7211 8.30726C58.7193 8.30878 58.6966 8.28345 58.6537 8.23253C58.6102 8.18212 58.549 8.10485 58.4697 8.00225C58.3151 7.79554 58.0867 7.48496 57.8773 7.03808C57.6746 6.5983 57.486 5.98094 57.647 5.2858C57.7168 4.9428 57.8397 4.5851 58.0226 4.23018C58.2102 3.87881 58.4643 3.52897 58.8168 3.24828C59.1664 2.96201 59.6225 2.7857 60.1074 2.71071C60.5933 2.6337 61.1418 2.72515 61.584 3.0294C62.0252 3.33238 62.3588 3.78154 62.6094 4.27502C62.8594 4.77129 63.0303 5.32254 63.1113 5.90089C63.1522 6.18994 63.1712 6.48583 63.164 6.78501C63.1573 7.08596 63.1154 7.38362 63.0835 7.68357C63.0156 8.28472 62.943 8.89803 62.8625 9.52198C62.7815 10.1457 62.6956 10.7803 62.5898 11.4225C62.4787 12.0659 62.3447 12.7073 62.2382 13.366C61.9789 14.9032 61.7574 16.4032 61.5799 17.8426C61.494 18.5625 61.4147 19.2673 61.3615 19.9546C61.3054 20.6414 61.266 21.3122 61.2869 21.9574C61.2866 22.1195 61.3013 22.2779 61.3213 22.4339C61.3339 22.5902 61.3658 22.7463 61.3929 22.9006C61.4487 23.2091 61.5089 23.5106 61.5768 23.8039C61.7134 24.3899 61.8824 24.9447 62.1132 25.4435C62.3411 25.9425 62.6403 26.3823 63.0056 26.7142C63.3683 27.0493 63.7891 27.27 64.2031 27.4017L64.4546 27.4818L64.191 27.4802C62.896 27.4724 61.8698 27.4661 61.1595 27.4617C60.8138 27.4572 60.5452 27.4536 60.3556 27.4514C60.2694 27.4491 60.2013 27.4473 60.1491 27.4458C60.1025 27.443 60.0788 27.4412 60.0788 27.4392Z" fill="#263238"/>
<path d="M26.9257 4.16228C26.9465 4.17671 26.7932 4.37811 26.6409 4.7462C26.5627 4.9291 26.4963 5.1571 26.4477 5.41423C26.406 5.67262 26.386 5.96066 26.4068 6.26187C26.4328 6.56308 26.4971 6.84453 26.5784 7.0938C26.6664 7.34054 26.767 7.55587 26.8727 7.7251C27.0803 8.06608 27.2629 8.24214 27.2444 8.25937C27.238 8.26596 27.1888 8.22618 27.1047 8.1474C27.0185 8.07115 26.9097 7.94372 26.7924 7.77475C26.6731 7.60679 26.5594 7.38766 26.4616 7.13383C26.3705 6.87771 26.2998 6.58512 26.273 6.272C26.2509 5.95863 26.2756 5.65894 26.326 5.39219C26.3831 5.12645 26.4616 4.89313 26.5537 4.70896C26.6432 4.52454 26.7312 4.38216 26.8045 4.29375C26.876 4.20357 26.9185 4.15696 26.9257 4.16228Z" fill="#263238"/>
<path d="M25.6475 2.36809C25.6683 2.38886 25.3195 2.63054 24.9675 3.18584C24.6167 3.72746 24.2992 4.63463 24.4816 5.61603C24.6707 6.59641 25.2989 7.33005 25.8244 7.71055C26.3559 8.10372 26.7698 8.20505 26.758 8.2319C26.7559 8.23874 26.6533 8.21848 26.4753 8.15565C26.2973 8.09359 26.0475 7.9768 25.7686 7.78579C25.2148 7.41466 24.5475 6.6638 24.3499 5.64009C24.1595 4.61538 24.5071 3.67806 24.8878 3.13542C25.0779 2.85803 25.2683 2.66069 25.4116 2.53934C25.5546 2.41774 25.6431 2.36226 25.6475 2.36809Z" fill="#263238"/>
<path d="M54.5782 42.8779C54.5782 42.8779 54.5211 42.8824 54.41 42.8847C54.294 42.8862 54.1298 42.8885 53.9158 42.8913C53.4767 42.8941 52.8377 42.8984 52.016 42.9037C50.3616 42.9088 47.9754 42.9159 45.0286 42.9248C39.1247 42.9298 30.9761 42.9364 21.9759 42.944C18.4853 42.943 15.1231 42.9417 12.0343 42.941H11.9705V42.8781C11.9802 36.3921 11.9885 30.8141 11.9944 26.8525C12.0024 24.8771 12.0085 23.3052 12.0129 22.2222C12.0173 21.6861 12.0209 21.2722 12.0232 20.9864C12.0255 20.8491 12.0273 20.7437 12.0286 20.6677C12.0304 20.5961 12.034 20.5596 12.034 20.5596C12.034 20.5596 12.0376 20.5961 12.0397 20.6677C12.0409 20.7437 12.0427 20.8491 12.0451 20.9864C12.0474 21.2719 12.051 21.6861 12.0554 22.2222C12.0597 23.3052 12.0659 24.8773 12.0739 26.8525C12.0798 30.8141 12.088 36.3924 12.0978 42.8781L12.034 42.8153C15.1228 42.8143 18.4851 42.8133 21.9757 42.8123C30.9758 42.8199 39.1245 42.8267 45.0283 42.8315C47.9751 42.8404 50.3614 42.8475 52.0158 42.8526C52.8374 42.8579 53.4764 42.8622 53.9156 42.865C54.1293 42.8678 54.2937 42.87 54.4097 42.8716C54.5211 42.8736 54.5782 42.8779 54.5782 42.8779Z" fill="#263238"/>
<path d="M19.7893 37.3643H15.4917V41.5964H19.7893V37.3643Z" fill="#5140B2" fill-opacity="0.7"/>
<path d="M26.0896 34.3387H21.792V41.5964H26.0896V34.3387Z" fill="#5140B2" fill-opacity="0.7"/>
<path d="M32.415 30.9017H28.1174V41.5963H32.415V30.9017Z" fill="#5140B2" fill-opacity="0.7"/>
<path d="M38.5474 27.0762H34.2498V41.5962H38.5474V27.0762Z" fill="#5140B2" fill-opacity="0.7"/>
<path d="M44.8225 22.1776H40.5249V41.5963H44.8225V22.1776Z" fill="#5140B2" fill-opacity="0.7"/>
<path d="M51.0503 18.4419H46.7527V41.3956H51.0503V18.4419Z" fill="#5140B2" fill-opacity="0.7"/>
<path d="M15.4917 33.0252C15.4907 33.0237 15.5092 33.0097 15.5465 32.9837C15.589 32.9548 15.644 32.9173 15.714 32.8702C15.8689 32.7681 16.0878 32.6239 16.3687 32.4387C16.9488 32.0623 17.7844 31.5199 18.8316 30.84C20.9465 29.4788 23.9156 27.568 27.3597 25.3513L27.4585 25.2878V25.404C27.459 26.0034 27.4595 26.6449 27.4603 27.2982L27.3582 27.2445C28.4438 26.5276 29.5677 25.7853 30.7189 25.0253C35.3481 21.9795 39.5384 19.2228 42.5781 17.2228C44.0946 16.2325 45.324 15.4302 46.1804 14.8709C46.6025 14.5985 46.9326 14.3857 47.1636 14.237C47.2724 14.1686 47.3578 14.1149 47.4211 14.0749C47.4795 14.0389 47.5101 14.0214 47.5114 14.0235C47.5127 14.0252 47.4846 14.0465 47.4288 14.086C47.3673 14.1286 47.2842 14.1859 47.1785 14.2591C46.9508 14.4128 46.6254 14.6325 46.2094 14.9134C45.3584 15.4809 44.1373 16.2953 42.6308 17.3003C39.5966 19.3084 35.4142 22.0766 30.7932 25.135C29.6415 25.8945 28.5171 26.636 27.431 27.3521L27.3286 27.4195V27.2984C27.3291 26.6451 27.3296 26.0034 27.3304 25.4043L27.4292 25.457C23.9746 27.6577 20.9961 29.5548 18.8748 30.9061C17.8188 31.5729 16.9766 32.1049 16.3919 32.4742C16.1058 32.652 15.8833 32.7906 15.7256 32.8884C15.6533 32.932 15.5962 32.9664 15.5522 32.993C15.5133 33.0156 15.4928 33.0267 15.4917 33.0252Z" fill="#263238"/>
<path d="M47.5113 15.8142C47.4938 15.8142 47.4779 15.6163 47.4658 15.2923C47.4539 14.9683 47.446 14.5181 47.4444 14.0133L47.5111 14.0789C47.4588 14.0789 47.403 14.0791 47.3469 14.0791C46.7964 14.0791 46.2981 14.0718 45.9375 14.0599C45.5768 14.048 45.3538 14.0315 45.3538 14.0133C45.3538 13.995 45.5768 13.9785 45.9375 13.9666C46.2981 13.9547 46.7964 13.9474 47.3469 13.9474C47.4033 13.9474 47.4588 13.9476 47.5111 13.9476H47.5779L47.5777 14.0133C47.5761 14.5181 47.5684 14.9683 47.5563 15.2923C47.5448 15.6163 47.5288 15.8142 47.5113 15.8142Z" fill="#263238"/>
<path d="M24.8019 46.2916C24.8019 46.3282 23.4734 46.3578 21.8353 46.3578C20.1966 46.3578 18.8684 46.328 18.8684 46.2916C18.8684 46.255 20.1966 46.2255 21.8353 46.2255C23.4734 46.2252 24.8019 46.255 24.8019 46.2916Z" fill="#263238"/>
<path d="M21.7549 48.2915C21.7178 48.2915 21.688 47.9849 21.688 47.6072C21.688 47.2292 21.7181 46.923 21.7549 46.923C21.7919 46.923 21.8218 47.2292 21.8218 47.6072C21.8218 47.9849 21.7919 48.2915 21.7549 48.2915Z" fill="#263238"/>
<path d="M29.0246 48.9761C29.0246 49.0127 25.4584 49.0422 21.0604 49.0422C16.6609 49.0422 13.0955 49.0124 13.0955 48.9761C13.0955 48.9394 16.6609 48.9099 21.0604 48.9099C25.4586 48.9099 29.0246 48.9394 29.0246 48.9761Z" fill="#263238"/>
<path d="M13.2024 50.9233C13.1653 50.9233 13.1355 50.499 13.1355 49.9759C13.1355 49.4525 13.1656 49.0284 13.2024 49.0284C13.2392 49.0284 13.2693 49.4525 13.2693 49.9759C13.2693 50.499 13.2392 50.9233 13.2024 50.9233Z" fill="#263238"/>
<path d="M18.8684 50.7129C18.8313 50.7129 18.8015 50.3476 18.8015 49.8971C18.8015 49.4465 18.8316 49.0812 18.8684 49.0812C18.9054 49.0812 18.9353 49.4465 18.9353 49.8971C18.9355 50.3476 18.9054 50.7129 18.8684 50.7129Z" fill="#263238"/>
<path d="M24.6948 50.8181C24.6578 50.8181 24.6277 50.4173 24.6277 49.9233C24.6277 49.4291 24.6578 49.0283 24.6948 49.0283C24.7319 49.0283 24.7617 49.4288 24.7617 49.9233C24.762 50.4176 24.7319 50.8181 24.6948 50.8181Z" fill="#263238"/>
<path d="M29.1318 50.818C29.0948 50.818 29.0649 50.4056 29.0649 49.8969C29.0649 49.388 29.095 48.9756 29.1318 48.9756C29.1686 48.9756 29.1987 49.388 29.1987 49.8969C29.1987 50.4056 29.1689 50.818 29.1318 50.818Z" fill="#263238"/>
<path d="M15.1805 51.4501C15.1805 51.4867 14.319 51.5162 13.2563 51.5162C12.1933 51.5162 11.3318 51.4864 11.3318 51.4501C11.3318 51.4134 12.1933 51.3839 13.2563 51.3839C14.3187 51.3839 15.1805 51.4134 15.1805 51.4501Z" fill="#263238"/>
<path d="M20.0981 51.4501C20.0981 51.4867 19.4397 51.5162 18.6281 51.5162C17.8162 51.5162 17.1582 51.4864 17.1582 51.4501C17.1582 51.4134 17.8162 51.3839 18.6281 51.3839C19.44 51.3839 20.0981 51.4134 20.0981 51.4501Z" fill="#263238"/>
<path d="M26.3524 51.608C26.3524 51.6446 25.6462 51.6742 24.7757 51.6742C23.9046 51.6742 23.1987 51.6444 23.1987 51.608C23.1987 51.5716 23.9046 51.5419 24.7757 51.5419C25.6462 51.5419 26.3524 51.5716 26.3524 51.608Z" fill="#263238"/>
<path d="M31.4304 51.3447C31.4304 51.3813 30.6764 51.4109 29.7467 51.4109C28.8165 51.4109 28.0627 51.3811 28.0627 51.3447C28.0627 51.3081 28.8165 51.2786 29.7467 51.2786C30.6764 51.2786 31.4304 51.3083 31.4304 51.3447Z" fill="#263238"/>
<path d="M13.2558 53.2923C13.2188 53.2923 13.189 53.0448 13.189 52.7395C13.189 52.4343 13.2191 52.1868 13.2558 52.1868C13.2926 52.1868 13.3227 52.4343 13.3227 52.7395C13.323 53.0448 13.2929 53.2923 13.2558 53.2923Z" fill="#263238"/>
<path d="M16.9149 53.2925C16.9149 53.3291 15.3593 53.3586 13.4405 53.3586C11.5211 53.3586 9.96582 53.3288 9.96582 53.2925C9.96582 53.2558 11.5211 53.2263 13.4405 53.2263C15.3591 53.2261 16.9149 53.2558 16.9149 53.2925Z" fill="#263238"/>
<path d="M16.915 54.8712C16.878 54.8712 16.8481 54.5176 16.8481 54.0816C16.8481 53.6454 16.8782 53.292 16.915 53.292C16.9518 53.292 16.9819 53.6454 16.9819 54.0816C16.9819 54.5178 16.9518 54.8712 16.915 54.8712Z" fill="#263238"/>
<path d="M9.96532 54.9767C9.92828 54.9767 9.89844 54.5995 9.89844 54.1347C9.89844 53.6696 9.92854 53.2924 9.96532 53.2924C10.0024 53.2924 10.0322 53.6693 10.0322 54.1347C10.0322 54.5995 10.0024 54.9767 9.96532 54.9767Z" fill="#263238"/>
<path d="M24.8374 53.2923C24.8003 53.2923 24.7705 53.0448 24.7705 52.7395C24.7705 52.4343 24.8006 52.1868 24.8374 52.1868C24.8744 52.1868 24.9043 52.4343 24.9043 52.7395C24.9043 53.0448 24.8742 53.2923 24.8374 53.2923Z" fill="#263238"/>
<path d="M33.2847 53.2925C33.2847 53.3291 30.6568 53.3586 27.4163 53.3586C24.1744 53.3586 21.5471 53.3288 21.5471 53.2925C21.5471 53.2558 24.1742 53.2263 27.4163 53.2263C30.6568 53.2261 33.2847 53.2558 33.2847 53.2925Z" fill="#263238"/>
<path d="M28.4963 54.8712C28.4593 54.8712 28.4294 54.5176 28.4294 54.0816C28.4294 53.6454 28.4595 53.292 28.4963 53.292C28.5334 53.292 28.5632 53.6454 28.5632 54.0816C28.5632 54.5178 28.5331 54.8712 28.4963 54.8712Z" fill="#263238"/>
<path d="M33.5244 54.8712C33.4874 54.8712 33.4575 54.5176 33.4575 54.0816C33.4575 53.6454 33.4876 53.292 33.5244 53.292C33.5612 53.292 33.5913 53.6454 33.5913 54.0816C33.5913 54.5178 33.5614 54.8712 33.5244 54.8712Z" fill="#263238"/>
<path d="M21.5469 54.9767C21.5098 54.9767 21.48 54.5995 21.48 54.1347C21.48 53.6696 21.5101 53.2924 21.5469 53.2924C21.5839 53.2924 21.6138 53.6693 21.6138 54.1347C21.614 54.5995 21.5839 54.9767 21.5469 54.9767Z" fill="#263238"/>
<path d="M11.3351 55.9475C11.3351 55.9841 10.7219 56.0136 9.96555 56.0136C9.20897 56.0136 8.59595 55.9839 8.59595 55.9475C8.59595 55.9109 9.20897 55.8813 9.96555 55.8813C10.7219 55.8813 11.3351 55.9109 11.3351 55.9475Z" fill="#263238"/>
<path d="M18.1401 55.7541C18.1401 55.7908 17.4774 55.8203 16.6601 55.8203C15.8426 55.8203 15.1799 55.7905 15.1799 55.7541C15.1799 55.7178 15.8426 55.688 16.6601 55.688C17.4774 55.688 18.1401 55.7178 18.1401 55.7541Z" fill="#263238"/>
<path d="M23.0584 55.7541C23.0584 55.7908 22.4749 55.8203 21.7551 55.8203C21.0351 55.8203 20.4517 55.7905 20.4517 55.7541C20.4517 55.7178 21.0351 55.688 21.7551 55.688C22.4749 55.688 23.0584 55.7178 23.0584 55.7541Z" fill="#263238"/>
<path d="M29.6863 55.7541C29.6863 55.7908 29.0532 55.8203 28.2727 55.8203C27.4917 55.8203 26.8589 55.7905 26.8589 55.7541C26.8589 55.7178 27.4917 55.688 28.2727 55.688C29.0535 55.688 29.6863 55.7178 29.6863 55.7541Z" fill="#263238"/>
<path d="M34.9884 55.5804C34.9884 55.6171 34.3455 55.6466 33.5527 55.6466C32.7596 55.6466 32.1167 55.6168 32.1167 55.5804C32.1167 55.5438 32.7596 55.5143 33.5527 55.5143C34.3455 55.514 34.9884 55.5438 34.9884 55.5804Z" fill="#263238"/>
<path d="M54.5398 56.6068H36.3918V45.5409H54.5398V56.6068ZM36.405 56.5939H54.5267V45.5536H36.405V56.5939Z" fill="#263238"/>
<path d="M50.155 53.5387C48.8976 53.069 47.4511 54.3676 46.2183 53.8381C45.5011 53.53 45.1757 52.7311 44.8243 52.0425C44.4729 51.354 43.8673 50.6277 43.0889 50.7075C42.3038 50.788 41.6689 51.6833 40.9105 51.4674C40.4325 51.3314 40.1938 50.8093 40.0742 50.3338C39.9543 49.8583 39.8712 49.3326 39.507 48.9993C39.1424 48.6659 38.3833 48.755 38.3259 49.2417V55.1012H52.5076C52.5076 55.1012 50.5901 53.7013 50.155 53.5387Z" fill="#5140B2" fill-opacity="0.7"/>
<path d="M52.8862 55.1018C52.8862 55.1146 49.4488 55.1249 45.2096 55.1249C40.9688 55.1249 37.5322 55.1146 37.5322 55.1018C37.5322 55.0892 40.9688 55.0786 45.2096 55.0786C49.4488 55.0786 52.8862 55.0889 52.8862 55.1018Z" fill="#E0E0E0"/>
<path d="M52.8862 52.5424C52.8862 52.555 49.4488 52.5656 45.2096 52.5656C40.9688 52.5656 37.5322 52.5553 37.5322 52.5424C37.5322 52.5296 40.9688 52.5193 45.2096 52.5193C49.4488 52.5193 52.8862 52.5296 52.8862 52.5424Z" fill="#263238"/>
<path d="M52.8862 49.9831C52.8862 49.9957 49.4488 50.0063 45.2096 50.0063C40.9688 50.0063 37.5322 49.996 37.5322 49.9831C37.5322 49.9702 40.9688 49.96 45.2096 49.96C49.4488 49.9602 52.8862 49.9705 52.8862 49.9831Z" fill="#263238"/>
<path d="M52.8862 47.5509C52.8862 47.5635 49.4488 47.574 45.2096 47.574C40.9688 47.574 37.5322 47.5637 37.5322 47.5509C37.5322 47.538 40.9688 47.5277 45.2096 47.5277C49.4488 47.5277 52.8862 47.538 52.8862 47.5509Z" fill="#263238"/>
<path d="M12.0359 12.0644C12.0359 12.0636 12.0444 12.0631 12.0609 12.0628C12.0802 12.0628 12.1043 12.0628 12.1344 12.0631C12.1993 12.0611 12.2947 12.0694 12.4169 12.0882C12.5381 12.112 12.6865 12.1505 12.8442 12.2321C13.0014 12.3131 13.1624 12.4418 13.3 12.6174C13.4323 12.7955 13.5511 13.0149 13.5997 13.2753C13.6453 13.5357 13.6049 13.8245 13.4945 14.1001C13.4405 14.2387 13.3692 14.374 13.2867 14.5062C13.2043 14.6379 13.1218 14.7707 13.0518 14.9153C12.9113 15.2026 12.7966 15.5203 12.7379 15.8549L12.7341 15.877L12.7122 15.8765C12.4974 15.8714 12.2703 15.8661 12.04 15.8605C11.7985 15.8547 11.5605 15.8489 11.3352 15.8433L11.3102 15.8428L11.3105 15.8177C11.3128 15.4803 11.1715 15.1674 11.0213 14.8892C10.9452 14.7489 10.861 14.6167 10.7828 14.4832C10.7062 14.3522 10.6192 14.2263 10.5596 14.09C10.4363 13.8182 10.4253 13.522 10.4865 13.27C10.5457 13.0171 10.6408 12.7896 10.7761 12.6128C10.9109 12.436 11.0784 12.3159 11.2351 12.2379C11.3925 12.1596 11.5392 12.1196 11.6593 12.0955C11.7797 12.072 11.8746 12.0644 11.9389 12.0621C11.9711 12.0616 11.9955 12.0613 12.012 12.0623C12.0277 12.0626 12.0359 12.0639 12.0359 12.0644C12.0359 12.0654 12.0274 12.0656 12.0112 12.0666C11.9922 12.0679 11.9682 12.0692 11.9387 12.0712C11.8751 12.0768 11.781 12.0869 11.6624 12.1133C11.544 12.1399 11.4 12.1819 11.2467 12.2612C11.0939 12.34 10.9323 12.4596 10.8029 12.6328C10.6735 12.8051 10.5814 13.0301 10.5253 13.2781C10.4677 13.5253 10.4803 13.8096 10.6005 14.072C10.6588 14.204 10.7443 14.3263 10.8232 14.4601C10.9009 14.5916 10.9863 14.7251 11.0638 14.8664C11.216 15.1474 11.3624 15.4648 11.3609 15.819L11.3362 15.7934C11.5618 15.7987 11.7998 15.8045 12.0411 15.8101C12.2713 15.8157 12.4982 15.8212 12.7132 15.8263L12.6875 15.8478C12.7482 15.5038 12.8648 15.1854 13.0078 14.8941C13.0788 14.7481 13.1642 14.6118 13.2463 14.4816C13.3283 14.3519 13.3988 14.2189 13.4523 14.0837C13.5619 13.8144 13.602 13.5342 13.5601 13.2816C13.5154 13.0306 13.4001 12.8119 13.2728 12.6371C13.14 12.4644 12.9844 12.3367 12.8316 12.2549C12.6783 12.1728 12.5327 12.1323 12.4135 12.1059C12.2932 12.0846 12.1985 12.0735 12.1339 12.0722C12.1041 12.0702 12.0799 12.0687 12.0609 12.0674C12.0444 12.0664 12.0359 12.0654 12.0359 12.0644Z" fill="#263238"/>
<path d="M12.2325 15.799C12.2325 15.799 12.231 15.7919 12.2292 15.7777C12.2274 15.7628 12.2248 15.742 12.2214 15.7152C12.215 15.6592 12.206 15.5784 12.1942 15.4745C12.1723 15.2655 12.1391 14.9625 12.1242 14.5866C12.1209 14.4926 12.1183 14.394 12.1185 14.2915C12.1193 14.1889 12.1193 14.0819 12.1299 13.9712C12.1407 13.861 12.1638 13.7455 12.2202 13.6391C12.2765 13.5345 12.3673 13.4377 12.49 13.3937C12.6117 13.3475 12.7629 13.3802 12.8574 13.4778C12.9039 13.5266 12.9338 13.5948 12.9291 13.6642C12.9261 13.7334 12.8962 13.7997 12.8517 13.8532C12.8077 13.9077 12.7475 13.9487 12.6827 13.9768C12.6179 14.0057 12.5482 14.0224 12.4779 14.0348C12.3372 14.0581 12.1926 14.0685 12.0465 14.067C11.9004 14.0645 11.7561 14.0561 11.6154 14.0293C11.5454 14.0151 11.4764 13.9943 11.4129 13.9629C11.3494 13.9317 11.292 13.8887 11.2465 13.836C11.2009 13.7835 11.1672 13.7204 11.1551 13.6528C11.142 13.5852 11.1554 13.5145 11.1876 13.4555C11.2194 13.3964 11.2712 13.3468 11.3355 13.3247C11.3998 13.3019 11.471 13.3121 11.5287 13.3412C11.5868 13.3703 11.6341 13.4159 11.6681 13.4679C11.7023 13.5206 11.7216 13.5793 11.7334 13.6376C11.7566 13.7552 11.7512 13.8707 11.7538 13.9806C11.7563 14.2015 11.7589 14.4075 11.7612 14.5954C11.7651 14.9706 11.7682 15.2746 11.7705 15.4856C11.771 15.59 11.7715 15.6713 11.7718 15.7276C11.7718 15.7547 11.7715 15.7755 11.7715 15.7904C11.7713 15.8046 11.7707 15.8119 11.7707 15.8119C11.7707 15.8119 11.77 15.8046 11.7695 15.7904C11.7689 15.7755 11.7684 15.7544 11.7674 15.7276C11.7661 15.6713 11.7643 15.59 11.762 15.4856C11.7581 15.2746 11.7527 14.9706 11.746 14.5954C11.743 14.4075 11.7396 14.2018 11.736 13.9809C11.7329 13.8704 11.7378 13.7554 11.7149 13.6412C11.7031 13.5844 11.684 13.5277 11.6516 13.478C11.6192 13.4286 11.5739 13.3855 11.5194 13.3582C11.4654 13.3308 11.3998 13.3222 11.3414 13.343C11.283 13.363 11.2346 13.4091 11.2048 13.4646C11.175 13.5201 11.1623 13.5859 11.1747 13.649C11.1863 13.7126 11.2182 13.7724 11.2616 13.8225C11.3491 13.9249 11.4818 13.9821 11.619 14.0087C11.7568 14.0351 11.9012 14.0434 12.046 14.046C12.1911 14.0475 12.3344 14.0374 12.4735 14.0141C12.5427 14.0019 12.6109 13.9854 12.6734 13.9576C12.7362 13.9302 12.7931 13.8914 12.8347 13.8398C12.8769 13.7891 12.905 13.7265 12.9078 13.6627C12.9119 13.5986 12.8849 13.5365 12.8417 13.4907C12.7532 13.3992 12.6107 13.3676 12.4957 13.4111C12.3789 13.4527 12.2906 13.5456 12.2356 13.6472C12.1805 13.7501 12.1574 13.8636 12.1463 13.9725C12.1355 14.0819 12.1353 14.1889 12.134 14.2912C12.1329 14.3935 12.1353 14.4921 12.1381 14.5858C12.1512 14.9613 12.1821 15.264 12.2014 15.4732C12.2114 15.5771 12.2194 15.6582 12.2248 15.7141C12.2271 15.741 12.2292 15.762 12.2304 15.7767C12.2325 15.7917 12.2325 15.799 12.2325 15.799Z" fill="#263238"/>
<path d="M11.3356 15.7988C11.339 15.8021 11.3413 15.8824 11.3441 16.0222C11.3459 16.1841 11.3482 16.3779 11.3508 16.6036L11.3459 16.5892C11.4763 16.7498 11.6235 16.9311 11.7825 17.127L11.7593 17.1161C11.9263 17.1135 12.1048 17.1108 12.2897 17.1077L12.2671 17.1179C12.3564 17.0191 12.449 16.9162 12.5436 16.8113C12.5905 16.7596 12.6368 16.7085 12.6823 16.6581L12.6743 16.6781C12.6797 16.3723 12.6849 16.0827 12.6895 15.8185L12.7173 15.8466C12.3314 15.8355 11.9967 15.8259 11.7279 15.818C11.6206 15.8137 11.5265 15.8099 11.4421 15.8064C11.375 15.8036 11.3379 15.801 11.3356 15.7988C11.3336 15.7965 11.3665 15.795 11.4303 15.7937C11.5126 15.7927 11.6049 15.7917 11.7099 15.7904C11.9839 15.7907 12.325 15.7909 12.7181 15.7914H12.7461L12.7459 15.8195C12.743 16.0838 12.7402 16.3733 12.7368 16.6791V16.6905L12.7291 16.6991C12.6836 16.7495 12.6373 16.8007 12.5905 16.8524C12.4955 16.957 12.4027 17.0596 12.3132 17.1584L12.3039 17.1685H12.2903C12.105 17.17 11.9268 17.1716 11.7596 17.1731H11.7452L11.7364 17.1622C11.5808 16.9638 11.4364 16.7802 11.3089 16.6173L11.3037 16.6107L11.304 16.6028C11.3112 16.3715 11.3173 16.1732 11.3225 16.0075C11.3284 15.8694 11.3325 15.7955 11.3356 15.7988Z" fill="#263238"/>
<path d="M12.6712 16.6083C12.6704 16.6096 12.6532 16.601 12.6218 16.5855C12.5907 16.5699 12.5449 16.5486 12.4865 16.5262C12.3707 16.4811 12.2017 16.4369 12.0114 16.4351C11.821 16.4331 11.651 16.4743 11.5344 16.517C11.4758 16.5381 11.4297 16.5587 11.3981 16.5737C11.3664 16.5888 11.3492 16.5972 11.3482 16.5959C11.3474 16.5949 11.3636 16.5839 11.3942 16.5666C11.4248 16.5493 11.4704 16.5267 11.529 16.5035C11.6455 16.4567 11.8179 16.4125 12.0116 16.4145C12.2053 16.4163 12.3767 16.4638 12.4922 16.5127C12.5503 16.5371 12.5956 16.5605 12.6257 16.5786C12.656 16.5959 12.6717 16.6071 12.6712 16.6083Z" fill="#263238"/>
<path d="M12.6798 16.3997C12.679 16.401 12.6617 16.3923 12.6304 16.3768C12.5992 16.3613 12.5534 16.3399 12.4951 16.3176C12.3793 16.2725 12.2103 16.2283 12.0199 16.2265C11.8295 16.2244 11.6595 16.2657 11.543 16.3084C11.4843 16.3295 11.4383 16.3501 11.4066 16.3651C11.375 16.3801 11.3577 16.3885 11.3567 16.387C11.3559 16.386 11.3722 16.375 11.4028 16.3577C11.4334 16.3404 11.4789 16.3178 11.5376 16.2947C11.6541 16.2478 11.8265 16.2038 12.0202 16.2056C12.2139 16.2074 12.3852 16.255 12.5007 16.3038C12.5588 16.3282 12.6041 16.3516 12.6342 16.3697C12.6646 16.3875 12.6805 16.3987 12.6798 16.3997Z" fill="#263238"/>
<path d="M12.6751 16.2008C12.6743 16.2023 12.6571 16.1934 12.6257 16.1779C12.5946 16.1623 12.5488 16.141 12.4904 16.1186C12.3746 16.0736 12.2056 16.0293 12.0153 16.0275C11.8249 16.0255 11.6549 16.0667 11.5383 16.1094C11.4797 16.1305 11.4336 16.1512 11.402 16.1659C11.3703 16.1809 11.3531 16.1893 11.3521 16.188C11.3513 16.187 11.3675 16.1761 11.3981 16.1588C11.4287 16.1415 11.4743 16.1188 11.5329 16.0954C11.6495 16.0486 11.8218 16.0046 12.0155 16.0064C12.2092 16.0082 12.3806 16.0558 12.4961 16.1046C12.5542 16.129 12.5995 16.1524 12.6296 16.1705C12.6599 16.1885 12.6759 16.1997 12.6751 16.2008Z" fill="#263238"/>
<path d="M17.5876 21.6554C17.5876 21.6554 17.0685 26.3283 17.7358 28.8869L24.0763 28.6141C24.0763 28.6141 22.7175 24.0045 23.5517 21.9624L17.5876 21.6554Z" fill="#EBEBEB"/>
<path d="M17.613 21.5051C17.613 21.5051 17.6565 26.5502 17.9171 28.0894L24.3427 27.7902C24.3427 27.7902 23.7783 22.8305 23.9954 21.5051H17.613Z" fill="#5140B2" fill-opacity="0.7"/>
<path d="M23.0266 23.6245C23.0281 23.6479 22.0637 23.7243 20.8734 23.795C19.6824 23.866 18.7161 23.9044 18.7148 23.881C18.7136 23.8576 19.6775 23.7812 20.8683 23.7105C22.0586 23.6395 23.0253 23.6011 23.0266 23.6245Z" fill="white"/>
<path d="M23.0291 24.693C23.0304 24.7164 22.0662 24.7927 20.8756 24.8637C19.6848 24.9347 18.7183 24.9731 18.717 24.9497C18.7155 24.9263 19.6797 24.85 20.8705 24.7793C22.061 24.7083 23.0275 24.6699 23.0291 24.693Z" fill="white"/>
<path d="M21.9363 25.7422C21.937 25.7539 21.8002 25.7727 21.5782 25.7936C21.3564 25.8145 21.0495 25.8376 20.7105 25.8577C20.3711 25.8778 20.0637 25.8913 19.8409 25.8969C19.6182 25.9025 19.48 25.8999 19.4793 25.8882C19.4785 25.8765 19.6153 25.8577 19.8371 25.8369C20.0588 25.816 20.3657 25.7928 20.7051 25.7727C21.0441 25.7526 21.3515 25.7392 21.5743 25.7336C21.7973 25.7282 21.9355 25.7305 21.9363 25.7422Z" fill="white"/>
<path d="M32.2649 13.3133C32.2649 13.35 28.5065 13.3795 23.8714 13.3795C19.2345 13.3795 15.4768 13.3497 15.4768 13.3133C15.4768 13.2767 19.2345 13.2472 23.8714 13.2472C28.5065 13.2469 32.2649 13.2767 32.2649 13.3133Z" fill="#263238"/>
<path d="M21.6414 14.8202C21.6414 14.8568 20.2319 14.8863 18.4937 14.8863C16.7549 14.8863 15.3457 14.8566 15.3457 14.8202C15.3457 14.7835 16.7549 14.754 18.4937 14.754C20.2319 14.7538 21.6414 14.7835 21.6414 14.8202Z" fill="#263238"/>
<path d="M24.986 14.8202C24.986 14.8568 24.4426 14.8863 23.7728 14.8863C23.1026 14.8863 22.5596 14.8566 22.5596 14.8202C22.5596 14.7835 23.1026 14.754 23.7728 14.754C24.4426 14.7538 24.986 14.7835 24.986 14.8202Z" fill="#263238"/>
<path d="M60.0794 30.7128C60.0771 30.713 60.0737 30.6935 60.0691 30.6553C60.0645 30.6091 60.059 30.5537 60.0521 30.4858C60.0392 30.3254 60.022 30.1078 59.9999 29.8337C59.9597 29.2548 59.9029 28.4381 59.8332 27.4339C59.7046 25.3964 59.5283 22.6014 59.3336 19.5138C59.154 16.4242 58.9915 13.6282 58.8731 11.5899C58.8212 10.5847 58.779 9.76724 58.7489 9.18787C58.7376 8.91301 58.7286 8.69515 58.7219 8.53454C58.7203 8.46639 58.7193 8.41066 58.7183 8.3643C58.7183 8.32605 58.7193 8.30629 58.7216 8.30603C58.7239 8.30578 58.7273 8.32529 58.7319 8.36354C58.7365 8.40965 58.7422 8.46512 58.7489 8.53302C58.7617 8.69337 58.779 8.91098 58.8008 9.18509C58.841 9.76394 58.8978 10.5804 58.9675 11.5846C59.0962 13.6221 59.2724 16.4174 59.4671 19.506C59.6467 22.5943 59.809 25.3901 59.9276 27.4283C59.9796 28.4336 60.022 29.251 60.0519 29.8307C60.0632 30.1055 60.0722 30.3234 60.0789 30.4843C60.0804 30.5524 60.0814 30.6081 60.0825 30.6545C60.0827 30.693 60.0814 30.7128 60.0794 30.7128Z" fill="#263238"/>
<path d="M58.7215 2.57513C58.7215 2.57513 58.6711 2.57944 58.5726 2.58146C58.4689 2.58273 58.3238 2.58476 58.135 2.58704C57.745 2.58906 57.1791 2.5921 56.4526 2.5959C54.9865 2.59768 52.8735 2.60021 50.2647 2.6035C45.0356 2.59717 37.82 2.5883 29.8501 2.57868C21.473 2.55208 13.931 2.52826 8.71603 2.5118L8.72683 2.51053C7.55892 2.79071 6.6413 3.44836 6.03985 4.15996C5.42991 4.87637 5.13356 5.64827 4.99542 6.2826C4.85625 6.92201 4.86937 7.43399 4.89613 7.7737C4.91182 7.94394 4.92776 8.07364 4.94294 8.15978C4.95632 8.24641 4.96018 8.29125 4.96018 8.29125C4.96018 8.29125 4.90976 8.11798 4.87066 7.77598C4.83541 7.43525 4.81406 6.91973 4.94706 6.27247C5.07877 5.63079 5.37152 4.84623 5.98506 4.11487C6.58986 3.38882 7.51724 2.71497 8.70574 2.42339L8.71088 2.42212H8.71654C13.9315 2.4282 21.4736 2.43681 29.8506 2.44669C37.8202 2.47152 45.0358 2.49381 50.265 2.51002C52.8737 2.52446 54.9865 2.53612 56.4526 2.54448C57.1791 2.55132 57.7453 2.55689 58.135 2.56044C58.3236 2.56373 58.4689 2.56626 58.5726 2.56804C58.6709 2.57057 58.7215 2.57513 58.7215 2.57513Z" fill="#263238"/>
<path d="M100.037 82.0158C103.439 78.5868 108.77 77.1461 113.473 78.3846C109.388 81.0821 104.797 82.5276 99.8784 82.5673" fill="#5140B2" fill-opacity="0.7"/>
<path d="M104.594 66.1241C104.034 62.2254 105.573 57.8392 108.537 55.0052C108.635 58.8693 106.979 63.2177 104.594 66.1241Z" fill="#5140B2" fill-opacity="0.7"/>
<path d="M102.224 73.4895C104.336 69.513 107.804 66.2499 111.933 64.3519C110.696 68.8412 106.796 72.5134 102.187 73.5311" fill="#5140B2" fill-opacity="0.7"/>
<path d="M101.733 74.9105C104.124 74.9767 106.544 74.8938 108.857 74.2912C111.169 73.6885 113.384 72.5303 114.923 70.7266C110.271 70.7316 105.63 72.127 101.768 74.6813" fill="#5140B2" fill-opacity="0.7"/>
<path d="M102.947 70.2294C101.733 65.7495 99.7305 62.6505 96.1547 60.1398C95.8841 62.3194 96.4281 64.5882 97.6604 66.4188C98.8923 68.2491 100.803 69.6262 102.947 70.2294Z" fill="#5140B2" fill-opacity="0.7"/>
<path d="M93.9201 77.9554C93.8574 75.3522 95.5614 72.7939 98.0112 71.8135C97.8123 74.1269 95.9671 76.803 93.9201 77.9554Z" fill="#5140B2" fill-opacity="0.7"/>
<path d="M92.7778 74.1783C92.5062 70.4361 89.8058 66.9736 86.2046 65.7495C87.0304 69.4932 89.2286 72.6097 92.7778 74.1783Z" fill="#5140B2" fill-opacity="0.7"/>
<path d="M94.4991 80.8814C93.6558 79.6933 92.2798 78.9546 90.8557 78.5877C89.4318 78.2209 87.9441 78.1885 86.4724 78.1581C88.4576 80.3091 91.4384 81.5314 94.387 81.4042" fill="#5140B2" fill-opacity="0.7"/>
<path d="M96.2085 90.4307C93.5557 89.6243 90.5989 89.8328 88.0899 91.0032C85.581 92.1736 83.5441 94.2944 82.4973 96.8267C87.4782 95.8957 92.3927 93.7176 96.2085 90.4307Z" fill="#5140B2" fill-opacity="0.7"/>
<path d="M101.675 87.1118C100.847 89.5202 101.006 92.4312 102.845 94.507C103.594 92.0358 103.151 89.2416 101.675 87.1118Z" fill="#5140B2" fill-opacity="0.7"/>
<path d="M104.905 85.7739C105.136 88.8706 107.146 91.7794 109.987 93.1258C110.128 93.1927 110.291 93.2568 110.436 93.1985C110.66 93.1086 110.681 92.8074 110.653 92.5708C110.293 89.4852 107.971 86.5012 104.905 85.7739Z" fill="#5140B2" fill-opacity="0.7"/>
<path d="M107.016 85.4611C108.415 86.9496 110.455 87.834 112.515 87.8444C114.574 87.8548 116.624 86.9912 118.038 85.5166C114.535 85.1388 110.492 84.8873 107.016 85.4611Z" fill="#5140B2" fill-opacity="0.7"/>
<path d="M107.54 57.8788C107.542 57.8796 107.531 57.9138 107.508 57.9799C107.482 58.0513 107.447 58.1481 107.401 58.2717C107.302 58.5337 107.16 58.9088 106.979 59.3889C106.79 59.872 106.573 60.4681 106.321 61.1602C106.194 61.5062 106.058 61.8761 105.915 62.268C105.777 62.6622 105.63 63.0789 105.477 63.5159C104.856 65.2628 104.167 67.3602 103.423 69.6948C102.693 72.0338 101.925 74.616 101.17 77.3403C100.425 80.0684 99.7651 82.6797 99.2033 85.0638C98.6574 87.4512 98.1877 89.6065 97.8486 91.4269C97.7614 91.8814 97.6786 92.3144 97.6001 92.7242C97.5291 93.1349 97.4625 93.5225 97.3997 93.885C97.2729 94.6095 97.1641 95.2337 97.091 95.7462C97.012 96.2524 96.9503 96.6481 96.9073 96.9244C96.8857 97.0542 96.8688 97.1555 96.8561 97.2305C96.8438 97.2994 96.8366 97.3343 96.8343 97.3341C96.832 97.3338 96.8348 97.2981 96.8428 97.2287C96.852 97.1532 96.8646 97.0511 96.8808 96.9209C96.9181 96.6438 96.9714 96.2468 97.0398 95.7389C97.1049 95.2249 97.206 94.5991 97.3261 93.8731C97.3856 93.5096 97.4491 93.1212 97.5165 92.7098C97.5921 92.2992 97.6719 91.8655 97.7558 91.41C98.0832 89.586 98.5437 87.4274 99.0834 85.0367C99.6391 82.6496 100.296 80.0355 101.041 77.3059C101.797 74.5798 102.568 71.9971 103.306 69.6586C104.057 67.3244 104.756 65.2292 105.388 63.4852C105.544 63.049 105.694 62.6333 105.835 62.2396C105.982 61.8487 106.121 61.4799 106.251 61.1348C106.509 60.4448 106.734 59.8512 106.93 59.3707C107.122 58.8944 107.272 58.522 107.377 58.2621C107.427 58.1405 107.467 58.0455 107.496 57.9751C107.523 57.9107 107.538 57.878 107.54 57.8788Z" fill="#263238"/>
<path d="M88.2955 67.748C88.2973 67.7465 88.3177 67.7655 88.356 67.804C88.3987 67.8483 88.454 67.9056 88.5235 67.9775C88.6698 68.1308 88.8818 68.3606 89.1465 68.6638C89.6752 69.2695 90.4217 70.1683 91.2094 71.3724C91.9971 72.5729 92.8043 74.1023 93.3664 75.9166C93.9445 77.7256 94.3031 79.7817 94.6601 81.9309C95.3725 86.2329 96.2466 90.0861 96.8794 92.8735C97.1984 94.2602 97.4572 95.3852 97.6383 96.1728C97.7245 96.5561 97.7922 96.8571 97.8403 97.0709C97.8608 97.1682 97.8771 97.2454 97.8897 97.3052C97.9 97.3582 97.9043 97.3855 97.902 97.386C97.8997 97.3865 97.8912 97.3602 97.8763 97.3082C97.8603 97.2492 97.84 97.173 97.814 97.077C97.76 96.8644 97.6841 96.5655 97.5877 96.1845C97.3965 95.3989 97.1236 94.2772 96.7874 92.8942C96.1309 90.1119 95.2413 86.2588 94.5282 81.9524C94.1711 79.8029 93.8169 77.7532 93.2486 75.9526C92.6963 74.1471 91.904 72.6249 91.1297 71.4223C90.3558 70.217 89.6227 69.3118 89.1069 68.6967C88.8489 68.3889 88.6433 68.1541 88.5037 67.995C88.4383 67.9195 88.3864 67.8592 88.3462 67.8129C88.311 67.7716 88.2937 67.7498 88.2955 67.748Z" fill="#263238"/>
<path d="M108.063 85.3146C108.063 85.3192 108.02 85.3268 107.936 85.3374C107.838 85.348 107.718 85.3612 107.574 85.3769C107.493 85.3848 107.406 85.3931 107.312 85.4023C107.215 85.4165 107.112 85.4319 107.002 85.4481C106.78 85.4805 106.526 85.5127 106.25 85.573C106.11 85.6001 105.965 85.6287 105.815 85.6581C105.665 85.6954 105.509 85.7344 105.349 85.7744C105.025 85.8466 104.689 85.9634 104.332 86.0695C103.628 86.3127 102.87 86.6256 102.114 87.0322C101.361 87.4444 100.694 87.9193 100.125 88.3928C99.8485 88.6391 99.582 88.8696 99.3615 89.1143C99.1256 89.3446 98.9345 89.5837 98.7577 89.8003C98.5715 90.0101 98.4418 90.2279 98.3106 90.407C98.1776 90.5856 98.0819 90.7508 98.0045 90.8866C97.9304 91.01 97.8692 91.1118 97.8188 91.1957C97.775 91.2658 97.7498 91.3015 97.7457 91.2998C97.7416 91.2977 97.7586 91.258 97.7949 91.1837C97.8394 91.0963 97.8936 90.9902 97.9592 90.8618C98.0302 90.7212 98.12 90.5509 98.2479 90.367C98.3742 90.1826 98.4997 89.9589 98.6829 89.7433C98.8565 89.5209 99.0456 89.2757 99.2807 89.0393C99.5002 88.7888 99.7667 88.5524 100.044 88.3009C100.615 87.8167 101.288 87.3331 102.049 86.9167C102.813 86.5055 103.581 86.1929 104.294 85.954C104.655 85.8499 104.994 85.7361 105.322 85.668C105.484 85.6303 105.642 85.5935 105.793 85.5583C105.946 85.5315 106.092 85.5056 106.233 85.4808C106.512 85.4258 106.768 85.4 106.993 85.3744C107.104 85.362 107.208 85.3501 107.305 85.3392C107.4 85.3341 107.488 85.3296 107.57 85.3252C107.715 85.3194 107.836 85.3144 107.935 85.3103C108.018 85.3088 108.062 85.3101 108.063 85.3146Z" fill="#263238"/>
<path d="M109.06 67.8306C109.066 67.8375 108.976 67.9226 108.808 68.07C108.618 68.2324 108.376 68.4389 108.087 68.6859C107.474 69.2017 106.622 69.9072 105.675 70.6803C104.728 71.4538 103.866 72.1479 103.238 72.6454C102.938 72.8795 102.686 73.0753 102.489 73.2291C102.311 73.3646 102.21 73.4361 102.204 73.429C102.198 73.4219 102.288 73.3368 102.457 73.1891C102.647 73.0267 102.889 72.82 103.178 72.573C103.791 72.0572 104.643 71.3519 105.59 70.579C106.536 69.8064 107.397 69.1125 108.026 68.6152C108.326 68.3811 108.577 68.1853 108.774 68.0313C108.953 67.8955 109.054 67.8238 109.06 67.8306Z" fill="#263238"/>
<path d="M109.922 72.3948C109.932 72.4297 108.093 72.9957 105.813 73.6589C103.533 74.3223 101.677 74.8315 101.667 74.7966C101.656 74.7616 103.495 74.1957 105.775 73.5322C108.055 72.8692 109.911 72.3598 109.922 72.3948Z" fill="#263238"/>
<path d="M103.129 70.5777C103.121 70.5823 103.054 70.4895 102.939 70.3175C102.809 70.1232 102.647 69.8795 102.454 69.59C102.043 68.9772 101.459 68.1412 100.768 67.251C100.077 66.361 99.4114 65.5861 98.9211 65.0323C98.689 64.7716 98.4941 64.5525 98.3387 64.3777C98.2013 64.2227 98.1285 64.134 98.1352 64.1277C98.1419 64.1213 98.2275 64.1981 98.3768 64.3425C98.5265 64.4864 98.7369 64.7005 98.9916 64.97C99.5012 65.5088 100.181 66.2774 100.875 67.1709C101.568 68.0647 102.142 68.9126 102.534 69.5398C102.73 69.8534 102.883 70.1103 102.983 70.2912C103.085 70.4713 103.137 70.5731 103.129 70.5777Z" fill="#263238"/>
<path d="M96.7403 73.111C96.7562 73.1222 96.5834 73.3844 96.3086 73.8099C96.0336 74.2353 95.6609 74.8268 95.2745 75.4948C94.8886 76.1634 94.5627 76.7812 94.3319 77.2314C94.1009 77.6813 93.9604 77.9615 93.9424 77.9539C93.9265 77.9471 94.0366 77.6532 94.2465 77.1914C94.4562 76.7296 94.7705 76.1016 95.1582 75.4297C95.5464 74.7584 95.9338 74.1717 96.2299 73.7583C96.526 73.3443 96.7264 73.1011 96.7403 73.111Z" fill="#263238"/>
<path d="M94.5543 81.0063C94.5448 81.0242 94.1939 80.8553 93.6195 80.6007C93.0453 80.3458 92.2432 80.0132 91.3369 79.7003C90.4298 79.3882 89.5922 79.1557 88.9817 79.0022C88.3716 78.8481 87.9903 78.7651 87.9942 78.745C87.996 78.7362 88.0932 78.7466 88.2679 78.7732C88.4428 78.799 88.6944 78.8456 89.0034 78.9115C89.6215 79.0422 90.4686 79.2621 91.3809 79.5757C92.2923 79.8906 93.0936 80.2389 93.6596 80.5163C93.9428 80.6549 94.1689 80.7727 94.3223 80.8601C94.4761 80.9465 94.5587 80.9982 94.5543 81.0063Z" fill="#263238"/>
<path d="M96.2752 90.4451C96.2762 90.4497 96.2371 90.4624 96.1617 90.4829C96.0707 90.5057 95.9616 90.533 95.8307 90.566C95.5204 90.6364 95.1075 90.7304 94.6069 90.8441C93.5754 91.0802 92.1386 91.3751 90.6108 91.8828C89.0827 92.395 87.7716 93.0466 86.8825 93.6077C86.4369 93.8871 86.0896 94.1341 85.8553 94.312C85.6202 94.4888 85.4918 94.5896 85.4848 94.5818C85.4818 94.5782 85.5103 94.5488 85.5672 94.4961C85.625 94.4445 85.7076 94.3647 85.8226 94.2719C86.0477 94.0809 86.3888 93.821 86.8308 93.5297C87.7131 92.9442 89.0295 92.2737 90.5673 91.7581C92.1075 91.2467 93.5499 90.966 94.5871 90.7532C95.0913 90.6562 95.5073 90.5761 95.8196 90.5161C96.1111 90.4621 96.2731 90.436 96.2752 90.4451Z" fill="#263238"/>
<path d="M102.498 92.7714C102.461 92.7767 102.242 91.506 102.008 89.9336C101.775 88.3607 101.615 87.0816 101.652 87.0763C101.688 87.071 101.907 88.3414 102.141 89.9144C102.375 91.4868 102.534 92.7661 102.498 92.7714Z" fill="#263238"/>
<path d="M108.976 90.455C108.961 90.4664 108.743 90.2014 108.393 89.7723C108.043 89.3431 107.557 88.7516 107.009 88.1089C106.46 87.4662 105.952 86.8937 105.583 86.48C105.214 86.0663 104.987 85.8092 105.001 85.7963C105.007 85.7899 105.073 85.8462 105.186 85.9528C105.3 86.0595 105.459 86.2178 105.653 86.4172C106.04 86.8154 106.561 87.3796 107.111 88.0243C107.661 88.6688 108.136 89.2712 108.468 89.7158C108.633 89.9379 108.764 90.1201 108.852 90.2485C108.939 90.3762 108.984 90.4494 108.976 90.455Z" fill="#263238"/>
<path d="M91.8315 96.3719V99.5244H92.6319L95.4773 108.369H101.788L104.544 99.612L105.611 99.5244V96.3719H91.8315Z" fill="#455A64"/>
<path d="M105.078 99.6124C105.078 99.649 102.291 99.6785 98.855 99.6785C95.4173 99.6785 92.6316 99.6488 92.6316 99.6124C92.6316 99.576 95.4173 99.5463 98.855 99.5463C102.291 99.546 105.078 99.5758 105.078 99.6124Z" fill="#263238"/>
<path d="M109.616 79.3343C109.618 79.3431 109.474 79.3811 109.212 79.4419C108.927 79.5093 108.554 79.598 108.104 79.7049C107.17 79.9326 105.889 80.2782 104.498 80.738C103.108 81.1993 101.874 81.6867 100.991 82.0609C100.566 82.2438 100.215 82.395 99.9466 82.5105C99.7007 82.6179 99.5626 82.6737 99.5584 82.6653C99.5543 82.6572 99.6848 82.586 99.9243 82.4642C100.163 82.3413 100.514 82.1736 100.952 81.9755C101.828 81.5788 103.06 81.0757 104.455 80.6128C105.851 80.1515 107.141 79.8189 108.082 79.614C108.553 79.5111 108.935 79.4359 109.201 79.3915C109.467 79.3462 109.614 79.3254 109.616 79.3343Z" fill="#263238"/>
<path d="M102.983 104.524C102.983 104.56 101.028 104.59 98.617 104.59C96.2053 104.59 94.2507 104.56 94.2507 104.524C94.2507 104.487 96.2051 104.458 98.617 104.458C101.028 104.458 102.983 104.487 102.983 104.524Z" fill="#FAFAFA"/>
<path d="M103.228 103.793C103.228 103.829 101.157 103.859 98.6015 103.859C96.0457 103.859 93.9744 103.829 93.9744 103.793C93.9744 103.756 96.0455 103.726 98.6015 103.726C101.157 103.726 103.228 103.756 103.228 103.793Z" fill="#FAFAFA"/>
<path d="M64.6435 100.326L64.226 105.527C64.226 105.527 59.0079 107.178 58.9775 108.141L69.1852 108.273L69.487 100.315L64.6435 100.326Z" fill="#5140B2" fill-opacity="0.7"/>
<path d="M67.3712 104.997C67.5706 105.045 67.7139 105.259 67.674 105.457C67.6341 105.656 67.4134 105.801 67.2133 105.757C67.0132 105.713 66.8331 105.461 66.8953 105.268C66.9573 105.075 67.2259 104.919 67.4096 105.009" fill="#EBEBEB"/>
<path d="M69.185 108.273L69.1645 107.466L59.4973 107.525C59.4973 107.525 58.9429 107.85 58.9578 108.163L69.185 108.273Z" fill="#EBEBEB"/>
<path d="M64.0587 105.481C64.0618 105.53 64.3118 105.545 64.5621 105.695C64.8166 105.839 64.9496 106.048 64.9948 106.027C65.0406 106.017 64.9573 105.725 64.6509 105.548C64.3463 105.368 64.0466 105.436 64.0587 105.481Z" fill="#263238"/>
<path d="M63.0006 105.948C62.9905 105.996 63.2092 106.074 63.3849 106.276C63.5668 106.474 63.6164 106.697 63.6658 106.694C63.7129 106.7 63.7386 106.411 63.5153 106.163C63.2944 105.914 63.0001 105.902 63.0006 105.948Z" fill="#263238"/>
<path d="M62.4306 107.23C62.4761 107.239 62.5381 106.991 62.4018 106.726C62.2672 106.46 62.0288 106.361 62.009 106.402C61.9819 106.443 62.1378 106.583 62.2464 106.803C62.3603 107.02 62.3809 107.226 62.4306 107.23Z" fill="#263238"/>
<path d="M64.1121 104.293C64.1342 104.337 64.3611 104.262 64.6436 104.273C64.9263 104.278 65.1485 104.365 65.1732 104.322C65.201 104.285 64.9813 104.109 64.6484 104.101C64.3156 104.091 64.0863 104.255 64.1121 104.293Z" fill="#263238"/>
<path d="M64.062 103.247C64.062 103.267 64.2601 103.291 64.5737 103.229C64.7296 103.197 64.9127 103.141 65.1039 103.051C65.1993 103.006 65.2968 102.952 65.393 102.889C65.4393 102.858 65.4941 102.826 65.544 102.766C65.5978 102.713 65.6251 102.581 65.559 102.504C65.5042 102.428 65.4108 102.397 65.337 102.398C65.2616 102.397 65.2011 102.414 65.1458 102.429C65.0329 102.46 64.9274 102.5 64.8309 102.546C64.6385 102.64 64.4831 102.755 64.3684 102.865C64.1379 103.089 64.0628 103.274 64.08 103.283C64.1032 103.299 64.2138 103.142 64.4494 102.956C64.567 102.864 64.7178 102.767 64.8981 102.689C64.9884 102.651 65.0859 102.617 65.189 102.591C65.2963 102.56 65.3884 102.557 65.4177 102.603C65.4283 102.621 65.4298 102.628 65.4082 102.66C65.3856 102.689 65.3426 102.719 65.2973 102.75C65.2088 102.811 65.1193 102.864 65.0316 102.91C64.8562 103.002 64.6874 103.067 64.5428 103.111C64.2524 103.201 64.0602 103.22 64.062 103.247Z" fill="#263238"/>
<path d="M64.1289 103.315C64.1469 103.322 64.2403 103.143 64.249 102.825C64.2526 102.667 64.2302 102.476 64.1623 102.275C64.1278 102.175 64.0821 102.073 64.0226 101.973C63.9596 101.876 63.8827 101.745 63.6885 101.729C63.5871 101.728 63.5056 101.808 63.4791 101.875C63.4474 101.944 63.4425 102.003 63.4322 102.062C63.4171 102.18 63.4227 102.295 63.4423 102.401C63.4809 102.614 63.5755 102.79 63.6766 102.915C63.8842 103.17 64.0941 103.222 64.0977 103.206C64.1137 103.181 63.937 103.091 63.7764 102.845C63.6975 102.724 63.6254 102.563 63.6002 102.376C63.5874 102.283 63.5858 102.185 63.6007 102.085C63.6133 101.978 63.6514 101.89 63.6926 101.9C63.7433 101.897 63.8323 101.976 63.8765 102.059C63.9318 102.148 63.9763 102.239 64.0116 102.329C64.081 102.509 64.1145 102.682 64.126 102.828C64.1492 103.123 64.1013 103.309 64.1289 103.315Z" fill="#263238"/>
<path d="M86.7155 99.4603L87.8953 105.534L90.235 110.073C90.4037 110.4 90.2558 110.8 89.9129 110.943C89.7207 111.024 89.5031 111.008 89.3256 110.9C88.1955 110.214 84.0507 107.669 83.9897 107.22C83.919 106.699 82.3135 100.894 82.3135 100.894L86.7155 99.4603Z" fill="#5140B2" fill-opacity="0.7"/>
<path d="M89.9128 110.943L83.9004 106.811L83.9565 107.068C84.0048 107.289 84.1304 107.487 84.313 107.625C84.8013 107.993 86.1724 108.982 89.307 110.904C89.4892 111.016 89.7176 111.031 89.9128 110.943Z" fill="#EBEBEB"/>
<path d="M84.7391 105.029C84.9158 105.101 85.0161 105.319 84.95 105.496C84.8842 105.673 84.6593 105.775 84.4813 105.706C84.3033 105.637 84.1747 105.378 84.2603 105.21C84.346 105.042 84.6164 104.936 84.7723 105.045" fill="#EBEBEB"/>
<path d="M87.9324 108.599C87.9707 108.608 88.0402 108.262 88.3679 108.015C88.6882 107.757 89.046 107.771 89.0455 107.732C89.0476 107.716 88.9596 107.685 88.8117 107.696C88.6648 107.705 88.4615 107.769 88.2822 107.908C88.1037 108.048 87.9936 108.228 87.9504 108.366C87.9064 108.506 87.9162 108.597 87.9324 108.599Z" fill="#263238"/>
<path d="M88.5469 109.316C88.5818 109.336 88.7359 109.097 89.0338 108.94C89.3284 108.777 89.615 108.777 89.6168 108.737C89.6278 108.702 89.3042 108.637 88.9675 108.821C88.6287 109.002 88.5114 109.306 88.5469 109.316Z" fill="#263238"/>
<path d="M86.8918 107.734C86.9268 107.756 87.1619 107.389 87.6036 107.105C88.0409 106.814 88.4762 106.743 88.4684 106.703C88.4713 106.668 87.9969 106.681 87.5272 106.992C87.0546 107.297 86.8586 107.723 86.8918 107.734Z" fill="#263238"/>
<path d="M86.3765 105.917C86.4007 105.949 86.7094 105.738 87.1475 105.629C87.5841 105.514 87.9581 105.55 87.963 105.51C87.9735 105.476 87.582 105.375 87.1128 105.498C86.6423 105.616 86.3511 105.893 86.3765 105.917Z" fill="#263238"/>
<path d="M85.9845 104.142C86.0113 104.173 86.3081 103.9 86.7789 103.822C87.2479 103.733 87.6229 103.889 87.6371 103.85C87.6443 103.836 87.5607 103.774 87.4017 103.724C87.2437 103.673 87.0078 103.644 86.7547 103.688C86.5018 103.733 86.2909 103.841 86.1607 103.943C86.029 104.045 85.9724 104.131 85.9845 104.142Z" fill="#263238"/>
<path d="M86.694 103.486C86.7017 103.485 86.6979 103.4 86.6523 103.256C86.6068 103.112 86.5165 102.906 86.3369 102.696C86.2461 102.597 86.1455 102.468 85.9567 102.424C85.8628 102.402 85.7391 102.445 85.6838 102.54C85.6285 102.633 85.6274 102.738 85.6462 102.834C85.7365 103.216 86.152 103.517 86.6024 103.479C87.0529 103.433 87.3976 103.101 87.4994 102.733C87.519 102.639 87.5223 102.528 87.4524 102.436C87.3832 102.343 87.2494 102.329 87.1648 102.362C86.9883 102.427 86.896 102.555 86.8057 102.655C86.6307 102.867 86.5384 103.071 86.4892 103.213C86.4401 103.356 86.4326 103.44 86.4406 103.442C86.4656 103.453 86.5309 103.112 86.88 102.717C86.9695 102.624 87.0709 102.509 87.1995 102.47C87.262 102.45 87.3227 102.463 87.3564 102.509C87.3906 102.553 87.3942 102.631 87.3757 102.706C87.2877 103.008 86.9718 103.311 86.5906 103.343C86.2114 103.379 85.8464 103.114 85.771 102.807C85.754 102.733 85.7576 102.654 85.7882 102.601C85.8186 102.55 85.8765 102.525 85.9379 102.535C86.0679 102.557 86.1756 102.668 86.2641 102.759C86.6194 103.149 86.668 103.498 86.694 103.486Z" fill="#263238"/>
<path d="M64.5737 52.5329C64.5086 52.5306 63.7263 103.49 63.7263 103.49L69.9793 103.277L72.1435 78.2237L72.6634 59.8318L76.9183 76.8421L82.2249 103.54L88.4694 101.997L80.5219 52.2012L73.0398 50.7758L64.5737 52.5329Z" fill="#263238"/>
<path d="M78.1651 21.0494C78.9132 19.5935 79.1494 16.9812 78.2909 15.5336C77.4325 14.0861 75.6966 13.0422 74.0643 12.5661C73.7916 12.4866 73.496 12.4245 73.2262 12.5135C72.9563 12.6024 72.7374 12.895 72.8295 13.1599C72.5121 12.9299 72.1869 12.6958 71.8103 12.5803C71.4339 12.4648 70.9902 12.4879 70.6874 12.7364C70.3846 12.9852 70.3007 13.4916 70.5799 13.7657C70.1299 13.5645 69.5624 13.6517 69.1961 13.9785C68.8298 14.3052 68.6857 14.8527 68.8445 15.3135C68.9965 15.7548 69.3535 16.2617 69.6769 16.6019C70.0003 16.9422 70.0324 17.2722 69.9393 17.7293" fill="#263238"/>
<path d="M71.9998 33.0332C72.0453 32.3352 72.1598 26.0167 72.1588 25.9878C72.1588 25.9878 69.7772 25.6975 69.674 23.3646C69.6244 22.2378 69.7136 19.9089 69.8194 17.8025C69.9331 15.5382 71.794 13.7404 74.0949 13.6699L74.3236 13.6628C76.7937 13.7292 78.1164 15.8321 77.9806 18.2618L77.6426 31.782" fill="#FFBE9D"/>
<path d="M72.159 25.9879C72.159 25.9879 73.6555 26.0284 75.2162 24.9951C75.2162 24.9951 74.5046 26.4548 72.1333 26.3172L72.159 25.9879Z" fill="#EB996E"/>
<path d="M70.2175 19.3789C70.2168 19.5553 70.3675 19.7009 70.5545 19.7052C70.741 19.7093 70.8931 19.5702 70.8938 19.3939C70.8946 19.2178 70.7439 19.0717 70.5574 19.0673C70.3704 19.0633 70.218 19.2026 70.2175 19.3789Z" fill="#263238"/>
<path d="M70.365 18.9301C70.4083 18.9721 70.6588 18.7775 71.0231 18.7674C71.3866 18.7522 71.6598 18.9283 71.6979 18.8832C71.7166 18.8632 71.6714 18.7859 71.5525 18.7061C71.4352 18.6266 71.2374 18.5516 71.0105 18.5597C70.7836 18.5678 70.5955 18.6559 70.4885 18.7436C70.3792 18.8313 70.3437 18.9111 70.365 18.9301Z" fill="#263238"/>
<path d="M73.8672 19.4308C73.8664 19.6069 74.0174 19.7528 74.2042 19.7571C74.3907 19.7612 74.5427 19.6221 74.5435 19.446C74.5443 19.27 74.3935 19.1238 74.2067 19.1195C74.0202 19.1152 73.868 19.2545 73.8672 19.4308Z" fill="#263238"/>
<path d="M73.9472 18.8873C73.9907 18.9296 74.2415 18.7348 74.6052 18.7246C74.9687 18.7092 75.2419 18.8855 75.2803 18.8404C75.299 18.8204 75.2543 18.7434 75.1347 18.6633C75.0176 18.5838 74.8195 18.509 74.5929 18.5166C74.366 18.525 74.1779 18.6129 74.0707 18.7006C73.9616 18.7887 73.9261 18.8685 73.9472 18.8873Z" fill="#263238"/>
<path d="M72.709 21.5875C72.71 21.567 72.4824 21.5353 72.1142 21.5006C72.0209 21.494 71.9324 21.4786 71.9146 21.4165C71.8907 21.3511 71.9265 21.2511 71.9681 21.1432C72.0486 20.919 72.1328 20.6839 72.2213 20.4374C72.5719 19.4329 72.8225 18.6081 72.7813 18.5944C72.7401 18.5807 72.4224 19.384 72.0721 20.3887C71.9879 20.6362 71.9072 20.8724 71.8308 21.0983C71.7989 21.2035 71.742 21.3233 71.794 21.4593C71.8212 21.527 71.891 21.5746 71.9512 21.5885C72.0113 21.6045 72.0638 21.604 72.1099 21.6052C72.4793 21.6131 72.7082 21.6078 72.709 21.5875Z" fill="#263238"/>
<path d="M73.789 21.8026C73.7295 21.801 73.7411 22.1902 73.4116 22.4769C73.0826 22.7644 72.6599 22.7338 72.6584 22.7883C72.6537 22.8128 72.7546 22.861 72.9326 22.8602C73.1073 22.8607 73.3604 22.7976 73.5621 22.6223C73.763 22.4465 73.8448 22.2178 73.8533 22.0577C73.8631 21.8945 73.816 21.7995 73.789 21.8026Z" fill="#263238"/>
<path d="M73.8085 17.4846C73.8476 17.5812 74.2098 17.5236 74.6384 17.5614C75.068 17.5905 75.4165 17.7033 75.4703 17.6141C75.4942 17.5715 75.4312 17.4816 75.2889 17.3914C75.148 17.3015 74.9247 17.2186 74.6674 17.1984C74.4102 17.1786 74.1763 17.226 74.0228 17.2931C73.8682 17.36 73.7915 17.439 73.8085 17.4846Z" fill="#263238"/>
<path d="M70.4663 17.888C70.5329 17.9675 70.7811 17.8753 71.0826 17.8619C71.3836 17.8383 71.6414 17.8996 71.6977 17.8125C71.7222 17.7704 71.6795 17.6899 71.5652 17.6164C71.4528 17.5429 71.2668 17.4857 71.0598 17.4983C70.8527 17.5113 70.6754 17.5906 70.573 17.6772C70.4691 17.7643 70.4367 17.8492 70.4663 17.888Z" fill="#263238"/>
<path d="M77.8421 19.9962C77.882 19.9777 79.4553 19.4721 79.454 21.0691C79.4527 22.6661 77.8248 22.3355 77.822 22.2896C77.8192 22.2438 77.8421 19.9962 77.8421 19.9962Z" fill="#FFBE9D"/>
<path d="M78.3179 21.685C78.3251 21.6799 78.3462 21.7045 78.3938 21.726C78.4404 21.747 78.5204 21.7615 78.605 21.7306C78.7764 21.6688 78.9209 21.401 78.9289 21.1132C78.9333 20.9678 78.9024 20.8295 78.8502 20.7147C78.8008 20.5979 78.7241 20.5161 78.638 20.5009C78.5523 20.4814 78.4911 20.5321 78.4713 20.5769C78.4494 20.6215 78.4597 20.6534 78.4512 20.6562C78.4466 20.6603 78.4165 20.6294 78.4296 20.5635C78.4363 20.5318 78.4553 20.4941 78.4934 20.4634C78.5322 20.4323 78.5896 20.4166 78.6495 20.4229C78.7745 20.4315 78.887 20.545 78.9443 20.6706C79.0086 20.7971 79.0467 20.9526 79.0418 21.116C79.031 21.4377 78.8636 21.7387 78.6292 21.8053C78.5152 21.8344 78.4201 21.8005 78.3709 21.7628C78.3208 21.7235 78.3123 21.6878 78.3179 21.685Z" fill="#EB996E"/>
<path d="M68.7858 14.7862C68.5962 16.8569 71.1859 17.7212 72.3224 16.5635C72.848 16.0282 73.3067 15.3589 74.0221 15.1178C74.5036 14.9554 75.0472 15.0423 75.5002 15.271C75.5049 15.2733 75.5092 15.2756 75.5139 15.2779C76.1817 15.6199 76.5766 16.3819 76.68 17.116C76.8243 18.1397 76.6579 19.0426 76.9277 19.9827C76.9666 20.1177 77.0123 20.2631 77.1278 20.345C77.3241 20.4843 77.6074 20.3619 77.7692 20.1849C78.028 19.9011 78.1196 19.5085 78.1759 19.131C78.3045 18.2715 78.2983 17.3848 78.0787 16.5435C77.8587 15.7022 77.417 14.9067 76.7605 14.3264C75.9401 13.6008 74.8113 13.2462 73.71 13.2966C72.6087 13.347 71.5414 13.7875 70.6825 14.4682C70.284 14.7841 69.9197 15.1624 69.7232 15.6275" fill="#263238"/>
<path d="M70.5025 13.6474C70.503 13.6428 70.422 13.6281 70.2782 13.6567C70.1357 13.6841 69.9325 13.77 69.7424 13.9506C69.5548 14.1297 69.382 14.4086 69.34 14.7549C69.2978 15.1012 69.4149 15.4878 69.65 15.8072C69.8864 16.1275 70.2082 16.3544 70.5275 16.4811C70.8467 16.6113 71.1557 16.6582 71.4122 16.6744C71.6697 16.6883 71.8773 16.6734 72.0193 16.6562C72.1613 16.6387 72.2385 16.6197 72.2374 16.6121C72.2359 16.5895 71.9205 16.6346 71.4194 16.588C71.1704 16.5612 70.874 16.5067 70.5725 16.377C70.2715 16.2511 69.9726 16.035 69.7508 15.7353C69.5312 15.4369 69.4216 15.0815 69.454 14.7666C69.4859 14.4507 69.6377 14.1862 69.8051 14.0114C69.9749 13.8353 70.1586 13.7429 70.2906 13.7028C70.4236 13.6618 70.5033 13.6595 70.5025 13.6474Z" fill="#455A64"/>
<path d="M71.5882 12.9159C71.5887 12.9099 71.5288 12.8982 71.4336 12.9428C71.3415 12.9871 71.2234 13.1006 71.1807 13.2838C71.138 13.4677 71.1949 13.6901 71.3042 13.8951C71.4138 14.1003 71.5594 14.3136 71.7482 14.5061C72.1236 14.8962 72.572 15.1267 72.9079 15.2301C73.2454 15.339 73.468 15.3355 73.4685 15.3241C73.4723 15.3023 73.2567 15.2749 72.9375 15.1485C72.6188 15.0277 72.1974 14.7949 71.8383 14.4217C71.6574 14.2376 71.5154 14.0352 71.4053 13.8424C71.2962 13.6509 71.2409 13.4571 71.2667 13.3002C71.2926 13.1429 71.3842 13.0345 71.4578 12.9841C71.5345 12.9324 71.59 12.9261 71.5882 12.9159Z" fill="#455A64"/>
<path d="M57.4662 33.5993L46.3134 32.5571L44.5476 32.1397C44.5476 32.1397 40.5145 31.4293 40.1355 31.3125C39.698 31.1775 39.5266 31.3528 39.4873 31.515C39.4255 31.7678 39.6797 32.0383 40.0517 32.1655C40.1803 32.2096 42.2362 32.8229 42.2362 32.8229C42.2362 32.8229 42.0374 32.8632 41.5589 33.044C41.0804 33.2249 40.639 33.859 40.4347 34.5861C40.2302 35.3131 40.2382 35.5345 40.5214 35.6257C40.6351 35.6625 40.7468 35.6275 40.842 35.5692C40.9976 35.4742 41.1072 35.3187 41.1584 35.1457C41.5021 33.9859 42.226 33.8674 42.226 33.8674L42.457 33.9221C42.457 33.9221 41.7269 34.467 41.7647 35.0909C41.7709 35.1928 41.7969 35.2799 41.8336 35.3564C41.7398 35.6637 41.8146 36.0166 42.0302 36.2578C42.2545 36.5086 42.6208 36.6276 42.9527 36.5577C43.1114 36.5243 43.2804 36.4247 43.2971 36.2659C43.3059 36.182 43.2696 36.1007 43.2359 36.0232C43.2182 35.9824 43.2014 35.9399 43.1914 35.8968L43.8603 35.9606C43.8603 35.9606 45.3706 36.0247 46.0248 36.1261L56.5373 38.8055C57.9949 39.1769 59.4784 38.2994 59.8298 36.8577C60.2124 35.2898 59.0964 33.7516 57.4662 33.5993Z" fill="#FFBE9D"/>
<path d="M46.0672 32.8456C46.0589 33.0754 45.8328 33.2441 45.6064 33.2998C45.38 33.3558 45.1411 33.3343 44.9111 33.3741C44.2234 33.4926 43.7107 34.1325 43.0182 34.2184C42.9218 34.2303 42.7988 34.2154 42.7664 34.1249C42.7363 34.0411 42.8075 33.958 42.8726 33.8967C43.4296 33.372 43.9865 32.8476 44.5437 32.323" fill="#FFBE9D"/>
<path d="M44.5438 32.323C44.5376 32.3165 44.4672 32.3709 44.3455 32.475C44.2235 32.5789 44.0504 32.7324 43.8382 32.9242C43.6187 33.1251 43.3697 33.3533 43.0976 33.6024C43.0281 33.667 42.9571 33.7326 42.8848 33.7997C42.8223 33.8673 42.7099 33.9284 42.6952 34.0855C42.6916 34.1642 42.7554 34.239 42.8213 34.2615C42.8861 34.2874 42.9483 34.2891 43.0091 34.2846C43.1233 34.2694 43.2331 34.2458 43.3407 34.2065C43.7715 34.05 44.0972 33.7772 44.4286 33.6095C44.5927 33.5231 44.7566 33.4585 44.9163 33.4286C45.0758 33.3984 45.2338 33.3974 45.3794 33.3815C45.6747 33.363 45.9093 33.229 46.0009 33.0881C46.0981 32.946 46.0719 32.8424 46.0678 32.8462C46.0546 32.8434 46.0598 32.9399 45.9602 33.0572C45.8622 33.1755 45.6551 33.2824 45.3714 33.29C45.2307 33.2999 45.0714 33.2951 44.897 33.3227C44.7226 33.3503 44.5451 33.4162 44.3725 33.5033C44.0252 33.6735 43.6954 33.9411 43.2964 34.0844C43.1979 34.1212 43.0947 34.1425 42.9972 34.1561C42.9018 34.1665 42.8182 34.1356 42.8249 34.085C42.8236 34.0287 42.9002 33.9563 42.9723 33.8896C43.0435 33.8215 43.1135 33.7546 43.1819 33.689C43.4469 33.4326 43.6895 33.1975 43.903 32.9906C44.107 32.7904 44.2704 32.6268 44.3812 32.5115C44.4916 32.3965 44.55 32.3296 44.5438 32.323Z" fill="#EB996E"/>
<path d="M42.4767 33.8982C42.4751 33.9152 42.3025 33.8324 42.0401 33.9094C41.9117 33.9476 41.7757 34.0391 41.6702 34.1812C41.5627 34.322 41.485 34.5044 41.4176 34.7023C41.3491 34.9001 41.2843 35.095 41.1866 35.2568C41.0891 35.4174 40.9684 35.5456 40.8372 35.6148C40.7052 35.6872 40.5697 35.6708 40.4982 35.6356C40.4243 35.6003 40.3955 35.5654 40.3978 35.5629C40.4025 35.556 40.4385 35.5816 40.51 35.6049C40.5807 35.6277 40.6944 35.6328 40.8079 35.5631C40.9208 35.4957 41.0307 35.3716 41.1186 35.2183C41.2071 35.064 41.2684 34.8748 41.3371 34.6749C41.4052 34.4751 41.4886 34.2833 41.6079 34.1343C41.7245 33.9836 41.8814 33.8861 42.0234 33.8526C42.1654 33.8167 42.2858 33.8306 42.3627 33.8498C42.4407 33.8699 42.4785 33.8939 42.4767 33.8982Z" fill="#EB996E"/>
<path d="M39.909 32.1142C39.9134 32.1031 40.0685 32.1527 40.3186 32.2335C40.5972 32.3225 40.9295 32.4281 41.2966 32.5451C41.6655 32.6569 41.9994 32.7577 42.2793 32.8425C42.5312 32.9175 42.6871 32.9647 42.6842 32.9761C42.6817 32.9869 42.5204 32.9601 42.2636 32.8995C42.0069 32.8393 41.6552 32.7443 41.2709 32.6249C40.8871 32.5056 40.5434 32.3848 40.298 32.289C40.0526 32.1938 39.9049 32.1246 39.909 32.1142Z" fill="#EB996E"/>
<path d="M42.7939 34.4957C42.7985 34.5003 42.7653 34.535 42.7105 34.5988C42.6596 34.6606 42.5755 34.766 42.5973 34.9046C42.6074 34.9717 42.6573 35.029 42.7347 35.0614C42.8103 35.0959 42.904 35.1065 43.0058 35.1237C43.1051 35.1404 43.2286 35.1703 43.3117 35.2702C43.3909 35.3684 43.4123 35.5047 43.3765 35.6276C43.3403 35.7535 43.243 35.848 43.1375 35.9009C43.0305 35.9536 42.9166 35.9764 42.8052 35.9625C42.5955 35.9296 42.4242 35.8597 42.283 35.7933C42.143 35.7246 42.0386 35.6507 41.9779 35.5871C41.9171 35.523 41.9004 35.4759 41.904 35.4743C41.9107 35.4703 41.9364 35.5098 42.0005 35.5633C42.0648 35.6165 42.1695 35.6798 42.3082 35.7396C42.4463 35.7968 42.6207 35.8599 42.8142 35.8857C42.994 35.9045 43.2343 35.8062 43.2945 35.6043C43.3238 35.5055 43.3053 35.3948 43.2464 35.3213C43.1869 35.2474 43.0881 35.2175 42.9912 35.1995C42.8939 35.1805 42.7928 35.1673 42.7043 35.124C42.6153 35.0857 42.5448 34.9996 42.5379 34.9135C42.5217 34.7399 42.6284 34.6333 42.6866 34.5768C42.7504 34.5178 42.7902 34.4919 42.7939 34.4957Z" fill="#EB996E"/>
<path d="M43.0859 35.8487C43.0864 35.8446 43.1335 35.8469 43.198 35.8953C43.26 35.9422 43.3385 36.0455 43.3344 36.1942C43.3303 36.3396 43.2297 36.5068 43.0558 36.5937C42.8829 36.6816 42.6606 36.6885 42.4538 36.6254C42.2457 36.5615 42.0728 36.4336 41.9612 36.2847C41.8475 36.1357 41.7973 35.971 41.7819 35.8342C41.7664 35.6962 41.7847 35.5842 41.805 35.5107C41.8261 35.4368 41.8475 35.3998 41.8521 35.4016C41.8686 35.4046 41.7994 35.5662 41.8416 35.8261C41.8634 35.9538 41.9162 36.104 42.0237 36.2378C42.1292 36.3718 42.2894 36.4871 42.4793 36.5453C42.6684 36.6031 42.8698 36.5978 43.0211 36.5248C43.1728 36.4536 43.2644 36.3128 43.2747 36.1902C43.2858 36.066 43.2261 35.9685 43.1764 35.9196C43.1247 35.8689 43.0831 35.8555 43.0859 35.8487Z" fill="#EB996E"/>
<path d="M44.8967 34.8791C44.8892 34.8773 44.8972 34.8 44.9605 34.687C45.0222 34.5758 45.1496 34.4291 45.352 34.3461L45.3507 34.42C45.2676 34.3848 45.1794 34.3417 45.0917 34.2916C44.6008 34.0124 44.348 33.6208 44.3678 33.6127C44.3871 33.5954 44.6618 33.9511 45.1346 34.2191C45.2195 34.2678 45.3042 34.3106 45.3839 34.3466L45.4719 34.3866L45.3824 34.4208C45.199 34.4907 45.0739 34.6166 45.0042 34.7141C44.9327 34.8124 44.9072 34.8826 44.8967 34.8791Z" fill="#EB996E"/>
<path d="M41.395 33.8455C41.4107 33.8295 41.5329 33.9524 41.5537 34.1535C41.5766 34.3544 41.4835 34.5004 41.4647 34.4877C41.4418 34.4781 41.4899 34.3372 41.4691 34.1624C41.4518 33.9876 41.3747 33.8597 41.395 33.8455Z" fill="#EB996E"/>
<path d="M57.6663 38.9684L64.9403 37.315C64.9403 37.315 64.5639 50.4476 64.5652 50.5717C64.5665 50.6961 63.9648 50.9023 64.0163 51.8553L64.539 52.989L80.4895 53.1997L80.9199 40.4454L82.3754 30.5556L79.0294 28.5168L77.8517 26.9432L73.251 31.7222L72.107 27.6441L72.1397 26.4304L71.0024 27.6459L64.868 29.388L56.7634 33.1094L51.2837 32.697L49.8611 37.4183L57.6663 38.9684Z" fill="#5140B2" fill-opacity="0.7"/>
<path d="M72.6155 30.2537C72.6276 30.2684 72.4118 30.3183 72.2862 30.6154C72.2227 30.7598 72.1895 30.946 72.1862 31.1672C72.1759 31.3858 72.1905 31.6485 72.0776 31.9183L72.0228 32.0495L71.9652 31.9188C71.8124 31.5715 71.7077 31.1748 71.6056 30.7568C71.4116 29.936 71.2876 29.1849 71.2048 28.6402C71.1232 28.0953 71.0903 27.7561 71.1083 27.7533C71.1268 27.7505 71.1929 28.0847 71.2981 28.6245C71.4046 29.1639 71.5433 29.9114 71.736 30.7264C71.8366 31.1403 71.9384 31.5368 72.0774 31.8689L71.9649 31.8694C72.0689 31.6369 72.0658 31.3838 72.0833 31.1619C72.0946 30.9382 72.1401 30.7335 72.2186 30.5845C72.2947 30.433 72.4002 30.338 72.4815 30.2955C72.5633 30.2516 72.6145 30.2489 72.6155 30.2537Z" fill="#263238"/>
<path d="M78.5203 28.2504C78.5272 28.2562 78.4717 28.3342 78.3646 28.4705C78.2579 28.6066 78.0997 28.8009 77.9024 29.039C77.5075 29.5153 76.9549 30.1673 76.3383 30.8822C75.9864 31.2865 75.6532 31.6693 75.3561 32.0105L75.28 32.0979L75.2519 31.987C75.1125 31.4368 74.9991 30.9711 74.9232 30.6448C74.8923 30.4812 74.7994 30.3875 74.7096 30.3857C74.6235 30.3778 74.5913 30.4275 74.5862 30.4207C74.5797 30.4227 74.6039 30.3535 74.7109 30.3482C74.7606 30.3469 74.8267 30.3634 74.8802 30.4166C74.9332 30.4678 74.9674 30.5443 74.9926 30.6261C75.0893 30.9499 75.2185 31.4094 75.3687 31.9573L75.2645 31.9338C75.5586 31.5898 75.8878 31.2045 76.2362 30.7968C76.8528 30.082 77.4167 29.4395 77.8301 28.9787C78.0367 28.7482 78.2059 28.5632 78.325 28.4373C78.4441 28.3112 78.5133 28.2443 78.5203 28.2504Z" fill="#263238"/>
<path d="M71.7357 49.2265C71.7311 49.2265 71.7267 49.1679 71.7226 49.0565C71.7198 48.9316 71.7159 48.7697 71.7115 48.5691C71.7035 48.1457 71.7033 47.5332 71.7126 46.7763C71.7303 45.2624 71.8034 43.1711 71.9775 40.8668C72.1532 38.562 72.3971 36.483 72.608 34.9835C72.7132 34.2337 72.8061 33.628 72.8779 33.2105C72.9126 33.0126 72.9409 32.8533 72.9625 32.7301C72.9834 32.6207 72.9965 32.5635 73.0011 32.564C73.0057 32.5647 73.0014 32.6232 72.9893 32.734C72.9739 32.8581 72.954 33.0184 72.9296 33.2178C72.8738 33.6533 72.7966 34.2567 72.7022 34.9954C72.5154 36.4969 72.2867 38.5747 72.1113 40.8767C71.9374 43.178 71.8494 45.2659 71.8075 46.778C71.7895 47.5223 71.7746 48.1303 71.764 48.5691C71.7583 48.7697 71.7537 48.9313 71.7501 49.0562C71.745 49.1679 71.7403 49.2265 71.7357 49.2265Z" fill="#263238"/>
<path d="M70.4367 52.3042C70.4002 52.311 70.2973 51.8054 70.3176 51.1771C70.3361 50.5502 70.4164 50.0501 70.4501 50.0526C70.4899 50.0554 70.4696 50.5613 70.4513 51.1802C70.4315 51.7988 70.4732 52.2984 70.4367 52.3042Z" fill="#263238"/>
<path d="M76.9719 48.618C76.9747 48.6266 76.8284 48.6806 76.5613 48.7705C76.2946 48.8617 75.9048 48.9823 75.4199 49.1211C74.4509 49.3998 73.0954 49.7339 71.5779 50.0001C70.0593 50.2649 68.6699 50.411 67.6628 50.4784C67.1591 50.5124 66.7511 50.5314 66.4687 50.5364C66.1864 50.5425 66.0303 50.5418 66.0298 50.5326C66.0295 50.5235 66.1847 50.5071 66.4658 50.4853C66.7691 50.4599 67.1699 50.4262 67.6548 50.3857C68.6579 50.2948 70.0408 50.1347 71.5542 49.8707C73.0669 49.6052 74.421 49.2865 75.3944 49.0317C75.8639 48.9053 76.2521 48.8009 76.5456 48.7218C76.8176 48.6466 76.9693 48.6091 76.9719 48.618Z" fill="#263238"/>
<path d="M64.8608 40.0848C64.8237 40.0848 64.8006 38.221 64.8088 35.9228C64.817 33.6238 64.8538 31.7609 64.8909 31.7611C64.9279 31.7614 64.951 33.6243 64.9428 35.9233C64.9343 38.2215 64.8978 40.0848 64.8608 40.0848Z" fill="#263238"/>
<path d="M82.078 30.3745C82.078 30.3745 84.0882 32.0723 84.2202 33.0332C84.322 33.7765 86.2987 40.7557 87.1893 43.8803C87.4667 44.8538 87.4075 45.8902 87.0211 46.827L84.453 53.0847L80.2974 50.6639L82.3752 44.7948L80.6547 39.8148L82.078 30.3745Z" fill="#5140B2" fill-opacity="0.7"/>
<path d="M84.453 53.0846C84.4517 53.0869 84.4252 53.0742 84.3747 53.0479C84.3174 53.0167 84.2443 52.977 84.1533 52.9273C83.9513 52.8136 83.6696 52.6547 83.3128 52.4536C82.5794 52.0325 81.5391 51.4354 80.2714 50.7076L80.2351 50.6869L80.249 50.6473C80.8304 48.9928 81.537 46.9817 82.3129 44.7736L82.3134 44.8177C82.0698 44.1738 81.8151 43.5012 81.5555 42.8151C80.9474 41.2014 80.3668 39.6607 79.8379 38.2567L79.8399 38.2616C79.3134 37.1725 78.8573 36.1214 78.7304 35.1134C78.67 34.6123 78.6813 34.131 78.7731 33.6991C78.8624 33.2667 79.0139 32.8846 79.1901 32.5614C79.5439 31.9124 79.9621 31.4873 80.2634 31.2274C80.4141 31.0959 80.5384 31.0039 80.6243 30.9454C80.7102 30.8866 80.7555 30.8577 80.7576 30.8605C80.7596 30.8633 80.7182 30.8978 80.6366 30.9616C80.5551 31.0249 80.4357 31.1215 80.2904 31.2567C79.9997 31.5238 79.5956 31.9526 79.2573 32.5958C79.0885 32.9163 78.945 33.2927 78.8624 33.7163C78.7772 34.1391 78.7706 34.6096 78.8338 35.1C78.9661 36.087 79.4212 37.1231 79.9521 38.2089L79.9531 38.2111L79.9542 38.2139C80.4859 39.6169 81.0696 41.1563 81.6808 42.769C81.9399 43.4553 82.1938 44.1282 82.4369 44.7724L82.4451 44.7944L82.4371 44.8164C81.651 47.0209 80.9348 49.0291 80.3457 50.6808L80.3233 50.6202C81.5815 51.364 82.6141 51.9743 83.3419 52.4047C83.6925 52.6157 83.9696 52.7824 84.1679 52.902C84.2559 52.9567 84.3266 53.0008 84.3819 53.0352C84.4303 53.0656 84.4542 53.0823 84.453 53.0846Z" fill="#263238"/>
<g opacity="0.3">
<path d="M73.7432 31.2913C74.0251 31.2984 74.3099 31.4636 74.3611 31.7364C74.4123 32.0095 74.374 32.2953 74.4463 32.5635C74.5186 32.8318 74.7665 33.0932 75.0426 33.037C75.21 33.0028 75.3322 32.8642 75.4369 32.7312C75.9779 32.0447 76.4155 31.1887 76.733 30.3778C76.7252 30.3973 75.3083 31.9887 75.3083 31.9887C75.2646 31.5892 75.1365 31.1912 74.9885 30.8168C74.9407 30.696 74.8864 30.4893 74.7665 30.4351C74.5731 30.3479 74.3171 30.6266 74.1893 30.7938C74.0614 30.961 73.7813 31.2523 73.7427 31.2662" fill="black"/>
</g>
<g opacity="0.3">
<path d="M71.4201 29.8464C71.4674 30.7214 71.6061 31.639 71.9389 32.4514C71.9729 32.5343 72.0102 32.6194 72.0781 32.6787C72.1458 32.7379 72.2525 32.7635 72.3282 32.7141C72.3837 32.6779 72.5607 32.2369 72.5834 32.1753C72.7151 31.8135 73.2484 31.7801 73.2484 31.7801C73.2484 31.7801 73.0361 30.8496 72.9 30.5743C72.8383 30.4494 72.7076 30.3409 72.5684 30.364C72.403 30.3911 72.2232 30.6128 72.2029 30.7769C72.1224 31.4272 72.1324 31.7254 72.0354 31.9519C71.7851 31.2603 71.5826 30.4268 71.4172 29.8226" fill="black"/>
</g>
<g opacity="0.3">
<path d="M75.366 49.0369C75.6312 48.8973 75.6639 48.4963 75.4889 48.2554C75.314 48.0144 74.9842 47.9177 74.6858 47.9547C74.3874 47.9917 74.1157 48.1424 73.8721 48.3159C73.6282 48.4892 73.4029 48.6886 73.1469 48.8436C72.5164 49.2254 71.7488 49.3118 71.0087 49.3237C70.2688 49.3353 69.5207 49.2824 68.7943 49.4209C68.0678 49.5598 67.3421 49.9284 66.9915 50.5703C66.9915 50.5703 73.3152 50.1173 75.366 49.0369Z" fill="black"/>
</g>
<path d="M79.5007 58.1863C78.6027 57.6082 78.2104 57.0524 77.8441 56.505C77.8528 56.4829 77.8541 56.4642 77.8461 56.45C77.8345 56.4297 77.8111 56.4191 77.7831 56.4122C77.5801 56.1009 77.4201 55.8177 77.2982 55.5755C77.8145 55.2449 78.489 54.7446 77.7553 54.6417C76.8524 54.5153 76.2067 54.0829 76.1148 53.8463C76.023 53.6097 76.3237 53.3971 76.5617 53.5486C76.7538 53.6707 77.1387 53.7763 77.4309 53.844C77.672 53.8997 77.921 53.9167 78.1672 53.8898C78.32 53.8731 78.8584 53.5096 79.4339 53.2436C79.5154 53.2059 79.607 53.195 79.6957 53.2094L79.916 53.1945C80.1531 53.1785 80.3649 53.0417 80.4744 52.834L81.3087 51.2527L83.8297 52.7215L81.8345 55.4488C81.8345 55.4488 80.4595 57.248 79.5007 58.1863Z" fill="#FFBE9D"/>
<path d="M80.0209 58.4717C80.0147 58.4851 79.7822 58.402 79.4395 58.2016C79.0971 58.0023 78.6523 57.6719 78.2448 57.2243C77.8387 56.7756 77.5546 56.3034 77.3915 55.9462C77.2274 55.5885 77.1695 55.3517 77.1837 55.3471C77.2246 55.3271 77.5384 56.2594 78.3447 57.1364C79.1396 58.0228 80.0456 58.4342 80.0209 58.4717Z" fill="#455A64"/>
<path d="M72.0778 60.0697C72.0757 60.0738 72.0518 60.0664 72.0073 60.0479C71.963 60.0289 71.901 59.9929 71.8285 59.9359C71.6852 59.8202 71.5255 59.5967 71.4169 59.292C71.3063 58.9867 71.233 58.6151 71.1373 58.2067C71.0449 57.7971 70.9485 57.3454 70.8541 56.8699C70.6645 55.9189 70.5199 55.053 70.4275 54.4248C70.3817 54.1106 70.3483 53.8558 70.3287 53.6792C70.3095 53.5026 70.303 53.4044 70.3123 53.4031C70.3213 53.4018 70.3452 53.4973 70.3802 53.6714C70.4188 53.874 70.4659 54.1203 70.5209 54.4098C70.6372 55.0335 70.7962 55.8953 70.9855 56.8446C71.0817 57.3168 71.1736 57.7669 71.2582 58.1814C71.3475 58.5913 71.4115 58.9652 71.5069 59.2621C71.6011 59.5608 71.739 59.7766 71.8643 59.8982C71.9903 60.0183 72.0837 60.0586 72.0778 60.0697Z" fill="#455A64"/>
<path d="M71.8632 54.3809C71.8637 54.3736 71.9056 54.3657 71.9771 54.389C72.0474 54.4116 72.1454 54.4749 72.212 54.5942C72.2799 54.7072 72.3036 54.903 72.1881 55.0581C72.0813 55.208 71.8688 55.3144 71.6476 55.2605C71.4289 55.2004 71.2962 55.0087 71.2699 54.8298C71.2391 54.6431 71.3319 54.4805 71.4318 54.3946C71.645 54.2137 71.8374 54.2669 71.8274 54.2788C71.832 54.3009 71.6589 54.292 71.4986 54.4605C71.4222 54.542 71.3623 54.6702 71.3916 54.8095C71.4168 54.9466 71.5269 55.092 71.6818 55.1328C71.8359 55.1723 72.0046 55.0961 72.0885 54.9864C72.1783 54.8759 72.1721 54.7356 72.1271 54.635C72.0319 54.4237 71.8536 54.4002 71.8632 54.3809Z" fill="#455A64"/>
<path d="M66.3928 53.3638C66.4054 53.361 66.4682 53.5812 66.4602 53.9472C66.4541 54.3115 66.3509 54.8204 66.0818 55.3157C65.8104 55.8099 65.4359 56.1752 65.1305 56.3812C64.8246 56.5894 64.6037 56.6594 64.599 56.6475C64.5885 56.6264 64.792 56.5274 65.0737 56.3067C65.3556 56.0878 65.7026 55.7284 65.9637 55.2534C66.2223 54.7774 66.3355 54.294 66.3656 53.9416C66.3972 53.5885 66.3689 53.3666 66.3928 53.3638Z" fill="#455A64"/>
<path d="M56.4103 35.589C56.373 35.5819 56.4532 35.0218 56.5397 34.3304C56.6274 33.6391 56.6889 33.0767 56.7267 33.079C56.7627 33.0808 56.7609 33.6505 56.6727 34.3466C56.5854 35.043 56.4455 35.5958 56.4103 35.589Z" fill="#263238"/>
<path d="M51.2835 32.6967C51.2863 32.6974 51.2804 32.7278 51.266 32.7858C51.248 32.8532 51.2258 32.9371 51.1983 33.0407C51.1317 33.2755 51.0399 33.5985 50.9249 34.0036C50.6777 34.8441 50.3311 36.0229 49.9162 37.4342L49.8748 37.363C51.3293 37.7184 53.0819 38.0077 54.9511 38.3469C55.8826 38.5174 56.7812 38.7036 57.6092 38.9065L57.5791 38.9063C59.6747 38.4396 61.4904 38.0351 62.7977 37.744C63.436 37.607 63.9494 37.4968 64.3173 37.4177C64.4858 37.3838 64.6208 37.3567 64.725 37.3359C64.8182 37.3184 64.8668 37.3111 64.8678 37.3149C64.8686 37.3187 64.8215 37.3331 64.7302 37.3577C64.6273 37.3838 64.4938 37.4177 64.3273 37.46C63.9615 37.5479 63.4509 37.6703 62.8162 37.8225C61.5117 38.125 59.6997 38.5453 57.6085 39.0304L57.5935 39.034L57.5781 39.0304C56.7526 38.8313 55.8566 38.6474 54.9264 38.4769C53.0603 38.1382 51.3038 37.8415 49.847 37.4734L49.7883 37.4585L49.8058 37.402C50.2396 35.9963 50.602 34.8221 50.8606 33.9848C50.9884 33.5836 51.0905 33.2634 51.1646 33.0308C51.1988 32.9292 51.2266 32.8469 51.249 32.7808C51.2685 32.7245 51.2804 32.6959 51.2835 32.6967Z" fill="#263238"/>
<path d="M112.581 36.5904L111.492 34.7606L110.457 36.5904H95.7905V44.1417H118.629V36.5904H112.581Z" fill="#5140B2" fill-opacity="0.7"/>
<path d="M99.8983 40.4323C100.29 40.2743 100.571 39.8803 100.577 39.4132C100.585 38.8014 100.119 38.2991 99.5366 38.2917C98.9542 38.2841 98.4754 38.7741 98.4675 39.3861C98.4615 39.8575 98.7376 40.2611 99.1307 40.4263C97.5051 40.6535 97.5637 42.3918 97.5637 42.3918L101.403 42.4415C101.403 42.441 101.506 40.6852 99.8983 40.4323Z" fill="#FAFAFA"/>
<path d="M116.024 38.8294C116.024 38.851 113.109 38.8688 109.514 38.8688C105.917 38.8688 103.003 38.8513 103.003 38.8294C103.003 38.8078 105.917 38.79 109.514 38.79C113.109 38.7903 116.024 38.8078 116.024 38.8294Z" fill="#FAFAFA"/>
<path d="M116.024 39.9809C116.024 40.0025 113.109 40.0202 109.514 40.0202C105.917 40.0202 103.003 40.0028 103.003 39.9809C103.003 39.9593 105.917 39.9415 109.514 39.9415C113.109 39.9418 116.024 39.9593 116.024 39.9809Z" fill="#FAFAFA"/>
<path d="M116.024 41.1321C116.024 41.1537 113.109 41.1715 109.514 41.1715C105.917 41.1715 103.003 41.154 103.003 41.1321C103.003 41.1105 105.917 41.0928 109.514 41.0928C113.109 41.093 116.024 41.1105 116.024 41.1321Z" fill="#FAFAFA"/>
<path d="M109.513 42.2719C109.513 42.2935 108.056 42.3113 106.258 42.3113C104.46 42.3113 103.003 42.2938 103.003 42.2719C103.003 42.2503 104.46 42.2325 106.258 42.2325C108.056 42.2325 109.513 42.2503 109.513 42.2719Z" fill="#FAFAFA"/>
</svg>
