<svg width="20" height="20" viewBox="0 0 20 20" fill="none" xmlns="http://www.w3.org/2000/svg">
<path d="M14.3838 9.53358C16.5651 9.53358 18.3333 7.7725 18.3333 5.60015C18.3333 3.42779 16.5651 1.66675 14.3838 1.66675C12.2025 1.66675 10.4342 3.42779 10.4342 5.60015C10.4342 6.60636 10.8935 7.33816 10.8935 7.33816L6.11731 12.0948C5.90301 12.3082 5.60296 12.8632 6.11731 13.3755L6.66841 13.9243C6.88272 14.1072 7.42156 14.3634 7.86244 13.9243L8.5054 13.284C9.14831 13.9243 9.88315 13.5584 10.1586 13.1925C10.6179 12.5522 10.0668 11.9119 10.0668 11.9119L10.2506 11.7289C11.1323 12.6071 11.9038 12.0948 12.1794 11.7289C12.6386 11.0886 12.1794 10.4482 12.1794 10.4482C11.9956 10.0824 11.6283 10.0824 12.0875 9.625L12.6386 9.07616C13.0795 9.44208 13.9857 9.53358 14.3838 9.53358Z" stroke="#8F8F8F" stroke-linejoin="round"/>
<path d="M1.66669 9.99166C1.66669 13.924 1.66669 15.8902 2.8883 17.1118C4.10992 18.3334 6.07608 18.3334 10.0084 18.3334C13.9407 18.3334 15.9069 18.3334 17.1285 17.1118C18.0577 16.1826 18.2801 14.8226 18.3334 12.4942M7.50589 1.66675C5.1775 1.71998 3.81751 1.9424 2.8883 2.87161C2.0743 3.68561 1.8027 4.83018 1.71207 6.66675" stroke="#8F8F8F" stroke-linecap="round"/>
<path d="M16.3407 5.49624C16.3407 6.50664 15.5183 7.32571 14.5037 7.32571C13.4892 7.32571 12.6667 6.50664 12.6667 5.49624C12.6667 4.48584 13.4892 3.66675 14.5037 3.66675C15.5183 3.66675 16.3407 4.48584 16.3407 5.49624Z" stroke="#8F8F8F"/>
</svg>
