<svg data-name="Layer 1" xmlns="http://www.w3.org/2000/svg" viewBox="0 0 1080 372">
    <path d="M91.23 253.05a11.28 11.28 0 0 1-1.81-7.24q.21-4.41 5.23-7.64a10.94 10.94 0 0 1 6.83-1.7 11.42 11.42 0 0 1 7 3.71 47.12 47.12 0 0 0 12.26 9q6.43 3.21 16.08 3.22a54.69 54.69 0 0 0 6.63-.91 12.62 12.62 0 0 0 6.33-3.22q2.72-2.5 2.72-7.73a8.84 8.84 0 0 0-3-7 25.43 25.43 0 0 0-7.94-4.42c-3.28-1.21-6.93-2.34-11-3.42s-8.41-2.54-12.76-4a52.65 52.65 0 0 1-12-5.73 27.45 27.45 0 0 1-8.85-9.34q-3.42-5.84-3.41-14.68a26.5 26.5 0 0 1 5.62-17.08A36.65 36.65 0 0 1 113.85 164a47.26 47.26 0 0 1 18.79-3.82 60.9 60.9 0 0 1 13.06 1.5 51.43 51.43 0 0 1 13.07 4.83 32.23 32.23 0 0 1 10.45 8.74 14.31 14.31 0 0 1 2.61 7.24q.4 4.22-3.81 7.64a9.75 9.75 0 0 1-7 2.11 10.66 10.66 0 0 1-6.63-2.72 23.82 23.82 0 0 0-9.15-7 31.45 31.45 0 0 0-13.24-2.64 33.52 33.52 0 0 0-6.54.71 12.92 12.92 0 0 0-6.13 3c-1.74 1.55-2.61 4-2.61 7.34a9.39 9.39 0 0 0 3 7.34 22.94 22.94 0 0 0 8.14 4.42q5.12 1.71 11 3.31 6 1.62 12.26 3.82a49.05 49.05 0 0 1 11.46 5.83A27.63 27.63 0 0 1 171 225q3.21 5.73 3.22 14.57a26.43 26.43 0 0 1-6 17.49A38.23 38.23 0 0 1 153.14 268a48.19 48.19 0 0 1-18.49 3.72 71.8 71.8 0 0 1-23.72-4.12 41 41 0 0 1-19.7-14.55ZM275 160.19a11.74 11.74 0 0 1 8.64 3.41 12 12 0 0 1 3.42 8.85v85a12 12 0 0 1-3.42 8.74 12.38 12.38 0 0 1-17.29 0 12 12 0 0 1-3.41-8.74v-9.85l4.42 1.81q0 2.61-2.82 6.33a38.17 38.17 0 0 1-7.63 7.34 46.92 46.92 0 0 1-11.36 6.13 39.27 39.27 0 0 1-14.17 2.51 46 46 0 0 1-25.13-7.13 50.22 50.22 0 0 1-17.78-19.7q-6.54-12.56-6.54-28.85 0-16.47 6.54-29A50.76 50.76 0 0 1 206 167.32a44.34 44.34 0 0 1 24.52-7.13 46.49 46.49 0 0 1 15.88 2.61 47.48 47.48 0 0 1 12.6 6.63 38.34 38.34 0 0 1 8.24 8.14q2.91 4.13 2.91 6.94l-7.23 2.61v-14.67a12.05 12.05 0 0 1 3.41-8.75 11.56 11.56 0 0 1 8.67-3.51Zm-40.61 89.44a27.23 27.23 0 0 0 15.48-4.42 29.91 29.91 0 0 0 10.35-12.06 38.51 38.51 0 0 0 3.72-17.09 39 39 0 0 0-3.72-17.28 29.91 29.91 0 0 0-10.35-12.06 27.23 27.23 0 0 0-15.48-4.42 26.86 26.86 0 0 0-15.27 4.42 29.83 29.83 0 0 0-10.35 12.06 38.81 38.81 0 0 0-3.77 17.28 38.38 38.38 0 0 0 3.72 17.09 29.83 29.83 0 0 0 10.35 12.06 26.86 26.86 0 0 0 15.27 4.42Zm82.76 20.1a11.53 11.53 0 0 1-8.64-3.52 12 12 0 0 1-3.42-8.74v-83a12.06 12.06 0 0 1 3.42-8.75 12.4 12.4 0 0 1 17.29 0 12.09 12.09 0 0 1 3.41 8.75v18.89l-1.4-13.47a31.4 31.4 0 0 1 5.72-8.54 34.15 34.15 0 0 1 7.94-6.23 36.49 36.49 0 0 1 9.45-3.72 43.13 43.13 0 0 1 10.05-1.2 15.41 15.41 0 0 1 10.15 3.41 10.18 10.18 0 0 1 4.12 8q0 6.65-3.42 9.55a11.24 11.24 0 0 1-7.43 2.92 16.65 16.65 0 0 1-6.94-1.41 17.12 17.12 0 0 0-7.13-1.41A17.49 17.49 0 0 0 343 183a20 20 0 0 0-6.83 5.33 27.91 27.91 0 0 0-5 8.94 37.32 37.32 0 0 0-1.91 12.56v47.64a12.05 12.05 0 0 1-3.41 8.74 11.53 11.53 0 0 1-8.7 3.52Zm151.76-109.54a11.74 11.74 0 0 1 8.64 3.41 12 12 0 0 1 3.42 8.85v85a12 12 0 0 1-3.42 8.74 12.38 12.38 0 0 1-17.29 0 12 12 0 0 1-3.41-8.74v-9.85l4.42 1.81q0 2.61-2.81 6.33a38.52 38.52 0 0 1-7.64 7.34 46.92 46.92 0 0 1-11.36 6.13 39.27 39.27 0 0 1-14.17 2.51 46 46 0 0 1-25.12-7.13 50.17 50.17 0 0 1-17.79-19.7q-6.54-12.56-6.54-28.85 0-16.47 6.54-29A50.76 50.76 0 0 1 400 167.32a44.35 44.35 0 0 1 24.53-7.13 46.53 46.53 0 0 1 15.88 2.61 47.42 47.42 0 0 1 12.56 6.63 38.34 38.34 0 0 1 8.24 8.14q2.91 4.13 2.91 6.94l-7.23 2.61v-14.67a12.05 12.05 0 0 1 3.41-8.75 11.56 11.56 0 0 1 8.61-3.51Zm-40.6 89.44a27.22 27.22 0 0 0 15.47-4.42 29.91 29.91 0 0 0 10.35-12.06 38.51 38.51 0 0 0 3.72-17.09 39 39 0 0 0-3.72-17.28 29.91 29.91 0 0 0-10.35-12.06 27.22 27.22 0 0 0-15.47-4.42 26.87 26.87 0 0 0-15.31 4.42 29.91 29.91 0 0 0-10.35 12.06 39 39 0 0 0-3.65 17.28 38.51 38.51 0 0 0 3.72 17.09A29.91 29.91 0 0 0 413 245.21a26.87 26.87 0 0 0 15.31 4.42Zm96.87 7.84a12 12 0 0 1-12.26 12.26 11.28 11.28 0 0 1-8.44-3.52 12 12 0 0 1-3.42-8.74V133.25A12 12 0 0 1 513.33 121a11.23 11.23 0 0 1 8.54 3.52 12.24 12.24 0 0 1 3.31 8.74Z" style="fill:#252526"/>
    <path d="M602.77 160.19q14.87 0 22.61 6.23A31.62 31.62 0 0 1 636 183a84.9 84.9 0 0 1 3 23v51.46a12 12 0 0 1-3.42 8.74 12.36 12.36 0 0 1-17.28 0 12 12 0 0 1-3.42-8.74V206a39 39 0 0 0-1.71-11.95 16.62 16.62 0 0 0-6.13-8.55q-4.43-3.21-12.66-3.21a26.59 26.59 0 0 0-13.57 3.21 22 22 0 0 0-8.44 8.55A24.39 24.39 0 0 0 569.4 206v51.46a12 12 0 0 1-3.42 8.74 12.36 12.36 0 0 1-17.28 0 12 12 0 0 1-3.42-8.74v-83a12.06 12.06 0 0 1 3.42-8.75 12.39 12.39 0 0 1 17.28 0 12.06 12.06 0 0 1 3.42 8.75v8.64l-3-.6a39.17 39.17 0 0 1 5.22-7.34 50.56 50.56 0 0 1 8-7.34 40.93 40.93 0 0 1 10.45-5.52 36.9 36.9 0 0 1 12.7-2.11Zm157.58 55.87q0 16.49-7.34 29.05a52.68 52.68 0 0 1-19.69 19.6 57.85 57.85 0 0 1-55.28 0 52.71 52.71 0 0 1-19.7-19.6Q651 232.56 651 216.06t7.33-29a53.49 53.49 0 0 1 19.7-19.7 57.14 57.14 0 0 1 55.28 0A53.47 53.47 0 0 1 753 187q7.35 12.59 7.35 29.06Zm-24.12 0a36.46 36.46 0 0 0-4.12-17.78 30.64 30.64 0 0 0-11.05-11.76 30.14 30.14 0 0 0-30.76 0 30.57 30.57 0 0 0-11 11.76 36.46 36.46 0 0 0-4.12 17.78 36 36 0 0 0 4.12 17.59 30.57 30.57 0 0 0 11 11.76 30.14 30.14 0 0 0 30.76 0 30.64 30.64 0 0 0 11.05-11.76 36 36 0 0 0 4.12-17.59Zm40-53.86a13.49 13.49 0 0 1 7 1.91 11.69 11.69 0 0 1 4.82 5.72l29.55 67.54-4.42 2L843.37 170q3.4-8 10.65-7.64a11 11 0 0 1 8.14 3.11 10.5 10.5 0 0 1 3.11 7.74 10 10 0 0 1-.5 3 30.08 30.08 0 0 1-1.1 3l-37.59 82.81q-3.23 7.25-10.25 7.64a10.92 10.92 0 0 1-7.34-1.41 12.52 12.52 0 0 1-5.32-6.23l-37.39-82.81q-.4-1-.9-2.61a12.66 12.66 0 0 1-.51-3.82q0-3.61 3.22-7.14a11.13 11.13 0 0 1 8.64-3.44ZM963 160.19a11.74 11.74 0 0 1 8.64 3.41 12 12 0 0 1 3.42 8.85v85a12 12 0 0 1-3.42 8.74 12.36 12.36 0 0 1-17.28 0 12 12 0 0 1-3.42-8.74v-9.85l4.42 1.81q0 2.61-2.81 6.33a38.25 38.25 0 0 1-7.64 7.34 46.73 46.73 0 0 1-11.36 6.13 39.24 39.24 0 0 1-14.17 2.51 46 46 0 0 1-25.12-7.13 50.17 50.17 0 0 1-17.79-19.7q-6.54-12.56-6.53-28.85 0-16.47 6.53-29A50.78 50.78 0 0 1 894 167.32a44.29 44.29 0 0 1 24.52-7.13 46.53 46.53 0 0 1 15.88 2.61 47.42 47.42 0 0 1 12.6 6.63 38.11 38.11 0 0 1 8.24 8.14c1.94 2.75 2.92 5.06 2.92 6.94l-7.24 2.61v-14.67a12.06 12.06 0 0 1 3.42-8.75 11.52 11.52 0 0 1 8.66-3.51Zm-40.6 89.44a27.22 27.22 0 0 0 15.47-4.42 29.85 29.85 0 0 0 10.36-12.06 38.51 38.51 0 0 0 3.72-17.09 39 39 0 0 0-3.72-17.28 29.85 29.85 0 0 0-10.36-12.06 27.22 27.22 0 0 0-15.47-4.42 26.89 26.89 0 0 0-15.28 4.42 29.91 29.91 0 0 0-10.35 12.06 39 39 0 0 0-3.77 17.28 38.51 38.51 0 0 0 3.72 17.09 29.91 29.91 0 0 0 10.35 12.06 26.89 26.89 0 0 0 15.29 4.42Z" style="fill:#5140b2"/>
    <path d="M1025.41 79.11a7.49 7.49 0 0 1-4.77 5.66c-10.18 3.79-20.43 7.44-30.65 11.14a2.44 2.44 0 0 1-.39.06c-.1.07-.21.19-.32.2-2.67.31-3.52 2.22-4.31 4.47-3.53 10-7.2 19.94-10.8 29.91a8.76 8.76 0 0 1-7.61 5.62 8.32 8.32 0 0 1-7.54-5.5q-3.81-10.39-7.57-20.82c-1.33-3.68-2.7-7.34-4-11a2.79 2.79 0 0 0-2.16-2.11 13 13 0 0 1-1.79-.74c-3.77-1.33-7.54-2.64-11.3-4-6.18-2.22-12.34-4.5-18.52-6.71a8.76 8.76 0 0 1-5.68-7.72 8.43 8.43 0 0 1 5.54-7.52q16-5.8 32-11.58a2.79 2.79 0 0 0 1.87-1.9c3.88-10.83 7.82-21.64 11.73-32.46 1-2.66 4.51-5.05 7.48-5.06a8.29 8.29 0 0 1 7.5 5.55c1.76 4.78 3.46 9.57 5.22 14.34 2.22 6 4.13 12.11 6.51 18.05a2 2 0 0 0 1.29 1.3c10.92 3.94 21.85 7.86 32.74 11.88 3.7 1.37 6.46 4.83 5.53 8.94Z" style="fill:#ffaf45"/>
</svg>
