<svg width="200" height="66" viewBox="0 0 200 66" fill="none" xmlns="http://www.w3.org/2000/svg">
<path d="M16.8943 44.8959C16.6337 44.5166 16.5155 44.0636 16.5592 43.6114C16.5851 43.0898 16.9079 42.638 17.5277 42.2559C17.9031 42.0247 18.3477 41.9186 18.7925 41.9543C19.2927 42.0185 19.7525 42.252 20.0888 42.6126C20.7503 43.2591 21.5171 43.7984 22.3592 44.2093C23.153 44.589 24.1456 44.7794 25.3369 44.7806C25.7493 44.7509 26.1593 44.6969 26.5647 44.6192C27.0045 44.5402 27.4113 44.3419 27.7369 44.0479C28.0727 43.7522 28.2406 43.295 28.2406 42.6764C28.2505 42.4428 28.2057 42.2101 28.1096 41.9952C28.0135 41.7803 27.8685 41.5887 27.6851 41.4345C27.2481 41.0906 26.75 40.825 26.2147 40.6503C25.6073 40.4356 24.9314 40.2351 24.1777 40.0435C23.424 39.8519 22.6203 39.5929 21.8147 39.3338C21.0321 39.0863 20.2854 38.7447 19.5925 38.3172C18.9169 37.8971 18.3552 37.3291 17.9536 36.6601C17.5314 35.9694 17.3209 35.1012 17.3221 34.0556C17.2898 32.9602 17.6579 31.8883 18.3629 31.0253C19.0851 30.1727 20.021 29.5092 21.0832 29.0967C22.1826 28.6454 23.3668 28.4147 24.5629 28.419C25.3767 28.4238 26.1876 28.5131 26.9814 28.6851C27.825 28.8643 28.6393 29.1526 29.4018 29.5421C30.1548 29.9209 30.8146 30.4496 31.3369 31.0927C31.6175 31.4706 31.7846 31.9148 31.8203 32.3772C31.8697 32.8764 31.6345 33.3282 31.1147 33.7327C30.7497 34.0139 30.2848 34.1481 29.8184 34.1071C29.3633 34.0868 28.9295 33.9163 28.5906 33.6245C28.1404 33.0839 27.5586 32.6575 26.8962 32.3826C26.1239 32.0582 25.2874 31.8984 24.4443 31.9142C24.0373 31.918 23.6317 31.9602 23.2332 32.0401C22.8119 32.1169 22.4198 32.3007 22.0981 32.5724C21.7758 32.8474 21.6147 33.2821 21.6147 33.8746C21.6026 34.1174 21.646 34.3598 21.742 34.5847C21.838 34.8097 21.9841 35.0118 22.1703 35.1769C22.6119 35.5338 23.1248 35.8006 23.6777 35.9611C24.3098 36.1634 24.9888 36.3591 25.7147 36.5484C26.4555 36.74 27.2122 36.9659 27.9851 37.2261C28.7368 37.4802 29.4503 37.8279 30.1073 38.2605C30.7533 38.6912 31.2869 39.2588 31.6666 39.9193C32.0629 40.5971 32.2616 41.4587 32.2629 42.5043C32.2946 43.6331 31.9 44.7349 31.1518 45.6074C30.4022 46.4651 29.4428 47.1319 28.3592 47.5484C27.2743 47.9823 26.1107 48.2066 24.9351 48.2084C23.4384 48.2033 21.9533 47.9562 20.5425 47.4774C19.0803 46.9931 17.8075 46.0924 16.8943 44.8959Z" fill="white"/>
<path d="M50.9259 28.4207C51.2215 28.412 51.5159 28.4611 51.791 28.5652C52.0661 28.6692 52.3161 28.8259 52.5259 29.0257C52.7373 29.2325 52.9025 29.4783 53.0114 29.7483C53.1203 30.0182 53.1706 30.3067 53.1592 30.5959V45.6765C53.1678 45.9625 53.1161 46.2472 53.0073 46.5136C52.8985 46.78 52.7348 47.0227 52.5259 47.2272C52.0977 47.6274 51.5231 47.8514 50.9249 47.8514C50.3267 47.8514 49.7522 47.6274 49.324 47.2272C49.1154 47.0226 48.952 46.7798 48.8435 46.5134C48.735 46.247 48.6837 45.9624 48.6925 45.6765V43.9289L49.511 44.2501C49.511 44.5588 49.337 44.9331 48.9888 45.3731C48.5833 45.868 48.1077 46.3063 47.5759 46.6754C46.9303 47.129 46.2223 47.495 45.4722 47.763C44.6336 48.065 43.7439 48.216 42.8481 48.2083C41.2018 48.2263 39.5854 47.7869 38.1944 46.9433C36.7896 46.0822 35.6524 44.875 34.9018 43.4481C34.0944 41.9625 33.6907 40.2564 33.6907 38.3296C33.6907 36.3815 34.0944 34.6665 34.9018 33.1844C35.6431 31.7644 36.763 30.5574 38.1481 29.6857C39.4994 28.8466 41.0785 28.4067 42.6888 28.4207C43.6897 28.4101 44.6849 28.5668 45.6296 28.8838C46.4646 29.1613 47.2513 29.5578 47.9629 30.0601C48.5449 30.4647 49.0595 30.9516 49.4888 31.5043C49.8481 31.9928 50.0277 32.4032 50.0277 32.7356L48.6888 33.1986V30.5959C48.6803 30.3098 48.7317 30.025 48.8402 29.7583C48.9487 29.4916 49.1119 29.2486 49.3203 29.0435C49.5279 28.8382 49.7779 28.6768 50.0544 28.5696C50.3309 28.4623 50.6277 28.4116 50.9259 28.4207ZM43.4055 44.2891C44.4217 44.3105 45.4209 44.0371 46.2722 43.5049C47.1007 42.9703 47.763 42.231 48.1888 41.3652C48.6581 40.4185 48.8939 39.3811 48.8777 38.3331C48.896 37.2742 48.6603 36.2253 48.1888 35.2673C47.763 34.4016 47.1007 33.6622 46.2722 33.1277C45.4209 32.5954 44.4217 32.3221 43.4055 32.3435C42.4019 32.3255 41.4161 32.5989 40.5777 33.1277C39.7486 33.6617 39.0862 34.4012 38.661 35.2673C38.1851 36.2242 37.9462 37.2733 37.9629 38.3331C37.9459 39.3812 38.1816 40.4188 38.6518 41.3652C39.077 42.2314 39.7394 42.9709 40.5685 43.5049C41.4069 44.0337 42.3926 44.307 43.3962 44.2891H43.4055Z" fill="white"/>
<path d="M58.7316 47.8554C58.4342 47.8639 58.1382 47.8127 57.8627 47.7051C57.5872 47.5976 57.3381 47.4361 57.1316 47.2309C56.9227 47.0265 56.7589 46.7838 56.6501 46.5174C56.5413 46.2509 56.4896 45.9662 56.4982 45.6803V30.9545C56.49 30.6683 56.5418 30.3834 56.6506 30.1167C56.7594 29.8501 56.923 29.607 57.1316 29.402C57.5602 29.0027 58.1346 28.7792 58.7325 28.7792C59.3304 28.7792 59.9048 29.0027 60.3334 29.402C60.5414 29.6074 60.7045 29.8505 60.8129 30.1171C60.9214 30.3837 60.973 30.6684 60.9649 30.9545V34.3059L60.7056 31.9161C60.9695 31.3587 61.3273 30.8468 61.7649 30.4009C62.1952 29.9647 62.6907 29.5922 63.2353 29.2956C63.7836 28.9985 64.3727 28.7764 64.9853 28.6356C65.5948 28.4949 66.2194 28.4234 66.8464 28.4227C67.5283 28.4026 68.1951 28.6172 68.726 29.0277C68.9582 29.1924 69.1478 29.4061 69.2801 29.6522C69.4124 29.8983 69.4838 30.1703 69.489 30.447C69.489 31.2336 69.2779 31.7984 68.8556 32.1414C68.4786 32.4696 67.9891 32.6539 67.4797 32.6595C67.0376 32.6653 66.5992 32.58 66.1945 32.4093C65.7782 32.2363 65.3279 32.151 64.8742 32.1591C64.4043 32.1666 63.9417 32.2719 63.5186 32.4678C63.0299 32.6907 62.5982 33.0135 62.2538 33.4135C61.8457 33.8829 61.5317 34.4207 61.3279 34.9996C61.0779 35.7176 60.9583 36.4713 60.9742 37.228V45.6803C60.9825 45.966 60.9309 46.2505 60.8224 46.5169C60.7139 46.7832 60.5508 47.026 60.3427 47.2309C60.1349 47.4374 59.884 47.5997 59.6065 47.7073C59.3289 47.8149 59.0308 47.8654 58.7316 47.8554Z" fill="white"/>
<path d="M86.8353 28.4209C87.1309 28.4122 87.4253 28.4613 87.7004 28.5654C87.9755 28.6694 88.2256 28.8261 88.4353 29.0259C88.6467 29.2326 88.8119 29.4785 88.9208 29.7485C89.0297 30.0184 89.08 30.3068 89.0686 30.5961V45.6767C89.0772 45.9627 89.0256 46.2474 88.9167 46.5138C88.8079 46.7802 88.6442 47.0229 88.4353 47.2274C88.0071 47.6276 87.4326 47.8516 86.8344 47.8516C86.2361 47.8516 85.6616 47.6276 85.2334 47.2274C85.0249 47.0228 84.8615 46.78 84.753 46.5136C84.6445 46.2472 84.5931 45.9626 84.602 45.6767V43.9291L85.4205 44.2503C85.4205 44.559 85.247 44.9333 84.9001 45.3733C84.4933 45.8678 84.0172 46.306 83.4853 46.6756C82.8397 47.1292 82.1318 47.4952 81.3816 47.7632C80.543 48.0652 79.6534 48.2162 78.7575 48.2085C77.1119 48.2262 75.4962 47.7868 74.1057 46.9435C72.6999 46.0829 71.5619 44.8756 70.8112 43.4483C70.0038 41.9627 69.6001 40.2566 69.6001 38.3298C69.6001 36.3817 70.0038 34.6667 70.8112 33.1846C71.5571 31.7627 72.683 30.5555 74.0742 29.6859C75.4261 28.8465 77.0058 28.4066 78.6168 28.4209C79.6176 28.4105 80.6128 28.5672 81.5575 28.884C82.3901 29.162 83.1742 29.5585 83.8834 30.0603C84.4655 30.4648 84.98 30.9518 85.4094 31.5045C85.7686 31.993 85.9482 32.4034 85.9482 32.7357L84.6094 33.1988V30.5961C84.6008 30.31 84.6523 30.0252 84.7607 29.7585C84.8692 29.4918 85.0325 29.2487 85.2408 29.0437C85.4471 28.8398 85.6954 28.6791 85.9698 28.5719C86.2443 28.4647 86.539 28.4133 86.8353 28.4209ZM79.3168 44.2893C80.3324 44.3104 81.3309 44.0371 82.1816 43.5051C83.0102 42.9705 83.6724 42.2312 84.0982 41.3654C84.5676 40.4187 84.8033 39.3813 84.7871 38.3333C84.8054 37.2743 84.5698 36.2255 84.0982 35.2675C83.6724 34.4018 83.0102 33.6624 82.1816 33.1278C81.3309 32.5959 80.3324 32.3225 79.3168 32.3437C78.3107 32.3244 77.3221 32.5978 76.4816 33.1278C75.653 33.6624 74.9907 34.4018 74.5649 35.2675C74.0979 36.2265 73.8666 37.2753 73.889 38.3333C73.8728 39.3813 74.1086 40.4187 74.5779 41.3654C75.0001 42.2297 75.6578 42.9688 76.4816 43.5051C77.3221 44.0351 78.3107 44.3086 79.3168 44.2893Z" fill="white"/>
<path d="M97.2557 45.68C97.2622 45.9674 97.208 46.2531 97.0962 46.5198C96.9845 46.7866 96.8175 47.0289 96.6053 47.2321C96.3932 47.4354 96.1403 47.5954 95.8619 47.7025C95.5834 47.8095 95.2852 47.8615 94.9853 47.8552C94.6937 47.8614 94.404 47.8091 94.1348 47.7015C93.8656 47.5939 93.6229 47.4336 93.4223 47.2307C93.2134 47.0263 93.0497 46.7836 92.9409 46.5171C92.8321 46.2507 92.7804 45.966 92.789 45.68V23.641C92.7827 23.3536 92.8372 23.068 92.9492 22.8014C93.0611 22.5347 93.2283 22.2925 93.4407 22.0894C93.653 21.8863 93.906 21.7266 94.1846 21.6197C94.4631 21.5128 94.7613 21.4611 95.0612 21.4676C95.356 21.4583 95.6494 21.5092 95.9221 21.6169C96.1948 21.7246 96.4404 21.8866 96.6427 22.0921C97.0531 22.511 97.2735 23.0686 97.2557 23.6428V45.68Z" fill="white"/>
<path d="M111.624 28.4208C113.46 28.4208 114.856 28.7892 115.811 29.5261C116.777 30.2811 117.466 31.3116 117.778 32.4677C118.157 33.7972 118.344 35.1702 118.333 36.5484V45.6784C118.342 45.9643 118.29 46.249 118.181 46.5155C118.073 46.7819 117.909 47.0246 117.7 47.229C117.272 47.6295 116.698 47.8538 116.1 47.8538C115.502 47.8538 114.928 47.6295 114.5 47.229C114.291 47.0246 114.127 46.7819 114.018 46.5155C113.91 46.249 113.858 45.9643 113.867 45.6784V36.5484C113.877 35.8302 113.77 35.1149 113.55 34.4282C113.353 33.8181 112.955 33.2858 112.415 32.9113C111.868 32.5316 111.086 32.3418 110.07 32.3418C109.195 32.314 108.327 32.5106 107.557 32.9113C106.9 33.2682 106.358 33.7934 105.994 34.4282C105.625 35.0782 105.435 35.8082 105.444 36.5484V45.6784C105.453 45.9643 105.401 46.249 105.293 46.5155C105.184 46.7819 105.02 47.0246 104.811 47.229C104.383 47.6295 103.809 47.8538 103.211 47.8538C102.613 47.8538 102.039 47.6295 101.611 47.229C101.402 47.0246 101.238 46.7819 101.13 46.5155C101.021 46.249 100.969 45.9643 100.978 45.6784V30.9526C100.97 30.6664 101.021 30.3815 101.13 30.1148C101.239 29.8482 101.402 29.6051 101.611 29.4001C102.039 29.0009 102.613 28.7775 103.211 28.7775C103.809 28.7775 104.383 29.0009 104.811 29.4001C105.02 29.6051 105.183 29.8482 105.292 30.1148C105.401 30.3815 105.453 30.6664 105.444 30.9526V32.4855L104.889 32.379C105.158 31.9108 105.482 31.4738 105.855 31.0768C106.299 30.593 106.796 30.1564 107.337 29.7745C107.929 29.3601 108.581 29.0302 109.272 28.7951C110.027 28.5393 110.823 28.4126 111.624 28.4208Z" fill="white"/>
<path d="M140.806 38.3333C140.806 40.2837 140.353 42.0017 139.446 43.4873C138.578 44.9382 137.318 46.1391 135.8 46.9647C134.229 47.7832 132.47 48.212 130.682 48.212C128.894 48.212 127.134 47.7832 125.563 46.9647C124.044 46.1391 122.784 44.9382 121.915 43.4873C121.009 42.0029 120.556 40.2849 120.556 38.3333C120.556 36.3817 121.008 34.6666 121.913 33.1881C122.786 31.7348 124.044 30.5288 125.561 29.693C127.128 28.8632 128.889 28.428 130.68 28.428C132.47 28.428 134.231 28.8632 135.798 29.693C137.313 30.526 138.571 31.7282 139.445 33.1775C140.352 34.6666 140.806 36.3852 140.806 38.3333ZM136.339 38.3333C136.368 37.2368 136.105 36.1513 135.576 35.1788C135.101 34.3206 134.394 33.6001 133.53 33.0923C132.668 32.6023 131.684 32.3437 130.682 32.3437C129.679 32.3437 128.695 32.6023 127.833 33.0923C126.972 33.6009 126.269 34.3214 125.796 35.1788C125.267 36.1513 125.005 37.2368 125.033 38.3333C125.007 39.4188 125.269 40.4929 125.796 41.4541C126.269 42.3115 126.972 43.032 127.833 43.5405C128.695 44.0306 129.679 44.2892 130.682 44.2892C131.684 44.2892 132.668 44.0306 133.53 43.5405C134.394 43.0327 135.101 42.3123 135.576 41.4541C136.103 40.4929 136.366 39.4188 136.339 38.3333Z" fill="white"/>
<path d="M143.746 28.7773C144.203 28.7748 144.651 28.8919 145.043 29.1162C145.448 29.3517 145.762 29.7082 145.935 30.131L151.407 42.1139L150.589 42.4688L156.18 30.1612C156.599 29.215 157.257 28.7631 158.152 28.8057C158.429 28.7945 158.706 28.8376 158.965 28.9325C159.224 29.0274 159.461 29.172 159.659 29.3575C159.848 29.5366 159.997 29.7508 160.096 29.987C160.195 30.2231 160.242 30.4763 160.235 30.7307C160.233 30.9116 160.202 31.0911 160.143 31.263C160.085 31.4437 160.017 31.6214 159.939 31.7952L152.978 46.4873C152.579 47.3449 151.946 47.7967 151.08 47.8428C150.61 47.9152 150.129 47.8266 149.72 47.5927C149.272 47.3405 148.925 46.9512 148.735 46.4873L141.811 31.7952C141.762 31.677 141.706 31.5226 141.644 31.3322C141.577 31.1122 141.545 30.8836 141.55 30.6544C141.55 30.2274 141.749 29.8052 142.146 29.3877C142.351 29.1814 142.6 29.0201 142.877 28.9147C143.153 28.8094 143.449 28.7625 143.746 28.7773Z" fill="white"/>
<path d="M178.333 28.4208C178.629 28.412 178.923 28.4612 179.199 28.5652C179.474 28.6692 179.724 28.8259 179.933 29.0258C180.145 29.2325 180.31 29.4784 180.419 29.7483C180.528 30.0183 180.578 30.3067 180.567 30.5959V45.6766C180.575 45.9625 180.524 46.2472 180.415 46.5137C180.306 46.7801 180.142 47.0228 179.933 47.2272C179.506 47.6277 178.931 47.852 178.333 47.852C177.735 47.852 177.161 47.6277 176.733 47.2272C176.525 47.0228 176.361 46.7801 176.252 46.5137C176.143 46.2472 176.092 45.9625 176.1 45.6766V43.929L176.919 44.2501C176.919 44.5588 176.745 44.9332 176.398 45.3732C175.992 45.868 175.516 46.3063 174.983 46.6754C174.338 47.1295 173.63 47.4955 172.88 47.763C172.041 48.0652 171.152 48.2161 170.256 48.2083C168.61 48.226 166.994 47.7867 165.604 46.9433C164.198 46.0828 163.06 44.8755 162.309 43.4482C161.502 41.9626 161.099 40.2564 161.1 38.3296C161.1 36.3816 161.503 34.6665 162.309 33.1845C163.051 31.7646 164.171 30.5576 165.556 29.6858C166.907 28.8461 168.486 28.4062 170.096 28.4208C171.097 28.4103 172.092 28.567 173.037 28.8838C173.872 29.1612 174.659 29.5577 175.37 30.0601C175.953 30.4642 176.468 30.9512 176.896 31.5043C177.256 31.9922 177.437 32.402 177.437 32.7356L176.096 33.1987V30.5959C176.088 30.3097 176.14 30.0249 176.249 29.7582C176.358 29.4915 176.521 29.2485 176.73 29.0435C176.937 28.8381 177.187 28.6766 177.463 28.5694C177.739 28.4621 178.036 28.4115 178.333 28.4208ZM170.815 44.2891C171.831 44.3103 172.829 44.0369 173.68 43.505C174.509 42.971 175.172 42.2316 175.598 41.3653C176.068 40.4186 176.303 39.3811 176.287 38.3332C176.305 37.2742 176.07 36.2253 175.598 35.2674C175.172 34.4011 174.509 33.6616 173.68 33.1277C172.829 32.5957 171.831 32.3224 170.815 32.3435C169.811 32.3255 168.824 32.5989 167.985 33.1277C167.157 33.6623 166.494 34.4016 166.069 35.2674C165.594 36.2246 165.355 37.2735 165.37 38.3332C165.354 39.3811 165.59 40.4186 166.059 41.3653C166.485 42.231 167.147 42.9704 167.976 43.505C168.816 44.0341 169.803 44.3075 170.808 44.2891H170.815Z" fill="white"/>
<path d="M189.891 14.0357C189.847 14.262 189.742 14.4736 189.588 14.6496C189.433 14.8257 189.233 14.9601 189.007 15.0399C187.122 15.7123 185.224 16.3599 183.332 17.0163C183.308 17.0217 183.284 17.0253 183.259 17.027C183.241 17.0394 183.22 17.0607 183.2 17.0625C182.706 17.1175 182.548 17.4563 182.402 17.8555C181.748 19.6297 181.069 21.3933 180.402 23.1621C180.291 23.4401 180.1 23.6819 179.85 23.8586C179.6 24.0354 179.303 24.1397 178.993 24.1592C178.685 24.149 178.387 24.0505 178.138 23.8766C177.889 23.7026 177.701 23.4612 177.596 23.1834C177.126 21.9545 176.659 20.7232 176.194 19.4896C175.948 18.8367 175.694 18.1873 175.454 17.5379C175.432 17.4454 175.382 17.3608 175.311 17.2944C175.24 17.2281 175.151 17.1826 175.054 17.1636C174.94 17.1278 174.829 17.0839 174.722 17.0323C174.024 16.7963 173.326 16.5639 172.63 16.3226C171.485 15.9288 170.344 15.5242 169.2 15.1321C168.905 15.0264 168.648 14.8406 168.461 14.5973C168.274 14.3541 168.166 14.064 168.148 13.7625C168.163 13.468 168.268 13.1842 168.451 12.9468C168.633 12.7094 168.885 12.529 169.174 12.4283C171.149 11.7422 173.125 11.0574 175.1 10.3738C175.183 10.3497 175.257 10.3063 175.318 10.2474C175.378 10.1885 175.423 10.1161 175.446 10.0367C176.165 8.11521 176.894 6.1973 177.619 4.27762C177.804 3.80569 178.454 3.38166 179.004 3.37988C179.312 3.3915 179.609 3.49164 179.857 3.66725C180.104 3.84287 180.291 4.08584 180.393 4.36456C180.719 5.21262 181.033 6.06246 181.359 6.90875C181.77 7.97327 182.124 9.0573 182.565 10.1112C182.583 10.1651 182.614 10.2141 182.655 10.2542C182.697 10.2944 182.748 10.3244 182.804 10.3418C184.826 11.0409 186.85 11.7363 188.867 12.4496C189.552 12.6926 190.063 13.3065 189.891 14.0357Z" fill="#FFAF45"/>
</svg>
