<svg width="30" height="30" viewBox="0 0 30 30" fill="none" xmlns="http://www.w3.org/2000/svg">
<path d="M12.967 12.4602C10.4189 12.4602 8.33008 10.3713 8.33008 7.82325V5.8017C8.33008 3.25365 10.4189 1.16479 12.967 1.16479C15.515 1.16479 17.6039 3.25365 17.6039 5.8017V7.82325C17.6039 10.3713 15.515 12.4602 12.967 12.4602Z" stroke="#8F8F8F" stroke-width="2"/>
<path d="M15.6637 25.0606C15.6637 26.4294 16.0412 27.708 16.6946 28.8015H3.23486V23.0005C3.23486 19.1773 6.00656 15.9627 9.64168 15.2742C10.6528 15.7445 11.7787 16.0127 12.967 16.0127C14.1554 16.0127 15.2813 15.7441 16.2921 15.2742C18.1379 15.6241 19.7622 16.6298 20.9141 18.04C17.8804 18.9343 15.6637 21.7344 15.6637 25.0606Z" stroke="#8F8F8F" stroke-width="2"/>
<path d="M22.9909 20.3197C20.3726 20.3197 18.25 22.4423 18.25 25.0606C18.25 27.6788 20.3726 29.8015 22.9909 29.8015C25.6091 29.8015 27.7318 27.6788 27.7318 25.0606C27.7318 22.4423 25.6091 20.3197 22.9909 20.3197ZM24.1589 27.8511H23.3663H21.7498L22.4551 24.3941L21.7498 23.9657H22.5424H24.1589L23.4535 27.4226L24.1589 27.8511ZM23.4101 23.4434C22.956 23.4434 22.5882 23.0753 22.5882 22.6215C22.5882 22.1674 22.956 21.7996 23.4101 21.7996C23.8642 21.7996 24.232 22.1674 24.232 22.6215C24.232 23.0756 23.8642 23.4434 23.4101 23.4434Z" fill="#8F8F8F"/>
</svg>
