<?xml version="1.0" encoding="iso-8859-1"?>
<!-- Uploaded to: SVG Repo, www.svgrepo.com, Generator: SVG Repo Mixer Tools -->
<svg fill="#000000" height="800px" width="800px" version="1.1" id="Layer_1" xmlns="http://www.w3.org/2000/svg" xmlns:xlink="http://www.w3.org/1999/xlink" 
	 viewBox="0 0 512 512" xml:space="preserve">
<g>
	<g>
		<path d="M399.389,216.586c-4.919,0-8.907,3.988-8.907,8.906v268.694H121.518V164.931h25.78v36.345
			c0,4.919,3.988,8.906,8.906,8.906h199.597c4.919,0,8.906-3.988,8.906-8.906v-36.345h25.773v30.282
			c0.001,4.918,3.989,8.905,8.908,8.905s8.906-3.988,8.906-8.906v-39.189c0-4.919-3.988-8.907-8.906-8.907h-34.68V36.783
			C364.709,16.501,348.209,0,327.927,0H184.08c-20.282,0-36.783,16.501-36.783,36.783v31.964c0,4.919,3.988,8.906,8.906,8.906
			s8.906-3.988,8.906-8.906V36.783c0-10.46,8.51-18.97,18.97-18.97h82.312v174.556H165.111V102.59c0-4.919-3.988-8.907-8.906-8.907
			s-8.906,3.988-8.906,8.907v44.528h-34.687c-4.919,0-8.906,3.988-8.906,8.906v347.069c0,4.919,3.988,8.906,8.906,8.906h286.778
			c4.919,0,8.906-3.988,8.906-8.906V225.493C408.296,220.574,404.308,216.586,399.389,216.586z M324.958,17.813h2.969
			c10.46,0,18.97,8.51,18.97,18.97v155.586h-21.939V17.813z M284.206,17.813h22.938v174.556h-22.938V17.813z"/>
	</g>
</g>
<g>
	<g>
		<path d="M353.972,229.055H158.037c-4.919,0-8.906,3.988-8.906,8.906v51.655c0,4.919,3.988,8.906,8.906,8.906h30.578
			c4.919,0,8.906-3.988,8.906-8.906c0-4.919-3.988-8.907-8.906-8.907h-21.671v-33.842h178.121v33.842H219.49
			c-4.919,0-8.906,3.988-8.906,8.907c0,4.919,3.988,8.906,8.906,8.906h134.481c4.919,0,8.906-3.988,8.906-8.906v-51.655
			C362.878,233.043,358.89,229.055,353.972,229.055z"/>
	</g>
</g>
<g>
	<g>
		<path d="M202.884,312.772h-44.846c-4.919,0-8.907,3.988-8.907,8.906v51.655c0,4.919,3.988,8.907,8.907,8.907h44.846
			c4.919,0,8.907-3.988,8.907-8.907v-51.655C211.79,316.76,207.803,312.772,202.884,312.772z M193.977,364.427h-27.033v-33.842
			h27.033V364.427z"/>
	</g>
</g>
<g>
	<g>
		<path d="M353.972,312.772h-44.846c-4.919,0-8.907,3.988-8.907,8.906v51.655c0,4.919,3.988,8.907,8.907,8.907h44.846
			c4.919,0,8.907-3.988,8.907-8.907v-51.655C362.878,316.76,358.89,312.772,353.972,312.772z M345.065,364.427h-27.033v-33.842
			h27.033V364.427z"/>
	</g>
</g>
<g>
	<g>
		<path d="M278.427,312.772H233.58c-4.919,0-8.906,3.988-8.906,8.906v51.655c0,4.919,3.988,8.907,8.906,8.907h44.846
			c4.919,0,8.906-3.988,8.906-8.907v-51.655C287.333,316.76,283.345,312.772,278.427,312.772z M269.52,364.427h-27.033v-33.842
			h27.033V364.427z"/>
	</g>
</g>
<g>
	<g>
		<path d="M202.884,394.708h-44.846c-4.919,0-8.907,3.988-8.907,8.906v51.655c0,4.919,3.988,8.907,8.907,8.907h44.846
			c4.919,0,8.907-3.988,8.907-8.907v-51.655C211.79,398.696,207.803,394.708,202.884,394.708z M193.977,446.364h-27.033v-33.842
			h27.033V446.364z"/>
	</g>
</g>
<g>
	<g>
		<path d="M353.972,394.708h-44.846c-4.919,0-8.907,3.988-8.907,8.906v51.655c0,4.919,3.988,8.907,8.907,8.907h44.846
			c4.919,0,8.907-3.988,8.907-8.907v-51.655C362.878,398.696,358.89,394.708,353.972,394.708z M345.065,446.364h-27.033v-33.842
			h27.033V446.364z"/>
	</g>
</g>
<g>
	<g>
		<path d="M278.427,394.708H233.58c-4.919,0-8.906,3.988-8.906,8.906v51.655c0,4.919,3.988,8.907,8.906,8.907h44.846
			c4.919,0,8.906-3.988,8.906-8.907v-51.655C287.333,398.696,283.345,394.708,278.427,394.708z M269.52,446.364h-27.033v-33.842
			h27.033V446.364z"/>
	</g>
</g>
</svg>