<svg width="22" height="32" viewBox="0 0 22 32" fill="none" xmlns="http://www.w3.org/2000/svg">
<path d="M1 30.6154C1 30.8278 1.22383 31 1.5 31H20.5C20.7762 31 21 30.8278 21 30.6154V1.38462C21 1.17218 20.7762 1 20.5 1H1.5C1.22383 1 1 1.17218 1 1.38462V30.6154Z" stroke="#8F8F8F" stroke-width="1.5" stroke-miterlimit="10" stroke-linecap="round" stroke-linejoin="round"/>
<path d="M3.83325 14.0769V3.17944H18.1666V28.8205H3.83325V23.0512" stroke="#8F8F8F" stroke-width="1.5" stroke-miterlimit="10" stroke-linecap="round" stroke-linejoin="round"/>
<path d="M5.16659 19.077V21C5.16659 21 5.10375 21.2564 4.04142 21.2564C2.97909 21.2564 2.83325 21 2.83325 21V16.1282C2.83325 16.1282 3.17792 15.8718 4.10425 15.8718C5.03059 15.8718 5.16659 16.1282 5.16659 16.1282V16.7693" stroke="#8F8F8F" stroke-width="0.5" stroke-miterlimit="10" stroke-linecap="round" stroke-linejoin="round"/>
<path d="M7.33333 17.9231H4.5" stroke="#8F8F8F" stroke-width="0.5" stroke-miterlimit="10" stroke-linecap="round" stroke-linejoin="round"/>
<path d="M13.3129 13.2831L12.3748 12.7134L12.2307 12.6258L12.7203 10.2261L12.904 9.3262H12.7455C12.7792 9.20389 12.7972 9.07509 12.7972 8.94207C12.7972 8.64861 12.7096 8.37563 12.5593 8.14781C13.5668 8.69982 14.25 9.77016 14.25 11C14.25 11.8899 13.8923 12.6962 13.3129 13.2831ZM7.75 11C7.75 10.5623 7.83655 10.1448 7.99346 9.76362L9.56349 10.7172L9.70761 10.8048L9.21798 13.2044L9.12594 13.6555C8.29352 13.067 7.75 12.0969 7.75 11ZM9.96189 9.3262H9.95284H8.21363C8.69752 8.52243 9.51935 7.94513 10.4824 7.79099C10.1347 8.05454 9.91021 8.47203 9.91021 8.94207C9.91021 9.07507 9.9282 9.20388 9.96189 9.3262ZM11 14.25C10.6641 14.25 10.34 14.199 10.0352 14.1044H11.3167H11.9648C11.66 14.199 11.3359 14.25 11 14.25Z" fill="#8F8F8F" stroke="#8F8F8F" stroke-width="1.5"/>
</svg>
