<svg width="318" height="245" viewBox="0 0 318 245" fill="none" xmlns="http://www.w3.org/2000/svg">
<path d="M238.447 96.4183C243.96 97.6745 248.817 100.916 252.092 105.524C255.367 110.132 256.832 115.785 256.206 121.404C255.58 127.023 252.908 132.215 248.699 135.989C244.489 139.764 239.038 141.857 233.385 141.87H170.098C162.964 141.877 156.082 139.233 150.788 134.451C145.494 129.67 142.165 123.092 141.448 115.994C140.731 108.896 142.677 101.785 146.908 96.0416C151.139 90.2979 157.354 86.3313 164.345 84.9117V84.3363C164.341 81.2935 165.142 78.3039 166.666 75.6703C168.19 73.0368 170.383 70.8529 173.024 69.3401C175.664 67.8273 178.657 67.0394 181.699 67.0561C184.742 67.0728 187.726 67.8936 190.35 69.4352C194.387 65.4462 199.518 62.7461 205.092 61.6772C210.665 60.6083 216.431 61.2189 221.658 63.4314C226.884 65.644 231.335 69.3589 234.448 74.105C237.56 78.8511 239.192 84.4145 239.138 90.0897C239.138 92.2759 238.908 94.3471 238.447 96.4183Z" fill="url(#paint0_linear_301_4338)"/>
<path d="M129.283 147.03H84.8792C78.6558 147.03 72.8628 144.877 68.5676 140.966C64.1085 136.906 61.6526 131.276 61.6526 125.112C61.6526 118.849 63.9394 113.448 68.2653 109.493C71.3582 106.662 75.4758 104.655 80.0802 103.693C80.5046 103.605 80.902 103.417 81.2396 103.145C81.5773 102.872 81.8454 102.523 82.022 102.126C83.6613 98.4263 86.1168 95.1477 89.2034 92.5374C93.719 88.7583 99.3104 86.7567 105.373 86.7567C112.193 86.7269 118.756 89.3617 123.671 94.1024C127.895 98.1794 130.759 103.568 132.07 109.856C132.175 110.371 132.427 110.845 132.794 111.222C133.161 111.598 133.628 111.86 134.14 111.977C141.921 113.712 149.094 119.364 149.094 129.222C149.094 134.939 147.004 139.629 143.046 142.788C139.569 145.562 134.811 147.03 129.283 147.03Z" fill="url(#paint1_linear_301_4338)"/>
<circle cx="99.2089" cy="22.9448" r="6.05012" fill="white"/>
<circle cx="230.713" cy="53.3095" r="6.05012" fill="white"/>
<circle cx="211.307" cy="6.05012" r="6.05012" fill="white"/>
<circle cx="67.7027" cy="85.0441" r="6.05012" fill="white"/>
<circle cx="211.307" cy="125.911" r="6.05012" fill="white"/>
<g clip-path="url(#clip0_301_4338)">
<path d="M160.509 31.4809C151.157 31.4809 142.015 34.2541 134.239 39.4498C126.463 44.6455 120.403 52.0304 116.824 60.6706C113.245 69.3107 112.308 78.8181 114.133 87.9905C115.957 97.1628 120.461 105.588 127.074 112.201C133.687 118.814 142.112 123.317 151.284 125.142C160.457 126.966 169.964 126.03 178.604 122.451C187.244 118.872 194.629 112.812 199.825 105.036C205.021 97.2597 207.794 88.1177 207.794 78.7657C207.794 66.225 202.812 54.1979 193.945 45.3303C185.077 36.4627 173.05 31.4809 160.509 31.4809ZM191.392 62.8957L152.559 101.699L129.626 78.7657C128.842 77.9819 128.402 76.9188 128.402 75.8104C128.402 74.7019 128.842 73.6389 129.626 72.8551C130.41 72.0713 131.473 71.631 132.582 71.631C133.69 71.631 134.753 72.0713 135.537 72.8551L152.619 89.9367L185.541 57.0442C185.929 56.6561 186.389 56.3483 186.896 56.1382C187.404 55.9282 187.947 55.8201 188.496 55.8201C189.045 55.8201 189.588 55.9282 190.095 56.1382C190.602 56.3483 191.063 56.6561 191.451 57.0442C191.839 57.4323 192.147 57.8931 192.357 58.4001C192.567 58.9072 192.675 59.4507 192.675 59.9995C192.675 60.5484 192.567 61.0919 192.357 61.5989C192.147 62.106 191.839 62.5667 191.451 62.9548L191.392 62.8957Z" fill="#CCCCCC"/>
</g>
<path d="M128.084 181.245C127.244 181.245 126.464 181.089 125.744 180.777C125.024 180.453 124.412 180.015 123.908 179.463C123.404 178.911 123.032 178.275 122.792 177.555L124.592 176.799C124.916 177.627 125.39 178.263 126.014 178.707C126.638 179.151 127.358 179.373 128.174 179.373C128.654 179.373 129.074 179.301 129.434 179.157C129.794 179.001 130.07 178.785 130.262 178.509C130.466 178.233 130.568 177.915 130.568 177.555C130.568 177.063 130.43 176.673 130.154 176.385C129.878 176.097 129.47 175.869 128.93 175.701L126.41 174.909C125.402 174.597 124.634 174.123 124.106 173.487C123.578 172.839 123.314 172.083 123.314 171.219C123.314 170.463 123.5 169.803 123.872 169.239C124.244 168.663 124.754 168.213 125.402 167.889C126.062 167.565 126.812 167.403 127.652 167.403C128.456 167.403 129.188 167.547 129.848 167.835C130.508 168.111 131.072 168.495 131.54 168.987C132.02 169.479 132.368 170.049 132.584 170.697L130.82 171.471C130.556 170.763 130.142 170.217 129.578 169.833C129.026 169.449 128.384 169.257 127.652 169.257C127.208 169.257 126.818 169.335 126.482 169.491C126.146 169.635 125.882 169.851 125.69 170.139C125.51 170.415 125.42 170.739 125.42 171.111C125.42 171.543 125.558 171.927 125.834 172.263C126.11 172.599 126.53 172.851 127.094 173.019L129.434 173.757C130.502 174.081 131.306 174.549 131.846 175.161C132.386 175.761 132.656 176.511 132.656 177.411C132.656 178.155 132.458 178.815 132.062 179.391C131.678 179.967 131.144 180.423 130.46 180.759C129.776 181.083 128.984 181.245 128.084 181.245ZM138.316 181.245C137.584 181.245 136.942 181.083 136.39 180.759C135.838 180.423 135.406 179.961 135.094 179.373C134.794 178.773 134.644 178.083 134.644 177.303V171.291H136.678V177.123C136.678 177.567 136.768 177.957 136.948 178.293C137.128 178.629 137.38 178.893 137.704 179.085C138.028 179.265 138.4 179.355 138.82 179.355C139.252 179.355 139.63 179.259 139.954 179.067C140.278 178.875 140.53 178.605 140.71 178.257C140.902 177.909 140.998 177.501 140.998 177.033V171.291H143.014V181.029H141.088V179.121L141.304 179.373C141.076 179.973 140.698 180.435 140.17 180.759C139.642 181.083 139.024 181.245 138.316 181.245ZM150.015 181.245C149.043 181.245 148.179 181.023 147.423 180.579C146.679 180.123 146.085 179.511 145.641 178.743C145.209 177.975 144.993 177.105 144.993 176.133C144.993 175.173 145.209 174.309 145.641 173.541C146.073 172.773 146.667 172.173 147.423 171.741C148.179 171.297 149.043 171.075 150.015 171.075C150.675 171.075 151.293 171.195 151.869 171.435C152.445 171.663 152.943 171.981 153.363 172.389C153.795 172.797 154.113 173.271 154.317 173.811L152.535 174.639C152.331 174.135 152.001 173.733 151.545 173.433C151.101 173.121 150.591 172.965 150.015 172.965C149.463 172.965 148.965 173.103 148.521 173.379C148.089 173.643 147.747 174.021 147.495 174.513C147.243 174.993 147.117 175.539 147.117 176.151C147.117 176.763 147.243 177.315 147.495 177.807C147.747 178.287 148.089 178.665 148.521 178.941C148.965 179.217 149.463 179.355 150.015 179.355C150.603 179.355 151.113 179.205 151.545 178.905C151.989 178.593 152.319 178.179 152.535 177.663L154.317 178.509C154.125 179.025 153.813 179.493 153.381 179.913C152.961 180.321 152.463 180.645 151.887 180.885C151.311 181.125 150.687 181.245 150.015 181.245ZM160.931 181.245C159.959 181.245 159.095 181.023 158.339 180.579C157.595 180.123 157.001 179.511 156.557 178.743C156.125 177.975 155.909 177.105 155.909 176.133C155.909 175.173 156.125 174.309 156.557 173.541C156.989 172.773 157.583 172.173 158.339 171.741C159.095 171.297 159.959 171.075 160.931 171.075C161.591 171.075 162.209 171.195 162.785 171.435C163.361 171.663 163.859 171.981 164.279 172.389C164.711 172.797 165.029 173.271 165.233 173.811L163.451 174.639C163.247 174.135 162.917 173.733 162.461 173.433C162.017 173.121 161.507 172.965 160.931 172.965C160.379 172.965 159.881 173.103 159.437 173.379C159.005 173.643 158.663 174.021 158.411 174.513C158.159 174.993 158.033 175.539 158.033 176.151C158.033 176.763 158.159 177.315 158.411 177.807C158.663 178.287 159.005 178.665 159.437 178.941C159.881 179.217 160.379 179.355 160.931 179.355C161.519 179.355 162.029 179.205 162.461 178.905C162.905 178.593 163.235 178.179 163.451 177.663L165.233 178.509C165.041 179.025 164.729 179.493 164.297 179.913C163.877 180.321 163.379 180.645 162.803 180.885C162.227 181.125 161.603 181.245 160.931 181.245ZM171.793 181.245C170.821 181.245 169.957 181.023 169.201 180.579C168.457 180.123 167.875 179.511 167.455 178.743C167.035 177.963 166.825 177.093 166.825 176.133C166.825 175.149 167.035 174.279 167.455 173.523C167.887 172.767 168.463 172.173 169.183 171.741C169.903 171.297 170.719 171.075 171.631 171.075C172.363 171.075 173.017 171.201 173.593 171.453C174.169 171.705 174.655 172.053 175.051 172.497C175.447 172.929 175.747 173.427 175.951 173.991C176.167 174.555 176.275 175.155 176.275 175.791C176.275 175.947 176.269 176.109 176.257 176.277C176.245 176.445 176.221 176.601 176.185 176.745H168.427V175.125H175.033L174.061 175.863C174.181 175.275 174.139 174.753 173.935 174.297C173.743 173.829 173.443 173.463 173.035 173.199C172.639 172.923 172.171 172.785 171.631 172.785C171.091 172.785 170.611 172.923 170.191 173.199C169.771 173.463 169.447 173.847 169.219 174.351C168.991 174.843 168.901 175.443 168.949 176.151C168.889 176.811 168.979 177.387 169.219 177.879C169.471 178.371 169.819 178.755 170.263 179.031C170.719 179.307 171.235 179.445 171.811 179.445C172.399 179.445 172.897 179.313 173.305 179.049C173.725 178.785 174.055 178.443 174.295 178.023L175.951 178.833C175.759 179.289 175.459 179.703 175.051 180.075C174.655 180.435 174.175 180.723 173.611 180.939C173.059 181.143 172.453 181.245 171.793 181.245ZM181.86 181.245C180.864 181.245 179.988 180.999 179.232 180.507C178.488 180.015 177.966 179.355 177.666 178.527L179.232 177.789C179.496 178.341 179.856 178.779 180.312 179.103C180.78 179.427 181.296 179.589 181.86 179.589C182.34 179.589 182.73 179.481 183.03 179.265C183.33 179.049 183.48 178.755 183.48 178.383C183.48 178.143 183.414 177.951 183.282 177.807C183.15 177.651 182.982 177.525 182.778 177.429C182.586 177.333 182.388 177.261 182.184 177.213L180.654 176.781C179.814 176.541 179.184 176.181 178.764 175.701C178.356 175.209 178.152 174.639 178.152 173.991C178.152 173.403 178.302 172.893 178.602 172.461C178.902 172.017 179.316 171.675 179.844 171.435C180.372 171.195 180.966 171.075 181.626 171.075C182.514 171.075 183.306 171.297 184.002 171.741C184.698 172.173 185.19 172.779 185.478 173.559L183.912 174.297C183.72 173.829 183.414 173.457 182.994 173.181C182.586 172.905 182.124 172.767 181.608 172.767C181.164 172.767 180.81 172.875 180.546 173.091C180.282 173.295 180.15 173.565 180.15 173.901C180.15 174.129 180.21 174.321 180.33 174.477C180.45 174.621 180.606 174.741 180.798 174.837C180.99 174.921 181.188 174.993 181.392 175.053L182.976 175.521C183.78 175.749 184.398 176.109 184.83 176.601C185.262 177.081 185.478 177.657 185.478 178.329C185.478 178.905 185.322 179.415 185.01 179.859C184.71 180.291 184.29 180.633 183.75 180.885C183.21 181.125 182.58 181.245 181.86 181.245ZM191.071 181.245C190.075 181.245 189.199 180.999 188.443 180.507C187.699 180.015 187.177 179.355 186.877 178.527L188.443 177.789C188.707 178.341 189.067 178.779 189.523 179.103C189.991 179.427 190.507 179.589 191.071 179.589C191.551 179.589 191.941 179.481 192.241 179.265C192.541 179.049 192.691 178.755 192.691 178.383C192.691 178.143 192.625 177.951 192.493 177.807C192.361 177.651 192.193 177.525 191.989 177.429C191.797 177.333 191.599 177.261 191.395 177.213L189.865 176.781C189.025 176.541 188.395 176.181 187.975 175.701C187.567 175.209 187.363 174.639 187.363 173.991C187.363 173.403 187.513 172.893 187.813 172.461C188.113 172.017 188.527 171.675 189.055 171.435C189.583 171.195 190.177 171.075 190.837 171.075C191.725 171.075 192.517 171.297 193.213 171.741C193.909 172.173 194.401 172.779 194.689 173.559L193.123 174.297C192.931 173.829 192.625 173.457 192.205 173.181C191.797 172.905 191.335 172.767 190.819 172.767C190.375 172.767 190.021 172.875 189.757 173.091C189.493 173.295 189.361 173.565 189.361 173.901C189.361 174.129 189.421 174.321 189.541 174.477C189.661 174.621 189.817 174.741 190.009 174.837C190.201 174.921 190.399 174.993 190.603 175.053L192.187 175.521C192.991 175.749 193.609 176.109 194.041 176.601C194.473 177.081 194.689 177.657 194.689 178.329C194.689 178.905 194.533 179.415 194.221 179.859C193.921 180.291 193.501 180.633 192.961 180.885C192.421 181.125 191.791 181.245 191.071 181.245Z" fill="black"/>
<path d="M10.3422 209.029L6.91819 197.109H8.21419L11.1742 207.781H10.9022L13.9422 197.109H15.3022L18.3262 207.781H18.0382L21.0142 197.109H22.3102L18.8862 209.029H17.5262L14.4702 198.309H14.7582L11.7022 209.029H10.3422ZM26.9876 209.221C26.1876 209.221 25.4622 209.029 24.8116 208.645C24.1716 208.251 23.6649 207.712 23.2916 207.029C22.9182 206.347 22.7316 205.573 22.7316 204.709C22.7316 203.845 22.9129 203.083 23.2756 202.421C23.6382 201.749 24.1289 201.221 24.7476 200.837C25.3769 200.453 26.0809 200.261 26.8596 200.261C27.4782 200.261 28.0276 200.379 28.5076 200.613C28.9982 200.837 29.4142 201.147 29.7556 201.541C30.0969 201.925 30.3582 202.363 30.5396 202.853C30.7209 203.333 30.8116 203.829 30.8116 204.341C30.8116 204.448 30.8062 204.571 30.7956 204.709C30.7849 204.837 30.7689 204.971 30.7476 205.109H23.4996V203.989H30.0596L29.4836 204.469C29.5796 203.883 29.5102 203.36 29.2756 202.901C29.0516 202.432 28.7262 202.064 28.2996 201.797C27.8729 201.52 27.3929 201.381 26.8596 201.381C26.3262 201.381 25.8302 201.52 25.3716 201.797C24.9236 202.075 24.5716 202.464 24.3156 202.965C24.0596 203.456 23.9582 204.043 24.0116 204.725C23.9582 205.408 24.0649 206.005 24.3316 206.517C24.6089 207.019 24.9822 207.408 25.4516 207.685C25.9316 207.963 26.4436 208.101 26.9876 208.101C27.6169 208.101 28.1449 207.952 28.5716 207.653C28.9982 207.355 29.3449 206.981 29.6116 206.533L30.6356 207.077C30.4649 207.461 30.2036 207.819 29.8516 208.149C29.4996 208.469 29.0782 208.731 28.5876 208.933C28.1076 209.125 27.5742 209.221 26.9876 209.221ZM37.5341 209.029L34.5901 200.453H35.9501L38.3821 207.957H37.9021L40.1901 200.453H41.3901L43.6781 207.957H43.1981L45.6461 200.453H46.9901L44.0461 209.029H42.8461L40.6221 201.685H40.9581L38.7341 209.029H37.5341ZM48.3961 209.029V200.453H49.5961V209.029H48.3961ZM48.3961 198.869V197.109H49.5961V198.869H48.3961ZM52.0523 209.029V196.917H53.2523V209.029H52.0523ZM55.7086 209.029V196.917H56.9086V209.029H55.7086ZM62.9636 209.029V201.653H61.2516V200.453H62.9636V199.685C62.9636 199.088 63.0969 198.587 63.3636 198.181C63.6302 197.765 63.9822 197.451 64.4196 197.237C64.8569 197.024 65.3262 196.917 65.8276 196.917C65.9342 196.917 66.0569 196.928 66.1956 196.949C66.3342 196.96 66.4462 196.976 66.5316 196.997V198.085C66.4569 198.064 66.3556 198.053 66.2276 198.053C66.0996 198.043 66.0089 198.037 65.9556 198.037C65.4436 198.037 65.0169 198.16 64.6756 198.405C64.3342 198.651 64.1636 199.077 64.1636 199.685V200.453H66.2596V201.653H64.1636V209.029H62.9636ZM71.4048 209.221C70.8075 209.221 70.2635 209.083 69.7728 208.805C69.2821 208.517 68.8928 208.123 68.6048 207.621C68.3275 207.109 68.1888 206.523 68.1888 205.861V200.453H69.3888V205.717C69.3888 206.176 69.4795 206.581 69.6608 206.933C69.8528 207.275 70.1141 207.541 70.4448 207.733C70.7861 207.925 71.1755 208.021 71.6128 208.021C72.0501 208.021 72.4395 207.925 72.7808 207.733C73.1221 207.531 73.3888 207.248 73.5808 206.885C73.7728 206.512 73.8688 206.069 73.8688 205.557V200.453H75.0688V209.029H73.8688V207.365L74.1408 207.429C73.9381 207.984 73.5915 208.421 73.1008 208.741C72.6101 209.061 72.0448 209.221 71.4048 209.221ZM77.5367 209.029V200.453H78.7367V201.861L78.5767 201.653C78.7794 201.248 79.0834 200.928 79.4887 200.693C79.9047 200.459 80.406 200.341 80.9927 200.341H81.5367V201.541H80.7847C80.166 201.541 79.67 201.733 79.2967 202.117C78.9234 202.501 78.7367 203.045 78.7367 203.749V209.029H77.5367ZM86.2229 209.125C85.4549 209.125 84.8629 208.901 84.4469 208.453C84.0309 208.005 83.8229 207.365 83.8229 206.533V201.653H82.2389V200.453H82.6389C83.0016 200.453 83.2896 200.336 83.5029 200.101C83.7163 199.856 83.8229 199.552 83.8229 199.189V198.469H85.0229V200.453H86.9109V201.653H85.0229V206.533C85.0229 206.821 85.0656 207.077 85.1509 207.301C85.2363 207.515 85.3803 207.685 85.5829 207.813C85.7963 207.941 86.0789 208.005 86.4309 208.005C86.5163 208.005 86.6176 208 86.7349 207.989C86.8523 207.979 86.9536 207.968 87.0389 207.957V209.029C86.9109 209.061 86.7669 209.083 86.6069 209.093C86.4469 209.115 86.3189 209.125 86.2229 209.125ZM89.1461 209.029V196.917H90.3461V202.117L90.0741 202.053C90.2874 201.499 90.6341 201.061 91.1141 200.741C91.6047 200.421 92.1701 200.261 92.8101 200.261C93.4181 200.261 93.9621 200.4 94.4421 200.677C94.9327 200.955 95.3167 201.339 95.5941 201.829C95.8821 202.309 96.0261 202.853 96.0261 203.461V209.029H94.8261V203.925C94.8261 203.403 94.7301 202.96 94.5381 202.597C94.3461 202.235 94.0794 201.957 93.7381 201.765C93.4074 201.563 93.0287 201.461 92.6021 201.461C92.1754 201.461 91.7914 201.563 91.4501 201.765C91.1087 201.957 90.8367 202.24 90.6341 202.613C90.4421 202.976 90.3461 203.413 90.3461 203.925V209.029H89.1461ZM102.222 209.221C101.422 209.221 100.697 209.029 100.046 208.645C99.4059 208.251 98.8993 207.712 98.5259 207.029C98.1526 206.347 97.9659 205.573 97.9659 204.709C97.9659 203.845 98.1473 203.083 98.5099 202.421C98.8726 201.749 99.3633 201.221 99.9819 200.837C100.611 200.453 101.315 200.261 102.094 200.261C102.713 200.261 103.262 200.379 103.742 200.613C104.233 200.837 104.649 201.147 104.99 201.541C105.331 201.925 105.593 202.363 105.774 202.853C105.955 203.333 106.046 203.829 106.046 204.341C106.046 204.448 106.041 204.571 106.03 204.709C106.019 204.837 106.003 204.971 105.982 205.109H98.7339V203.989H105.294L104.718 204.469C104.814 203.883 104.745 203.36 104.51 202.901C104.286 202.432 103.961 202.064 103.534 201.797C103.107 201.52 102.627 201.381 102.094 201.381C101.561 201.381 101.065 201.52 100.606 201.797C100.158 202.075 99.8059 202.464 99.5499 202.965C99.2939 203.456 99.1926 204.043 99.2459 204.725C99.1926 205.408 99.2993 206.005 99.5659 206.517C99.8433 207.019 100.217 207.408 100.686 207.685C101.166 207.963 101.678 208.101 102.222 208.101C102.851 208.101 103.379 207.952 103.806 207.653C104.233 207.355 104.579 206.981 104.846 206.533L105.87 207.077C105.699 207.461 105.438 207.819 105.086 208.149C104.734 208.469 104.313 208.731 103.822 208.933C103.342 209.125 102.809 209.221 102.222 209.221ZM108.162 209.029V200.453H109.362V201.861L109.202 201.653C109.404 201.248 109.708 200.928 110.114 200.693C110.53 200.459 111.031 200.341 111.618 200.341H112.162V201.541H111.41C110.791 201.541 110.295 201.733 109.922 202.117C109.548 202.501 109.362 203.045 109.362 203.749V209.029H108.162ZM120.207 209.221C119.364 209.221 118.623 209.024 117.983 208.629C117.343 208.235 116.841 207.701 116.479 207.029C116.116 206.347 115.935 205.579 115.935 204.725C115.935 203.872 116.116 203.109 116.479 202.437C116.841 201.765 117.343 201.237 117.983 200.853C118.623 200.459 119.364 200.261 120.207 200.261C120.74 200.261 121.241 200.357 121.711 200.549C122.18 200.741 122.596 201.003 122.959 201.333C123.321 201.653 123.593 202.027 123.775 202.453L122.687 203.013C122.473 202.555 122.148 202.181 121.711 201.893C121.273 201.605 120.772 201.461 120.207 201.461C119.641 201.461 119.129 201.605 118.671 201.893C118.223 202.171 117.865 202.56 117.599 203.061C117.343 203.552 117.215 204.112 117.215 204.741C117.215 205.36 117.343 205.92 117.599 206.421C117.865 206.912 118.223 207.301 118.671 207.589C119.129 207.877 119.641 208.021 120.207 208.021C120.772 208.021 121.268 207.877 121.695 207.589C122.132 207.301 122.463 206.917 122.687 206.437L123.775 207.029C123.593 207.445 123.321 207.819 122.959 208.149C122.596 208.48 122.18 208.741 121.711 208.933C121.241 209.125 120.74 209.221 120.207 209.221ZM129.896 209.221C129.086 209.221 128.35 209.029 127.688 208.645C127.027 208.251 126.499 207.717 126.104 207.045C125.72 206.363 125.528 205.589 125.528 204.725C125.528 203.872 125.72 203.109 126.104 202.437C126.488 201.765 127.006 201.237 127.656 200.853C128.318 200.459 129.064 200.261 129.896 200.261C130.728 200.261 131.47 200.453 132.12 200.837C132.782 201.221 133.299 201.749 133.672 202.421C134.056 203.093 134.248 203.861 134.248 204.725C134.248 205.6 134.051 206.379 133.656 207.061C133.262 207.733 132.734 208.261 132.072 208.645C131.422 209.029 130.696 209.221 129.896 209.221ZM129.896 208.021C130.472 208.021 130.99 207.877 131.448 207.589C131.918 207.301 132.286 206.907 132.552 206.405C132.83 205.904 132.968 205.344 132.968 204.725C132.968 204.107 132.83 203.552 132.552 203.061C132.286 202.571 131.918 202.181 131.448 201.893C130.99 201.605 130.472 201.461 129.896 201.461C129.32 201.461 128.798 201.605 128.328 201.893C127.87 202.181 127.502 202.571 127.224 203.061C126.947 203.552 126.808 204.107 126.808 204.725C126.808 205.344 126.947 205.904 127.224 206.405C127.502 206.907 127.87 207.301 128.328 207.589C128.798 207.877 129.32 208.021 129.896 208.021ZM136.365 209.029V200.453H137.565V202.117L137.293 202.053C137.506 201.499 137.853 201.061 138.333 200.741C138.823 200.421 139.389 200.261 140.029 200.261C140.637 200.261 141.181 200.4 141.661 200.677C142.151 200.955 142.535 201.339 142.813 201.829C143.101 202.309 143.245 202.853 143.245 203.461V209.029H142.045V203.925C142.045 203.403 141.949 202.96 141.757 202.597C141.575 202.235 141.314 201.957 140.973 201.765C140.642 201.563 140.258 201.461 139.821 201.461C139.383 201.461 138.994 201.563 138.653 201.765C138.311 201.957 138.045 202.24 137.853 202.613C137.661 202.976 137.565 203.413 137.565 203.925V209.029H136.365ZM148.817 209.125C148.049 209.125 147.457 208.901 147.041 208.453C146.625 208.005 146.417 207.365 146.417 206.533V201.653H144.833V200.453H145.233C145.595 200.453 145.883 200.336 146.097 200.101C146.31 199.856 146.417 199.552 146.417 199.189V198.469H147.617V200.453H149.505V201.653H147.617V206.533C147.617 206.821 147.659 207.077 147.745 207.301C147.83 207.515 147.974 207.685 148.177 207.813C148.39 207.941 148.673 208.005 149.025 208.005C149.11 208.005 149.211 208 149.329 207.989C149.446 207.979 149.547 207.968 149.633 207.957V209.029C149.505 209.061 149.361 209.083 149.201 209.093C149.041 209.115 148.913 209.125 148.817 209.125ZM154.064 209.221C153.52 209.221 153.034 209.12 152.608 208.917C152.181 208.704 151.845 208.416 151.6 208.053C151.354 207.691 151.232 207.275 151.232 206.805C151.232 206.357 151.328 205.952 151.52 205.589C151.712 205.216 152.01 204.901 152.416 204.645C152.821 204.389 153.338 204.208 153.968 204.101L157.328 203.541V204.629L154.256 205.141C153.637 205.248 153.189 205.445 152.912 205.733C152.645 206.021 152.512 206.363 152.512 206.757C152.512 207.141 152.661 207.467 152.96 207.733C153.269 208 153.664 208.133 154.144 208.133C154.73 208.133 155.242 208.011 155.68 207.765C156.117 207.509 156.458 207.168 156.704 206.741C156.949 206.315 157.072 205.84 157.072 205.317V203.141C157.072 202.629 156.885 202.213 156.512 201.893C156.138 201.573 155.653 201.413 155.056 201.413C154.533 201.413 154.074 201.547 153.68 201.813C153.285 202.069 152.992 202.405 152.8 202.821L151.712 202.229C151.872 201.867 152.122 201.536 152.464 201.237C152.816 200.939 153.216 200.704 153.664 200.533C154.112 200.352 154.576 200.261 155.056 200.261C155.685 200.261 156.24 200.384 156.72 200.629C157.21 200.875 157.589 201.216 157.856 201.653C158.133 202.08 158.272 202.576 158.272 203.141V209.029H157.072V207.317L157.248 207.493C157.098 207.813 156.864 208.107 156.544 208.373C156.234 208.629 155.866 208.837 155.44 208.997C155.024 209.147 154.565 209.221 154.064 209.221ZM164.66 209.221C163.817 209.221 163.076 209.024 162.436 208.629C161.796 208.235 161.294 207.701 160.932 207.029C160.569 206.347 160.388 205.579 160.388 204.725C160.388 203.872 160.569 203.109 160.932 202.437C161.294 201.765 161.796 201.237 162.436 200.853C163.076 200.459 163.817 200.261 164.66 200.261C165.193 200.261 165.694 200.357 166.164 200.549C166.633 200.741 167.049 201.003 167.412 201.333C167.774 201.653 168.046 202.027 168.228 202.453L167.14 203.013C166.926 202.555 166.601 202.181 166.164 201.893C165.726 201.605 165.225 201.461 164.66 201.461C164.094 201.461 163.582 201.605 163.124 201.893C162.676 202.171 162.318 202.56 162.052 203.061C161.796 203.552 161.668 204.112 161.668 204.741C161.668 205.36 161.796 205.92 162.052 206.421C162.318 206.912 162.676 207.301 163.124 207.589C163.582 207.877 164.094 208.021 164.66 208.021C165.225 208.021 165.721 207.877 166.148 207.589C166.585 207.301 166.916 206.917 167.14 206.437L168.228 207.029C168.046 207.445 167.774 207.819 167.412 208.149C167.049 208.48 166.633 208.741 166.164 208.933C165.694 209.125 165.193 209.221 164.66 209.221ZM173.614 209.125C172.846 209.125 172.254 208.901 171.838 208.453C171.422 208.005 171.214 207.365 171.214 206.533V201.653H169.63V200.453H170.03C170.392 200.453 170.68 200.336 170.894 200.101C171.107 199.856 171.214 199.552 171.214 199.189V198.469H172.414V200.453H174.302V201.653H172.414V206.533C172.414 206.821 172.456 207.077 172.542 207.301C172.627 207.515 172.771 207.685 172.974 207.813C173.187 207.941 173.47 208.005 173.822 208.005C173.907 208.005 174.008 208 174.126 207.989C174.243 207.979 174.344 207.968 174.43 207.957V209.029C174.302 209.061 174.158 209.083 173.998 209.093C173.838 209.115 173.71 209.125 173.614 209.125ZM179.431 212.549C179.261 212.549 179.085 212.533 178.903 212.501C178.733 212.48 178.562 212.437 178.391 212.373V211.253C178.498 211.264 178.631 211.28 178.791 211.301C178.962 211.333 179.133 211.349 179.303 211.349C179.826 211.349 180.226 211.237 180.503 211.013C180.781 210.8 181.053 210.384 181.319 209.765L181.863 208.485L181.831 209.541L178.199 200.453H179.495L182.471 207.957H182.135L185.095 200.453H186.423L182.503 210.117C182.333 210.533 182.114 210.928 181.847 211.301C181.591 211.675 181.266 211.973 180.871 212.197C180.477 212.432 179.997 212.549 179.431 212.549ZM191.693 209.221C190.883 209.221 190.147 209.029 189.485 208.645C188.824 208.251 188.296 207.717 187.901 207.045C187.517 206.363 187.325 205.589 187.325 204.725C187.325 203.872 187.517 203.109 187.901 202.437C188.285 201.765 188.803 201.237 189.453 200.853C190.115 200.459 190.861 200.261 191.693 200.261C192.525 200.261 193.267 200.453 193.917 200.837C194.579 201.221 195.096 201.749 195.469 202.421C195.853 203.093 196.045 203.861 196.045 204.725C196.045 205.6 195.848 206.379 195.453 207.061C195.059 207.733 194.531 208.261 193.869 208.645C193.219 209.029 192.493 209.221 191.693 209.221ZM191.693 208.021C192.269 208.021 192.787 207.877 193.245 207.589C193.715 207.301 194.083 206.907 194.349 206.405C194.627 205.904 194.765 205.344 194.765 204.725C194.765 204.107 194.627 203.552 194.349 203.061C194.083 202.571 193.715 202.181 193.245 201.893C192.787 201.605 192.269 201.461 191.693 201.461C191.117 201.461 190.595 201.605 190.125 201.893C189.667 202.181 189.299 202.571 189.021 203.061C188.744 203.552 188.605 204.107 188.605 204.725C188.605 205.344 188.744 205.904 189.021 206.405C189.299 206.907 189.667 207.301 190.125 207.589C190.595 207.877 191.117 208.021 191.693 208.021ZM201.202 209.221C200.604 209.221 200.06 209.083 199.57 208.805C199.079 208.517 198.69 208.123 198.402 207.621C198.124 207.109 197.986 206.523 197.986 205.861V200.453H199.186V205.717C199.186 206.176 199.276 206.581 199.458 206.933C199.65 207.275 199.911 207.541 200.242 207.733C200.583 207.925 200.972 208.021 201.41 208.021C201.847 208.021 202.236 207.925 202.578 207.733C202.919 207.531 203.186 207.248 203.378 206.885C203.57 206.512 203.666 206.069 203.666 205.557V200.453H204.866V209.029H203.666V207.365L203.938 207.429C203.735 207.984 203.388 208.421 202.898 208.741C202.407 209.061 201.842 209.221 201.202 209.221ZM210.052 209.029V200.453H211.252V201.861L211.092 201.653C211.295 201.248 211.599 200.928 212.004 200.693C212.42 200.459 212.922 200.341 213.508 200.341H214.052V201.541H213.3C212.682 201.541 212.186 201.733 211.812 202.117C211.439 202.501 211.252 203.045 211.252 203.749V209.029H210.052ZM219.363 209.221C218.563 209.221 217.837 209.029 217.187 208.645C216.547 208.251 216.04 207.712 215.667 207.029C215.293 206.347 215.107 205.573 215.107 204.709C215.107 203.845 215.288 203.083 215.651 202.421C216.013 201.749 216.504 201.221 217.123 200.837C217.752 200.453 218.456 200.261 219.235 200.261C219.853 200.261 220.403 200.379 220.883 200.613C221.373 200.837 221.789 201.147 222.131 201.541C222.472 201.925 222.733 202.363 222.915 202.853C223.096 203.333 223.187 203.829 223.187 204.341C223.187 204.448 223.181 204.571 223.171 204.709C223.16 204.837 223.144 204.971 223.123 205.109H215.875V203.989H222.435L221.859 204.469C221.955 203.883 221.885 203.36 221.651 202.901C221.427 202.432 221.101 202.064 220.675 201.797C220.248 201.52 219.768 201.381 219.235 201.381C218.701 201.381 218.205 201.52 217.747 201.797C217.299 202.075 216.947 202.464 216.691 202.965C216.435 203.456 216.333 204.043 216.387 204.725C216.333 205.408 216.44 206.005 216.707 206.517C216.984 207.019 217.357 207.408 217.827 207.685C218.307 207.963 218.819 208.101 219.363 208.101C219.992 208.101 220.52 207.952 220.947 207.653C221.373 207.355 221.72 206.981 221.987 206.533L223.011 207.077C222.84 207.461 222.579 207.819 222.227 208.149C221.875 208.469 221.453 208.731 220.963 208.933C220.483 209.125 219.949 209.221 219.363 209.221ZM229.366 212.549C228.78 212.549 228.236 212.459 227.734 212.277C227.244 212.096 226.817 211.845 226.454 211.525C226.102 211.216 225.83 210.853 225.638 210.437L226.742 209.845C226.913 210.251 227.217 210.603 227.654 210.901C228.092 211.2 228.652 211.349 229.334 211.349C229.857 211.349 230.337 211.248 230.774 211.045C231.212 210.843 231.564 210.544 231.83 210.149C232.097 209.755 232.23 209.269 232.23 208.693V206.789L232.422 206.965C232.124 207.584 231.681 208.064 231.094 208.405C230.508 208.736 229.868 208.901 229.174 208.901C228.374 208.901 227.654 208.709 227.014 208.325C226.374 207.941 225.868 207.424 225.494 206.773C225.132 206.112 224.95 205.381 224.95 204.581C224.95 203.771 225.132 203.04 225.494 202.389C225.868 201.739 226.369 201.221 226.998 200.837C227.638 200.453 228.364 200.261 229.174 200.261C229.868 200.261 230.497 200.421 231.062 200.741C231.638 201.061 232.092 201.493 232.422 202.037L232.23 202.373V200.453H233.43V208.693C233.43 209.429 233.254 210.085 232.902 210.661C232.561 211.248 232.081 211.707 231.462 212.037C230.854 212.379 230.156 212.549 229.366 212.549ZM229.238 207.701C229.793 207.701 230.294 207.563 230.742 207.285C231.19 206.997 231.548 206.619 231.814 206.149C232.092 205.669 232.23 205.147 232.23 204.581C232.23 204.016 232.092 203.499 231.814 203.029C231.548 202.549 231.19 202.171 230.742 201.893C230.294 201.605 229.793 201.461 229.238 201.461C228.673 201.461 228.161 201.605 227.702 201.893C227.244 202.171 226.881 202.544 226.614 203.013C226.358 203.483 226.23 204.005 226.23 204.581C226.23 205.147 226.358 205.669 226.614 206.149C226.881 206.619 227.238 206.997 227.686 207.285C228.145 207.563 228.662 207.701 229.238 207.701ZM238.376 209.221C237.832 209.221 237.347 209.12 236.92 208.917C236.493 208.704 236.157 208.416 235.912 208.053C235.667 207.691 235.544 207.275 235.544 206.805C235.544 206.357 235.64 205.952 235.832 205.589C236.024 205.216 236.323 204.901 236.728 204.645C237.133 204.389 237.651 204.208 238.28 204.101L241.64 203.541V204.629L238.568 205.141C237.949 205.248 237.501 205.445 237.224 205.733C236.957 206.021 236.824 206.363 236.824 206.757C236.824 207.141 236.973 207.467 237.272 207.733C237.581 208 237.976 208.133 238.456 208.133C239.043 208.133 239.555 208.011 239.992 207.765C240.429 207.509 240.771 207.168 241.016 206.741C241.261 206.315 241.384 205.84 241.384 205.317V203.141C241.384 202.629 241.197 202.213 240.824 201.893C240.451 201.573 239.965 201.413 239.368 201.413C238.845 201.413 238.387 201.547 237.992 201.813C237.597 202.069 237.304 202.405 237.112 202.821L236.024 202.229C236.184 201.867 236.435 201.536 236.776 201.237C237.128 200.939 237.528 200.704 237.976 200.533C238.424 200.352 238.888 200.261 239.368 200.261C239.997 200.261 240.552 200.384 241.032 200.629C241.523 200.875 241.901 201.216 242.168 201.653C242.445 202.08 242.584 202.576 242.584 203.141V209.029H241.384V207.317L241.56 207.493C241.411 207.813 241.176 208.107 240.856 208.373C240.547 208.629 240.179 208.837 239.752 208.997C239.336 209.147 238.877 209.221 238.376 209.221ZM245.052 209.029V200.453H246.252V201.861L246.092 201.653C246.295 201.248 246.599 200.928 247.004 200.693C247.42 200.459 247.922 200.341 248.508 200.341H249.052V201.541H248.3C247.682 201.541 247.186 201.733 246.812 202.117C246.439 202.501 246.252 203.045 246.252 203.749V209.029H245.052ZM254.331 209.221C253.531 209.221 252.811 209.029 252.171 208.645C251.531 208.251 251.024 207.717 250.651 207.045C250.288 206.363 250.107 205.595 250.107 204.741C250.107 203.877 250.288 203.109 250.651 202.437C251.024 201.765 251.525 201.237 252.155 200.853C252.795 200.459 253.52 200.261 254.331 200.261C255.067 200.261 255.723 200.421 256.299 200.741C256.875 201.061 257.328 201.493 257.659 202.037L257.467 202.373V196.917H258.667V209.029H257.467V207.109L257.659 207.285C257.36 207.904 256.912 208.384 256.315 208.725C255.728 209.056 255.067 209.221 254.331 209.221ZM254.395 208.021C254.971 208.021 255.488 207.877 255.947 207.589C256.416 207.301 256.784 206.912 257.051 206.421C257.328 205.92 257.467 205.36 257.467 204.741C257.467 204.123 257.328 203.568 257.051 203.077C256.784 202.576 256.416 202.181 255.947 201.893C255.488 201.605 254.971 201.461 254.395 201.461C253.829 201.461 253.317 201.605 252.859 201.893C252.4 202.181 252.037 202.571 251.771 203.061C251.515 203.552 251.387 204.112 251.387 204.741C251.387 205.36 251.515 205.92 251.771 206.421C252.037 206.912 252.395 207.301 252.843 207.589C253.301 207.877 253.819 208.021 254.395 208.021ZM261.13 209.029V200.453H262.33V209.029H261.13ZM261.13 198.869V197.109H262.33V198.869H261.13ZM264.787 209.029V200.453H265.987V202.117L265.715 202.053C265.928 201.499 266.275 201.061 266.755 200.741C267.245 200.421 267.811 200.261 268.451 200.261C269.059 200.261 269.603 200.4 270.083 200.677C270.573 200.955 270.957 201.339 271.235 201.829C271.523 202.309 271.667 202.853 271.667 203.461V209.029H270.467V203.925C270.467 203.403 270.371 202.96 270.179 202.597C269.997 202.235 269.736 201.957 269.395 201.765C269.064 201.563 268.68 201.461 268.243 201.461C267.805 201.461 267.416 201.563 267.075 201.765C266.733 201.957 266.467 202.24 266.275 202.613C266.083 202.976 265.987 203.413 265.987 203.925V209.029H264.787ZM278.023 212.549C277.436 212.549 276.892 212.459 276.391 212.277C275.9 212.096 275.473 211.845 275.111 211.525C274.759 211.216 274.487 210.853 274.295 210.437L275.399 209.845C275.569 210.251 275.873 210.603 276.311 210.901C276.748 211.2 277.308 211.349 277.991 211.349C278.513 211.349 278.993 211.248 279.431 211.045C279.868 210.843 280.22 210.544 280.487 210.149C280.753 209.755 280.887 209.269 280.887 208.693V206.789L281.079 206.965C280.78 207.584 280.337 208.064 279.751 208.405C279.164 208.736 278.524 208.901 277.831 208.901C277.031 208.901 276.311 208.709 275.671 208.325C275.031 207.941 274.524 207.424 274.151 206.773C273.788 206.112 273.607 205.381 273.607 204.581C273.607 203.771 273.788 203.04 274.151 202.389C274.524 201.739 275.025 201.221 275.655 200.837C276.295 200.453 277.02 200.261 277.831 200.261C278.524 200.261 279.153 200.421 279.719 200.741C280.295 201.061 280.748 201.493 281.079 202.037L280.887 202.373V200.453H282.087V208.693C282.087 209.429 281.911 210.085 281.559 210.661C281.217 211.248 280.737 211.707 280.119 212.037C279.511 212.379 278.812 212.549 278.023 212.549ZM277.895 207.701C278.449 207.701 278.951 207.563 279.399 207.285C279.847 206.997 280.204 206.619 280.471 206.149C280.748 205.669 280.887 205.147 280.887 204.581C280.887 204.016 280.748 203.499 280.471 203.029C280.204 202.549 279.847 202.171 279.399 201.893C278.951 201.605 278.449 201.461 277.895 201.461C277.329 201.461 276.817 201.605 276.359 201.893C275.9 202.171 275.537 202.544 275.271 203.013C275.015 203.483 274.887 204.005 274.887 204.581C274.887 205.147 275.015 205.669 275.271 206.149C275.537 206.619 275.895 206.997 276.343 207.285C276.801 207.563 277.319 207.701 277.895 207.701ZM290.551 209.125C289.783 209.125 289.191 208.901 288.775 208.453C288.359 208.005 288.151 207.365 288.151 206.533V201.653H286.567V200.453H286.967C287.33 200.453 287.618 200.336 287.831 200.101C288.044 199.856 288.151 199.552 288.151 199.189V198.469H289.351V200.453H291.239V201.653H289.351V206.533C289.351 206.821 289.394 207.077 289.479 207.301C289.564 207.515 289.708 207.685 289.911 207.813C290.124 207.941 290.407 208.005 290.759 208.005C290.844 208.005 290.946 208 291.063 207.989C291.18 207.979 291.282 207.968 291.367 207.957V209.029C291.239 209.061 291.095 209.083 290.935 209.093C290.775 209.115 290.647 209.125 290.551 209.125ZM293.474 209.029V196.917H294.674V202.117L294.402 202.053C294.616 201.499 294.962 201.061 295.442 200.741C295.933 200.421 296.498 200.261 297.138 200.261C297.746 200.261 298.29 200.4 298.77 200.677C299.261 200.955 299.645 201.339 299.922 201.829C300.21 202.309 300.354 202.853 300.354 203.461V209.029H299.154V203.925C299.154 203.403 299.058 202.96 298.866 202.597C298.674 202.235 298.408 201.957 298.066 201.765C297.736 201.563 297.357 201.461 296.93 201.461C296.504 201.461 296.12 201.563 295.778 201.765C295.437 201.957 295.165 202.24 294.962 202.613C294.77 202.976 294.674 203.413 294.674 203.925V209.029H293.474ZM306.55 209.221C305.75 209.221 305.025 209.029 304.374 208.645C303.734 208.251 303.227 207.712 302.854 207.029C302.481 206.347 302.294 205.573 302.294 204.709C302.294 203.845 302.475 203.083 302.838 202.421C303.201 201.749 303.691 201.221 304.31 200.837C304.939 200.453 305.643 200.261 306.422 200.261C307.041 200.261 307.59 200.379 308.07 200.613C308.561 200.837 308.977 201.147 309.318 201.541C309.659 201.925 309.921 202.363 310.102 202.853C310.283 203.333 310.374 203.829 310.374 204.341C310.374 204.448 310.369 204.571 310.358 204.709C310.347 204.837 310.331 204.971 310.31 205.109H303.062V203.989H309.622L309.046 204.469C309.142 203.883 309.073 203.36 308.838 202.901C308.614 202.432 308.289 202.064 307.862 201.797C307.435 201.52 306.955 201.381 306.422 201.381C305.889 201.381 305.393 201.52 304.934 201.797C304.486 202.075 304.134 202.464 303.878 202.965C303.622 203.456 303.521 204.043 303.574 204.725C303.521 205.408 303.627 206.005 303.894 206.517C304.171 207.019 304.545 207.408 305.014 207.685C305.494 207.963 306.006 208.101 306.55 208.101C307.179 208.101 307.707 207.952 308.134 207.653C308.561 207.355 308.907 206.981 309.174 206.533L310.198 207.077C310.027 207.461 309.766 207.819 309.414 208.149C309.062 208.469 308.641 208.731 308.15 208.933C307.67 209.125 307.137 209.221 306.55 209.221ZM98.4471 237.029V225.109H103.455C104.127 225.109 104.708 225.237 105.199 225.493C105.7 225.739 106.084 226.085 106.351 226.533C106.628 226.981 106.767 227.504 106.767 228.101C106.767 228.72 106.612 229.269 106.303 229.749C106.004 230.219 105.572 230.576 105.007 230.821L104.991 230.437C105.46 230.608 105.86 230.848 106.191 231.157C106.532 231.467 106.794 231.829 106.975 232.245C107.156 232.651 107.247 233.088 107.247 233.557C107.247 234.624 106.906 235.472 106.223 236.101C105.551 236.72 104.634 237.029 103.471 237.029H98.4471ZM99.7271 235.829H103.471C104.228 235.829 104.831 235.632 105.279 235.237C105.738 234.832 105.967 234.277 105.967 233.573C105.967 232.88 105.738 232.331 105.279 231.925C104.831 231.509 104.228 231.301 103.471 231.301H99.7271V235.829ZM99.7271 230.149H103.359C103.999 230.149 104.511 229.963 104.895 229.589C105.29 229.216 105.487 228.736 105.487 228.149C105.487 227.552 105.29 227.099 104.895 226.789C104.511 226.469 103.999 226.309 103.359 226.309H99.7271V230.149ZM113.381 237.221C112.57 237.221 111.834 237.029 111.173 236.645C110.511 236.251 109.983 235.717 109.589 235.045C109.205 234.363 109.013 233.589 109.013 232.725C109.013 231.872 109.205 231.109 109.589 230.437C109.973 229.765 110.49 229.237 111.141 228.853C111.802 228.459 112.549 228.261 113.381 228.261C114.213 228.261 114.954 228.453 115.605 228.837C116.266 229.221 116.783 229.749 117.157 230.421C117.541 231.093 117.733 231.861 117.733 232.725C117.733 233.6 117.535 234.379 117.141 235.061C116.746 235.733 116.218 236.261 115.557 236.645C114.906 237.029 114.181 237.221 113.381 237.221ZM113.381 236.021C113.957 236.021 114.474 235.877 114.933 235.589C115.402 235.301 115.77 234.907 116.037 234.405C116.314 233.904 116.453 233.344 116.453 232.725C116.453 232.107 116.314 231.552 116.037 231.061C115.77 230.571 115.402 230.181 114.933 229.893C114.474 229.605 113.957 229.461 113.381 229.461C112.805 229.461 112.282 229.605 111.813 229.893C111.354 230.181 110.986 230.571 110.709 231.061C110.431 231.552 110.293 232.107 110.293 232.725C110.293 233.344 110.431 233.904 110.709 234.405C110.986 234.907 111.354 235.301 111.813 235.589C112.282 235.877 112.805 236.021 113.381 236.021ZM123.865 237.221C123.055 237.221 122.319 237.029 121.657 236.645C120.996 236.251 120.468 235.717 120.073 235.045C119.689 234.363 119.497 233.589 119.497 232.725C119.497 231.872 119.689 231.109 120.073 230.437C120.457 229.765 120.975 229.237 121.625 228.853C122.287 228.459 123.033 228.261 123.865 228.261C124.697 228.261 125.439 228.453 126.089 228.837C126.751 229.221 127.268 229.749 127.641 230.421C128.025 231.093 128.217 231.861 128.217 232.725C128.217 233.6 128.02 234.379 127.625 235.061C127.231 235.733 126.703 236.261 126.041 236.645C125.391 237.029 124.665 237.221 123.865 237.221ZM123.865 236.021C124.441 236.021 124.959 235.877 125.417 235.589C125.887 235.301 126.255 234.907 126.521 234.405C126.799 233.904 126.937 233.344 126.937 232.725C126.937 232.107 126.799 231.552 126.521 231.061C126.255 230.571 125.887 230.181 125.417 229.893C124.959 229.605 124.441 229.461 123.865 229.461C123.289 229.461 122.767 229.605 122.297 229.893C121.839 230.181 121.471 230.571 121.193 231.061C120.916 231.552 120.777 232.107 120.777 232.725C120.777 233.344 120.916 233.904 121.193 234.405C121.471 234.907 121.839 235.301 122.297 235.589C122.767 235.877 123.289 236.021 123.865 236.021ZM130.334 237.029V224.917H131.534V233.397L131.022 233.317L135.838 228.453H137.39L134.03 231.893L137.694 237.029H136.254L132.814 232.277L133.582 232.341L131.134 234.869L131.534 233.877V237.029H130.334ZM139.099 237.029V228.453H140.299V237.029H139.099ZM139.099 226.869V225.109H140.299V226.869H139.099ZM142.755 237.029V228.453H143.955V230.117L143.683 230.053C143.897 229.499 144.243 229.061 144.723 228.741C145.214 228.421 145.779 228.261 146.419 228.261C147.027 228.261 147.571 228.4 148.051 228.677C148.542 228.955 148.926 229.339 149.203 229.829C149.491 230.309 149.635 230.853 149.635 231.461V237.029H148.435V231.925C148.435 231.403 148.339 230.96 148.147 230.597C147.966 230.235 147.705 229.957 147.363 229.765C147.033 229.563 146.649 229.461 146.211 229.461C145.774 229.461 145.385 229.563 145.043 229.765C144.702 229.957 144.435 230.24 144.243 230.613C144.051 230.976 143.955 231.413 143.955 231.925V237.029H142.755ZM155.991 240.549C155.405 240.549 154.861 240.459 154.359 240.277C153.869 240.096 153.442 239.845 153.079 239.525C152.727 239.216 152.455 238.853 152.263 238.437L153.367 237.845C153.538 238.251 153.842 238.603 154.279 238.901C154.717 239.2 155.277 239.349 155.959 239.349C156.482 239.349 156.962 239.248 157.399 239.045C157.837 238.843 158.189 238.544 158.455 238.149C158.722 237.755 158.855 237.269 158.855 236.693V234.789L159.047 234.965C158.749 235.584 158.306 236.064 157.719 236.405C157.133 236.736 156.493 236.901 155.799 236.901C154.999 236.901 154.279 236.709 153.639 236.325C152.999 235.941 152.493 235.424 152.119 234.773C151.757 234.112 151.575 233.381 151.575 232.581C151.575 231.771 151.757 231.04 152.119 230.389C152.493 229.739 152.994 229.221 153.623 228.837C154.263 228.453 154.989 228.261 155.799 228.261C156.493 228.261 157.122 228.421 157.687 228.741C158.263 229.061 158.717 229.493 159.047 230.037L158.855 230.373V228.453H160.055V236.693C160.055 237.429 159.879 238.085 159.527 238.661C159.186 239.248 158.706 239.707 158.087 240.037C157.479 240.379 156.781 240.549 155.991 240.549ZM155.863 235.701C156.418 235.701 156.919 235.563 157.367 235.285C157.815 234.997 158.173 234.619 158.439 234.149C158.717 233.669 158.855 233.147 158.855 232.581C158.855 232.016 158.717 231.499 158.439 231.029C158.173 230.549 157.815 230.171 157.367 229.893C156.919 229.605 156.418 229.461 155.863 229.461C155.298 229.461 154.786 229.605 154.327 229.893C153.869 230.171 153.506 230.544 153.239 231.013C152.983 231.483 152.855 232.005 152.855 232.581C152.855 233.147 152.983 233.669 153.239 234.149C153.506 234.619 153.863 234.997 154.311 235.285C154.77 235.563 155.287 235.701 155.863 235.701ZM165.416 237.029V225.109H169.336C170.52 225.109 171.549 225.355 172.424 225.845C173.298 226.325 173.976 227.013 174.456 227.909C174.936 228.795 175.176 229.845 175.176 231.061C175.176 232.267 174.936 233.317 174.456 234.213C173.976 235.109 173.298 235.803 172.424 236.293C171.549 236.784 170.52 237.029 169.336 237.029H165.416ZM166.696 235.829H169.336C170.253 235.829 171.048 235.637 171.72 235.253C172.392 234.859 172.909 234.304 173.272 233.589C173.645 232.875 173.832 232.032 173.832 231.061C173.832 230.091 173.645 229.253 173.272 228.549C172.898 227.835 172.376 227.285 171.704 226.901C171.032 226.507 170.242 226.309 169.336 226.309H166.696V235.829ZM181.019 237.221C180.219 237.221 179.493 237.029 178.843 236.645C178.203 236.251 177.696 235.712 177.323 235.029C176.949 234.347 176.763 233.573 176.763 232.709C176.763 231.845 176.944 231.083 177.307 230.421C177.669 229.749 178.16 229.221 178.779 228.837C179.408 228.453 180.112 228.261 180.891 228.261C181.509 228.261 182.059 228.379 182.539 228.613C183.029 228.837 183.445 229.147 183.787 229.541C184.128 229.925 184.389 230.363 184.571 230.853C184.752 231.333 184.843 231.829 184.843 232.341C184.843 232.448 184.837 232.571 184.827 232.709C184.816 232.837 184.8 232.971 184.779 233.109H177.531V231.989H184.091L183.515 232.469C183.611 231.883 183.541 231.36 183.307 230.901C183.083 230.432 182.757 230.064 182.331 229.797C181.904 229.52 181.424 229.381 180.891 229.381C180.357 229.381 179.861 229.52 179.403 229.797C178.955 230.075 178.603 230.464 178.347 230.965C178.091 231.456 177.989 232.043 178.043 232.725C177.989 233.408 178.096 234.005 178.363 234.517C178.64 235.019 179.013 235.408 179.483 235.685C179.963 235.963 180.475 236.101 181.019 236.101C181.648 236.101 182.176 235.952 182.603 235.653C183.029 235.355 183.376 234.981 183.643 234.533L184.667 235.077C184.496 235.461 184.235 235.819 183.883 236.149C183.531 236.469 183.109 236.731 182.619 236.933C182.139 237.125 181.605 237.221 181.019 237.221ZM190.239 237.125C189.471 237.125 188.879 236.901 188.463 236.453C188.047 236.005 187.839 235.365 187.839 234.533V229.653H186.255V228.453H186.655C187.017 228.453 187.305 228.336 187.519 228.101C187.732 227.856 187.839 227.552 187.839 227.189V226.469H189.039V228.453H190.927V229.653H189.039V234.533C189.039 234.821 189.081 235.077 189.167 235.301C189.252 235.515 189.396 235.685 189.599 235.813C189.812 235.941 190.095 236.005 190.447 236.005C190.532 236.005 190.633 236 190.751 235.989C190.868 235.979 190.969 235.968 191.055 235.957V237.029C190.927 237.061 190.783 237.083 190.623 237.093C190.463 237.115 190.335 237.125 190.239 237.125ZM195.485 237.221C194.941 237.221 194.456 237.12 194.029 236.917C193.603 236.704 193.267 236.416 193.021 236.053C192.776 235.691 192.653 235.275 192.653 234.805C192.653 234.357 192.749 233.952 192.941 233.589C193.133 233.216 193.432 232.901 193.837 232.645C194.243 232.389 194.76 232.208 195.389 232.101L198.749 231.541V232.629L195.677 233.141C195.059 233.248 194.611 233.445 194.333 233.733C194.067 234.021 193.933 234.363 193.933 234.757C193.933 235.141 194.083 235.467 194.381 235.733C194.691 236 195.085 236.133 195.565 236.133C196.152 236.133 196.664 236.011 197.101 235.765C197.539 235.509 197.88 235.168 198.125 234.741C198.371 234.315 198.493 233.84 198.493 233.317V231.141C198.493 230.629 198.307 230.213 197.933 229.893C197.56 229.573 197.075 229.413 196.477 229.413C195.955 229.413 195.496 229.547 195.101 229.813C194.707 230.069 194.413 230.405 194.221 230.821L193.133 230.229C193.293 229.867 193.544 229.536 193.885 229.237C194.237 228.939 194.637 228.704 195.085 228.533C195.533 228.352 195.997 228.261 196.477 228.261C197.107 228.261 197.661 228.384 198.141 228.629C198.632 228.875 199.011 229.216 199.277 229.653C199.555 230.08 199.693 230.576 199.693 231.141V237.029H198.493V235.317L198.669 235.493C198.52 235.813 198.285 236.107 197.965 236.373C197.656 236.629 197.288 236.837 196.861 236.997C196.445 237.147 195.987 237.221 195.485 237.221ZM202.162 237.029V228.453H203.362V237.029H202.162ZM202.162 226.869V225.109H203.362V226.869H202.162ZM205.818 237.029V224.917H207.018V237.029H205.818ZM212.45 237.221C211.629 237.221 210.909 237.013 210.29 236.597C209.672 236.181 209.224 235.616 208.946 234.901L209.954 234.421C210.2 234.944 210.541 235.36 210.978 235.669C211.426 235.979 211.917 236.133 212.45 236.133C212.962 236.133 213.394 236.011 213.746 235.765C214.098 235.509 214.274 235.179 214.274 234.773C214.274 234.475 214.189 234.24 214.018 234.069C213.848 233.888 213.65 233.749 213.426 233.653C213.202 233.557 213.005 233.488 212.834 233.445L211.602 233.093C210.813 232.869 210.242 232.555 209.89 232.149C209.538 231.744 209.362 231.275 209.362 230.741C209.362 230.24 209.49 229.803 209.746 229.429C210.002 229.056 210.349 228.768 210.786 228.565C211.224 228.363 211.709 228.261 212.242 228.261C212.968 228.261 213.624 228.453 214.21 228.837C214.808 229.211 215.229 229.733 215.474 230.405L214.45 230.885C214.237 230.405 213.928 230.032 213.522 229.765C213.128 229.488 212.685 229.349 212.194 229.349C211.714 229.349 211.33 229.472 211.042 229.717C210.754 229.963 210.61 230.272 210.61 230.645C210.61 230.933 210.685 231.163 210.834 231.333C210.984 231.504 211.154 231.632 211.346 231.717C211.549 231.803 211.725 231.867 211.874 231.909L213.298 232.325C213.992 232.528 214.53 232.843 214.914 233.269C215.309 233.696 215.506 234.197 215.506 234.773C215.506 235.243 215.373 235.664 215.106 236.037C214.85 236.411 214.493 236.704 214.034 236.917C213.576 237.12 213.048 237.221 212.45 237.221ZM218.031 237.029V235.269H219.311V237.029H218.031Z" fill="black"/>
<defs>
<linearGradient id="paint0_linear_301_4338" x1="198.825" y1="61.1644" x2="198.825" y2="141.87" gradientUnits="userSpaceOnUse">
<stop offset="0.275343" stop-color="#E7E7E7"/>
<stop offset="1" stop-color="white" stop-opacity="0"/>
</linearGradient>
<linearGradient id="paint1_linear_301_4338" x1="105.373" y1="86.7564" x2="105.373" y2="147.03" gradientUnits="userSpaceOnUse">
<stop offset="0.275343" stop-color="#E7E7E7"/>
<stop offset="1" stop-color="white" stop-opacity="0"/>
</linearGradient>
<clipPath id="clip0_301_4338">
<rect width="106.391" height="106.391" fill="white" transform="translate(107.314 25.5703)"/>
</clipPath>
</defs>
</svg>
